<svg width="40" height="40" viewBox="0 0 40 40" fill="none" xmlns="http://www.w3.org/2000/svg">
<path d="M36.0605 21.5965L35.596 24.8253C34.7835 30.4711 34.3773 33.294 32.419 34.9803C30.4605 36.6666 27.5883 36.6666 21.8441 36.6666H18.1571C12.4129 36.6666 9.5408 36.6666 7.58236 34.9803C5.62391 33.294 5.21773 30.4711 4.40538 24.8253L3.94076 21.5965C3.30836 17.2013 2.99216 15.0038 3.89293 13.1249C4.7937 11.246 6.71096 10.1039 10.5455 7.81966L12.8536 6.44476C16.3357 4.37046 18.0768 3.33331 20.0006 3.33331C21.9245 3.33331 23.6656 4.37046 27.1476 6.44476L29.4558 7.81966C33.2903 10.1039 35.2076 11.246 36.1083 13.1249" fill="#EBF2FF"/>
<path d="M36.0605 21.5965L35.596 24.8253C34.7835 30.4711 34.3773 33.294 32.419 34.9803C30.4605 36.6666 27.5883 36.6666 21.8441 36.6666H18.1571C12.4129 36.6666 9.5408 36.6666 7.58236 34.9803C5.62391 33.294 5.21773 30.4711 4.40538 24.8253L3.94076 21.5965C3.30836 17.2013 2.99216 15.0038 3.89293 13.1249C4.7937 11.246 6.71096 10.1039 10.5455 7.81966L12.8536 6.44476C16.3357 4.37046 18.0768 3.33331 20.0006 3.33331C21.9245 3.33331 23.6656 4.37046 27.1476 6.44476L29.4558 7.81966C33.2903 10.1039 35.2076 11.246 36.1083 13.1249C36.4113 14.9706 36.3226 16.7177 36.0605 21.5965Z" stroke="#014CC4" stroke-width="1.5" stroke-linecap="round"/>
<path d="M15 26.6667C16.4173 27.7172 18.141 28.3334 20 28.3334C21.859 28.3334 23.5827 27.7172 25 26.6667" stroke="#014CC4" stroke-width="1.5" stroke-linecap="round"/>
</svg>
