<svg width="300" height="300" viewBox="0 0 300 300" fill="none" xmlns="http://www.w3.org/2000/svg">
<path d="M152.13 289.008C231.221 289.008 295.338 256.184 295.338 215.694C295.338 175.204 231.221 142.38 152.13 142.38C73.0383 142.38 8.92188 175.204 8.92188 215.694C8.92188 256.184 73.0383 289.008 152.13 289.008Z" fill="#FAFAFA"/>
<path d="M233.772 263.021C255.321 263.021 272.79 252.231 272.79 238.919C272.79 225.608 255.321 214.817 233.772 214.817C212.223 214.817 194.754 225.608 194.754 238.919C194.754 252.231 212.223 263.021 233.772 263.021Z" fill="#E0E0E0"/>
<path d="M141.151 195.672L116.149 181.242C115.734 181.029 115.274 180.918 114.808 180.918C114.341 180.918 113.882 181.029 113.467 181.242L30.6006 229.092C30.4382 229.146 30.2969 229.25 30.1969 229.389C30.0968 229.528 30.043 229.694 30.043 229.866C30.043 230.037 30.0968 230.204 30.1969 230.343C30.2969 230.481 30.4382 230.585 30.6006 230.64L55.5966 245.076C56.013 245.284 56.4721 245.392 56.9375 245.392C57.403 245.392 57.8622 245.284 58.2785 245.076L65.6646 240.81L133.759 201.6L141.157 197.25C141.324 197.196 141.47 197.09 141.573 196.948C141.676 196.806 141.731 196.634 141.73 196.458C141.73 196.283 141.673 196.112 141.569 195.97C141.465 195.829 141.318 195.724 141.151 195.672Z" fill="#E0E0E0"/>
<path d="M253.542 229.956L249.678 227.904C249.678 227.904 250.056 209.04 253.968 194.43C257.976 179.472 269.64 162.948 280.662 169.14C291.684 175.332 272.094 188.058 266.202 200.34C260.31 212.622 253.542 229.956 253.542 229.956Z" fill="#80D280"/>
<path opacity="0.15" d="M253.542 229.956L249.678 227.904C249.678 227.904 250.056 209.04 253.968 194.43C257.976 179.472 269.64 162.948 280.662 169.14C291.684 175.332 272.094 188.058 266.202 200.34C260.31 212.622 253.542 229.956 253.542 229.956Z" fill="black"/>
<path d="M253.032 225.48C252.981 225.479 252.931 225.467 252.884 225.446C252.837 225.425 252.795 225.395 252.76 225.358C252.725 225.32 252.698 225.276 252.68 225.229C252.661 225.181 252.653 225.13 252.654 225.078C253.482 195.804 266.28 177.93 276.99 171.522C277.08 171.469 277.186 171.453 277.287 171.479C277.388 171.504 277.474 171.568 277.527 171.657C277.581 171.746 277.597 171.853 277.571 171.954C277.546 172.054 277.482 172.141 277.392 172.194C266.85 178.5 254.256 196.14 253.434 225.096C253.434 225.148 253.423 225.199 253.402 225.247C253.381 225.294 253.351 225.337 253.314 225.373C253.277 225.408 253.232 225.436 253.184 225.455C253.136 225.473 253.084 225.482 253.032 225.48Z" fill="white"/>
<path d="M255.288 230.856L251.838 229.086C251.838 229.086 252.264 219.822 259.362 207.75C265.662 197.028 278.43 188.628 283.794 191.622C287.958 193.938 288.918 199.014 284.928 202.392C280.938 205.77 262.518 212.856 255.288 230.856Z" fill="#80D280"/>
<path d="M253.902 227.898C254.502 228.018 254.712 226.536 254.832 226.158C255.06 225.45 255.3 224.754 255.564 224.058C256.081 222.704 256.668 221.378 257.322 220.086C258.582 217.599 260.058 215.228 261.732 213C263.297 210.913 265.003 208.937 266.838 207.084C268.494 205.417 270.237 203.839 272.058 202.356C273.582 201.108 275.166 199.926 276.792 198.816C277.992 198 279.192 197.22 280.446 196.488C281.1 196.104 281.754 195.726 282.432 195.378L282.624 195.282C282.732 195.229 282.814 195.136 282.853 195.023C282.891 194.91 282.884 194.786 282.831 194.679C282.779 194.571 282.686 194.489 282.572 194.45C282.459 194.411 282.336 194.419 282.228 194.472C281.808 194.676 281.406 194.904 281.028 195.132C279.972 195.732 278.94 196.332 277.926 197.004C276.422 197.976 274.954 199.004 273.522 200.088C271.746 201.432 270.04 202.858 268.404 204.366C266.539 206.073 264.784 207.897 263.148 209.826C261.375 211.905 259.77 214.122 258.348 216.456C256.836 218.926 255.57 221.538 254.568 224.256C254.38 224.78 254.2 225.302 254.028 225.822C253.776 226.341 253.623 226.902 253.578 227.478C253.586 227.569 253.618 227.657 253.672 227.731C253.726 227.805 253.799 227.863 253.884 227.898H253.902Z" fill="white"/>
<path d="M58.1032 213.504C58.1032 213.504 58.1993 201.738 53.5733 192C48.9473 182.262 41.7113 175.674 34.3733 174.168C27.0353 172.662 20.2673 178.722 27.5873 184.368C34.9073 190.014 48.3533 196.548 52.6493 214.836L58.1032 213.504Z" fill="#80D280"/>
<path opacity="0.15" d="M58.1032 213.504C58.1032 213.504 58.1993 201.738 53.5733 192C48.9473 182.262 41.7113 175.674 34.3733 174.168C27.0353 172.662 20.2673 178.722 27.5873 184.368C34.9073 190.014 48.3533 196.548 52.6493 214.836L58.1032 213.504Z" fill="black"/>
<path d="M55.043 211.47C54.9664 211.47 54.8927 211.441 54.8369 211.388C54.7812 211.336 54.7475 211.264 54.743 211.188C53.615 192.354 38.099 180.108 30.431 178.02C30.3548 177.998 30.29 177.948 30.2507 177.88C30.2114 177.811 30.2007 177.73 30.221 177.653C30.2421 177.576 30.293 177.51 30.3626 177.469C30.4322 177.429 30.515 177.417 30.593 177.438C38.393 179.568 54.197 192.018 55.343 211.152C55.3448 211.23 55.3168 211.307 55.2645 211.366C55.2122 211.425 55.1394 211.462 55.061 211.47H55.043Z" fill="white"/>
<path d="M59.0521 229.656C60.5385 227.78 61.5359 225.565 61.9548 223.209C62.3737 220.852 62.201 218.429 61.4521 216.156C61.0166 214.783 60.3198 213.508 59.4001 212.4C58.6621 211.53 57.6001 211.08 56.7361 210.354C54.8761 208.812 52.7161 207.174 52.0441 204.726C51.5041 202.776 51.6181 200.928 50.5381 199.098C49.9018 197.952 48.8884 197.062 47.6701 196.578C46.0801 195.978 44.3281 196.374 42.6481 196.578C40.2481 196.848 38.4481 196.02 36.3721 194.916C34.0861 193.716 31.4161 192.768 28.9381 193.506C28.1322 193.745 27.3854 194.15 26.7463 194.696C26.1071 195.242 25.5897 195.916 25.2277 196.675C24.8656 197.433 24.667 198.259 24.6447 199.099C24.6224 199.94 24.7768 200.775 25.0981 201.552C25.6501 202.896 26.6701 203.988 27.4201 205.236C28.1701 206.484 28.5661 207.912 28.0201 209.274C27.6001 210.282 26.8201 211.074 26.5081 212.1C25.6201 214.8 26.1181 217.2 28.8001 218.592C31.6021 220.026 36.0001 218.946 37.4041 222.468C37.9321 223.806 37.9501 225.288 38.2381 226.698C38.8292 229.536 40.4791 232.042 42.8521 233.706C46.0741 235.944 50.4481 235.398 53.7901 233.838C55.8433 232.869 57.6443 231.437 59.0521 229.656Z" fill="#80D280"/>
<path d="M33.7905 212.616C33.8561 212.627 33.9235 212.617 33.9825 212.586C36.3457 211.673 38.8818 211.294 41.4089 211.476C43.9359 211.659 46.3912 212.399 48.5985 213.642C48.6741 213.683 48.7627 213.692 48.8448 213.667C48.9269 213.642 48.9958 213.586 49.0365 213.51C49.0576 213.473 49.0711 213.433 49.0761 213.39C49.0812 213.348 49.0777 213.306 49.066 213.265C49.0542 213.224 49.0344 213.186 49.0077 213.153C48.981 213.12 48.948 213.092 48.9105 213.072C46.6172 211.784 44.067 211.021 41.4433 210.836C38.8196 210.651 36.1876 211.05 33.7365 212.004C33.6789 212.036 33.6322 212.084 33.6028 212.143C33.5733 212.202 33.5624 212.268 33.5715 212.333C33.5806 212.398 33.6093 212.459 33.6538 212.508C33.6983 212.556 33.7564 212.59 33.8205 212.604L33.7905 212.616Z" fill="white"/>
<path d="M54.7435 229.758C54.6649 229.76 54.5888 229.731 54.5316 229.677C54.4744 229.623 54.4406 229.549 54.4375 229.47C53.8795 215.91 40.2655 201.57 31.1395 197.67C31.1026 197.655 31.0691 197.633 31.041 197.605C31.0128 197.577 30.9905 197.543 30.9755 197.506C30.9604 197.469 30.9528 197.43 30.9531 197.39C30.9535 197.35 30.9618 197.311 30.9775 197.274C31.0103 197.201 31.071 197.143 31.1463 197.114C31.2216 197.084 31.3054 197.086 31.3795 197.118C40.6495 201.09 54.4735 215.67 55.0435 229.458C55.0451 229.499 55.0387 229.539 55.0248 229.576C55.0109 229.614 54.9897 229.649 54.9624 229.678C54.9351 229.708 54.9022 229.732 54.8657 229.749C54.8292 229.765 54.7897 229.775 54.7495 229.776L54.7435 229.758Z" fill="white"/>
<path d="M129.888 36.0005L61.9796 75.1925C61.3072 75.6315 60.7483 76.2236 60.3489 76.9203C59.9494 77.617 59.7208 78.3984 59.6816 79.2005V239.119C59.6816 240.583 60.7136 241.177 61.9796 240.439L129.888 201.235C130.556 200.796 131.112 200.208 131.511 199.516C131.91 198.824 132.141 198.048 132.186 197.251V37.3085C132.186 35.8445 131.154 35.2445 129.888 36.0005ZM128.88 185.401C128.88 186.655 127.998 187.453 126.912 188.077L64.7276 223.993C63.6476 224.593 62.7596 224.113 62.7596 222.853V89.8625C62.7599 89.1749 62.9414 88.4994 63.2858 87.9043C63.6303 87.3091 64.1255 86.8153 64.7216 86.4725L126.906 50.5505C127.105 50.4346 127.332 50.3733 127.562 50.3727C127.793 50.3722 128.02 50.4324 128.22 50.5474C128.42 50.6623 128.587 50.8279 128.702 51.0276C128.818 51.2272 128.879 51.4538 128.88 51.6845V185.401Z" fill="#455A64"/>
<path d="M128.88 185.4C128.88 186.654 127.998 187.452 126.912 188.076L64.7278 223.992C63.6478 224.592 62.7598 224.112 62.7598 222.852V89.8619C62.76 89.1742 62.9415 88.4988 63.2859 87.9036C63.6304 87.3085 64.1256 86.8146 64.7218 86.4718L126.906 50.5499C127.105 50.4339 127.332 50.3726 127.563 50.3721C127.793 50.3715 128.02 50.4317 128.22 50.5467C128.42 50.6616 128.587 50.8273 128.702 51.0269C128.818 51.2265 128.879 51.4531 128.88 51.6839V185.4Z" fill="#263238"/>
<path d="M64.7278 223.992L126.912 188.088C127.348 187.852 127.752 187.56 128.112 187.218L62.7598 150.414V222.852C62.7598 224.112 63.6478 224.616 64.7278 223.992Z" fill="#37474F"/>
<path d="M123.846 183.066V52.3203L64.7218 86.4723C64.1256 86.8151 63.6304 87.3089 63.2859 87.9041C62.9415 88.4992 62.76 89.1747 62.7598 89.8623V219.876L121.878 185.742C122.964 185.118 123.846 184.32 123.846 183.066Z" fill="#01BDF3"/>
<path d="M61.6912 240.6C61.0055 240.89 60.2651 241.026 59.5214 241.002C58.7776 240.977 58.048 240.791 57.3832 240.456L54.7552 238.938C54.0846 238.504 53.5262 237.917 53.1258 237.226C52.7253 236.535 52.4942 235.758 52.4512 234.96V75.0004C52.4663 74.4076 52.601 73.8239 52.8472 73.2844C52.9312 73.0984 53.0212 72.9184 53.1232 72.7324L60.3232 76.9324C60.1718 77.2029 60.0395 77.4836 59.9272 77.7724C59.7524 78.2268 59.657 78.7078 59.6452 79.1944V239.118C59.6812 240.468 60.5572 241.08 61.6912 240.6Z" fill="#263238"/>
<path d="M97.9613 208.38C99.4313 208.38 99.5873 210.03 99.5873 210.738C99.4994 212.156 99.0836 213.535 98.3725 214.766C97.6614 215.997 96.6745 217.045 95.4893 217.83C95.0138 218.132 94.468 218.306 93.9053 218.334C92.4353 218.334 92.2793 216.684 92.2793 215.976C92.3678 214.557 92.7833 213.179 93.4932 211.947C94.203 210.716 95.1881 209.665 96.3713 208.878C96.8509 208.581 97.3978 208.409 97.9613 208.38Z" fill="#FF9433"/>
<path d="M95.8858 58.1462C96.4858 57.7862 97.0078 58.0742 97.0078 58.7942C96.986 59.1834 96.8732 59.5621 96.6783 59.8998C96.4834 60.2374 96.212 60.5246 95.8858 60.7382C95.2858 61.0922 94.7578 60.8042 94.7578 60.0902C94.7784 59.7 94.8913 59.3202 95.0875 58.9822C95.2836 58.6442 95.5572 58.3577 95.8858 58.1462Z" fill="#263238"/>
<path d="M88.6366 67.62C89.1886 67.302 89.6326 67.56 89.6326 68.22C89.6143 68.5652 89.5145 68.9013 89.3414 69.2006C89.1683 69.4999 88.9268 69.7539 88.6366 69.942C88.0846 70.26 87.6406 70.002 87.6406 69.342C87.6599 68.9969 87.7601 68.6612 87.9331 68.3621C88.1061 68.0629 88.3471 67.8087 88.6366 67.62Z" fill="#263238"/>
<path d="M91.9673 65.6521L103.121 59.2141C103.721 58.8601 104.225 59.1121 104.225 59.7721C104.196 60.1428 104.081 60.5015 103.89 60.8201C103.698 61.1388 103.435 61.4085 103.121 61.6081L91.9673 68.0461C91.3673 68.4001 90.8633 68.1481 90.8633 67.4881C90.8925 67.1175 91.0075 66.7587 91.1991 66.4401C91.3906 66.1215 91.6536 65.8517 91.9673 65.6521Z" fill="#263238"/>
<path d="M132.16 36.9422C131.992 35.7422 131.038 35.3162 129.892 35.9822L61.9723 75.1922C61.2927 75.6141 60.7345 76.2055 60.3523 76.9082L53.1523 72.7082C53.5404 72.011 54.1001 71.4245 54.7783 71.0042L122.656 31.8002C123.369 31.4391 124.156 31.251 124.954 31.251C125.753 31.251 126.54 31.4391 127.252 31.8002L129.892 33.3122C130.508 33.7203 131.028 34.2555 131.419 34.8816C131.811 35.5077 132.063 36.2103 132.16 36.9422Z" fill="#37474F"/>
<path d="M114.347 41.7967C113.995 41.985 113.603 42.0869 113.203 42.0942C112.804 42.1015 112.408 42.014 112.049 41.8387C111.929 41.7874 111.825 41.7046 111.748 41.599C111.671 41.4934 111.624 41.3689 111.611 41.2387C111.611 41.0707 111.611 40.4467 111.611 40.2727C111.631 40.123 111.688 39.9808 111.779 39.8599C111.869 39.739 111.989 39.6435 112.127 39.5827L119.405 35.3827C119.759 35.1958 120.152 35.0946 120.552 35.0873C120.953 35.08 121.349 35.1668 121.709 35.3407C121.827 35.3944 121.929 35.478 122.005 35.5833C122.081 35.6885 122.128 35.8117 122.141 35.9407C122.141 36.1147 122.141 36.7627 122.141 36.9307C122.122 37.0813 122.065 37.2245 121.975 37.3464C121.884 37.4684 121.764 37.5649 121.625 37.6267L114.347 41.7967Z" fill="#FF9433"/>
<path opacity="0.25" d="M114.347 41.7967C113.995 41.985 113.603 42.0869 113.203 42.0942C112.804 42.1015 112.408 42.014 112.049 41.8387C111.929 41.7874 111.825 41.7046 111.748 41.599C111.671 41.4934 111.624 41.3689 111.611 41.2387C111.611 41.0707 111.611 40.4467 111.611 40.2727C111.631 40.123 111.688 39.9808 111.779 39.8599C111.869 39.739 111.989 39.6435 112.127 39.5827L119.405 35.3827C119.759 35.1958 120.152 35.0946 120.552 35.0873C120.953 35.08 121.349 35.1668 121.709 35.3407C121.827 35.3944 121.929 35.478 122.005 35.5833C122.081 35.6885 122.128 35.8117 122.141 35.9407C122.141 36.1147 122.141 36.7627 122.141 36.9307C122.122 37.0813 122.065 37.2245 121.975 37.3464C121.884 37.4684 121.764 37.5649 121.625 37.6267L114.347 41.7967Z" fill="black"/>
<path d="M114.347 40.8424L121.625 36.6424C122.285 36.2584 122.315 35.6644 121.703 35.3104C121.343 35.1366 120.946 35.0498 120.546 35.0571C120.146 35.0644 119.753 35.1655 119.399 35.3524L112.121 39.5524C111.467 39.9304 111.431 40.5244 112.049 40.8784C112.408 41.0532 112.803 41.141 113.203 41.1347C113.602 41.1285 113.994 41.0284 114.347 40.8424Z" fill="#FF9433"/>
<path opacity="0.3" d="M114.347 40.8424L121.625 36.6424C122.285 36.2584 122.315 35.6644 121.703 35.3104C121.343 35.1366 120.946 35.0498 120.546 35.0571C120.146 35.0644 119.753 35.1655 119.399 35.3524L112.121 39.5524C111.467 39.9304 111.431 40.5244 112.049 40.8784C112.408 41.0532 112.803 41.141 113.203 41.1347C113.602 41.1285 113.994 41.0284 114.347 40.8424Z" fill="black"/>
<path d="M56.9985 99.1024C56.9843 98.7031 56.8757 98.3128 56.6818 97.9634C56.4878 97.6141 56.2139 97.3156 55.8825 97.0924C55.7739 97.0122 55.6453 96.9636 55.5108 96.9519C55.3763 96.9403 55.2412 96.9661 55.1205 97.0264C54.9825 97.1104 54.4305 97.4164 54.2865 97.5064C54.166 97.5977 54.0712 97.7186 54.0112 97.8574C53.9513 97.9962 53.9283 98.1481 53.9445 98.2984V116.13C53.959 116.529 54.067 116.919 54.2598 117.268C54.4526 117.617 54.7248 117.916 55.0545 118.14C55.1629 118.213 55.2883 118.257 55.4186 118.268C55.5489 118.278 55.6797 118.255 55.7985 118.2C55.9545 118.122 56.5125 117.798 56.6625 117.708C56.783 117.617 56.8778 117.496 56.9377 117.357C56.9977 117.219 57.0207 117.067 57.0045 116.916L56.9985 99.1024Z" fill="#FF9433"/>
<path opacity="0.3" d="M56.9985 99.1024C56.9843 98.7031 56.8757 98.3128 56.6818 97.9634C56.4878 97.6141 56.2139 97.3156 55.8825 97.0924C55.7739 97.0122 55.6453 96.9636 55.5108 96.9519C55.3763 96.9403 55.2412 96.9661 55.1205 97.0264C54.9825 97.1104 54.4305 97.4164 54.2865 97.5064C54.166 97.5977 54.0712 97.7186 54.0112 97.8574C53.9513 97.9962 53.9283 98.1481 53.9445 98.2984V116.13C53.959 116.529 54.067 116.919 54.2598 117.268C54.4526 117.617 54.7248 117.916 55.0545 118.14C55.1629 118.213 55.2883 118.257 55.4186 118.268C55.5489 118.278 55.6797 118.255 55.7985 118.2C55.9545 118.122 56.5125 117.798 56.6625 117.708C56.783 117.617 56.8778 117.496 56.9377 117.357C56.9977 117.219 57.0207 117.067 57.0045 116.916L56.9985 99.1024Z" fill="black"/>
<path d="M56.1713 99.6001V117.432C56.1713 118.188 55.6733 118.512 55.0553 118.158C54.7257 117.934 54.4535 117.635 54.2606 117.285C54.0678 116.936 53.9598 116.547 53.9453 116.148V98.2981C53.9453 97.5361 54.4433 97.2121 55.0553 97.5661C55.3893 97.7923 55.6646 98.0948 55.8587 98.4484C56.0527 98.8021 56.1599 99.1968 56.1713 99.6001Z" fill="#FF9433"/>
<path opacity="0.4" d="M56.1713 99.6001V117.432C56.1713 118.188 55.6733 118.512 55.0553 118.158C54.7257 117.934 54.4535 117.635 54.2606 117.285C54.0678 116.936 53.9598 116.547 53.9453 116.148V98.2981C53.9453 97.5361 54.4433 97.2121 55.0553 97.5661C55.3893 97.7923 55.6646 98.0948 55.8587 98.4484C56.0527 98.8021 56.1599 99.1968 56.1713 99.6001Z" fill="black"/>
<path d="M56.9985 123.001C56.9843 122.601 56.8757 122.211 56.6818 121.862C56.4878 121.513 56.2139 121.214 55.8825 120.991C55.7739 120.911 55.6453 120.862 55.5108 120.85C55.3763 120.839 55.2412 120.864 55.1205 120.925C54.9825 121.009 54.4305 121.315 54.2865 121.405C54.166 121.496 54.0712 121.617 54.0112 121.756C53.9513 121.895 53.9283 122.047 53.9445 122.197V130.597C53.9599 130.994 54.0684 131.383 54.2611 131.731C54.4539 132.079 54.7256 132.377 55.0545 132.601C55.1594 132.678 55.2831 132.727 55.4129 132.74C55.5426 132.754 55.6737 132.733 55.7925 132.679C55.9485 132.601 56.5065 132.277 56.6565 132.187C56.7765 132.096 56.8711 131.977 56.931 131.839C56.9909 131.701 57.0142 131.55 56.9985 131.401V123.001Z" fill="#FF9433"/>
<path opacity="0.3" d="M56.9985 123.001C56.9843 122.601 56.8757 122.211 56.6818 121.862C56.4878 121.513 56.2139 121.214 55.8825 120.991C55.7739 120.911 55.6453 120.862 55.5108 120.85C55.3763 120.839 55.2412 120.864 55.1205 120.925C54.9825 121.009 54.4305 121.315 54.2865 121.405C54.166 121.496 54.0712 121.617 54.0112 121.756C53.9513 121.895 53.9283 122.047 53.9445 122.197V130.597C53.9599 130.994 54.0684 131.383 54.2611 131.731C54.4539 132.079 54.7256 132.377 55.0545 132.601C55.1594 132.678 55.2831 132.727 55.4129 132.74C55.5426 132.754 55.6737 132.733 55.7925 132.679C55.9485 132.601 56.5065 132.277 56.6565 132.187C56.7765 132.096 56.8711 131.977 56.931 131.839C56.9909 131.701 57.0142 131.55 56.9985 131.401V123.001Z" fill="black"/>
<path d="M56.1713 123.45V131.85C56.1713 132.606 55.6733 132.936 55.0553 132.576C54.7257 132.352 54.4535 132.053 54.2606 131.704C54.0678 131.354 53.9598 130.965 53.9453 130.566V122.166C53.9453 121.41 54.4433 121.08 55.0553 121.434C55.3862 121.659 55.6595 121.959 55.8534 122.309C56.0472 122.66 56.1561 123.05 56.1713 123.45Z" fill="#FF9433"/>
<path opacity="0.4" d="M56.1713 123.45V131.85C56.1713 132.606 55.6733 132.936 55.0553 132.576C54.7257 132.352 54.4535 132.053 54.2606 131.704C54.0678 131.354 53.9598 130.965 53.9453 130.566V122.166C53.9453 121.41 54.4433 121.08 55.0553 121.434C55.3862 121.659 55.6595 121.959 55.8534 122.309C56.0472 122.66 56.1561 123.05 56.1713 123.45Z" fill="black"/>
<path d="M76.8836 108.114C76.9432 108.406 77.0234 108.692 77.1236 108.972C77.5136 110.028 78.2156 111.024 78.1556 112.152C78.0896 113.424 77.0876 114.408 76.3196 115.422C75.3215 116.763 74.6563 118.322 74.3788 119.97C74.1013 121.618 74.2195 123.309 74.7236 124.902C75.4613 126.843 76.4846 128.663 77.7596 130.302L80.6576 134.412C81.5339 135.563 82.6522 136.507 83.9336 137.178C86.4238 138.586 89.2023 139.407 92.0576 139.578C96.7509 139.895 101.419 138.671 105.354 136.092C109.524 133.332 107.688 126.252 111.954 123.666C117.114 120.546 119.574 109.71 113.25 105.186C113.25 105.186 114.27 98.5502 112.398 96.8582C110.532 95.2971 108.224 94.3611 105.798 94.1822C102.45 93.8342 99.0956 94.4882 95.7536 94.4762C92.3132 94.4651 88.8759 94.6796 85.4636 95.1182C84.2636 95.2802 82.5716 95.7182 81.9236 96.8882C81.7406 97.3471 81.6907 97.8482 81.7796 98.3342C81.7703 99.1052 81.4947 99.8492 80.9996 100.44C80.2556 101.34 79.1996 101.946 78.4076 102.792C77.754 103.498 77.2756 104.347 77.0108 105.271C76.7461 106.196 76.7025 107.17 76.8836 108.114Z" fill="#263238"/>
<path d="M110.184 117.689C115.584 117.839 116.286 118.991 121.122 123.779C125.142 127.757 138.462 140.051 138.462 140.051L154.422 144.299L150.654 154.037C150.654 154.037 147.054 153.887 139.854 153.881C135.432 153.881 133.896 152.891 129.444 149.921C127.176 148.403 114.378 140.027 114.378 140.027L110.184 117.689Z" fill="#E6E6E6"/>
<path d="M172.08 124.607L142.83 134.915L134.766 169.715L135.42 170.411L163.23 160.037L172.728 125.303L172.08 124.607Z" fill="#575F75"/>
<path opacity="0.35" d="M143.478 135.612L135.42 170.412L134.766 169.716L142.83 134.916L143.478 135.612Z" fill="black"/>
<path opacity="0.25" d="M172.728 125.304L143.478 135.612L135.42 170.412L163.23 160.038L172.728 125.304Z" fill="#01BDF3"/>
<g opacity="0.2">
<path d="M158.879 152.958C159.149 153.642 161.393 155.148 164.639 154.878L165.185 152.874L158.879 152.958Z" fill="black"/>
</g>
<g opacity="0.1">
<path d="M163.919 132.432L164.159 131.262C164.291 130.62 162.575 130.956 160.325 132.018L155.045 133.614C152.795 134.676 150.671 135.468 150.533 136.11L150.293 137.274L163.919 132.432Z" fill="black"/>
</g>
<path d="M165.659 127.152C165.743 126.75 165.059 126.834 164.141 127.08L162.455 127.65C162.455 127.65 163.145 125.958 159.155 127.05C154.769 128.25 154.673 130.428 154.673 130.428C153.987 130.725 153.284 130.982 152.567 131.196C151.109 131.67 150.953 131.952 150.833 132.36L150.617 133.098L165.527 127.854C165.527 127.854 165.599 127.554 165.659 127.152Z" fill="#37474F"/>
<path d="M164.089 129.389C162.709 129.989 162.139 130.32 161.929 131.316C161.695 132.45 161.647 132.923 161.647 132.923L153.883 135.984C153.883 135.984 154.303 134.31 154.405 133.752C154.507 133.194 153.481 133.194 152.137 133.812L152.455 132.42L164.533 127.938L164.089 129.389Z" fill="#37474F"/>
<path d="M164.315 132.449C164.315 132.449 164.429 131.927 164.561 131.279C164.693 130.631 162.977 130.973 160.727 132.035L155.447 133.631C153.197 134.693 151.067 135.485 150.935 136.127L150.695 137.327L164.315 132.449Z" fill="#37474F"/>
<path d="M169.477 137.208C169.477 137.208 168.439 141.024 168.163 142.008C167.887 142.992 163.099 145.182 160.705 145.482C156.121 146.052 155.599 147.042 156.697 150.282C157.717 153.282 160.699 154.422 164.839 153.936C166.783 153.708 169.465 151.986 170.521 148.98C171.865 145.14 171.121 141.042 171.679 138.78C172.237 136.518 170.641 135.87 169.477 137.208Z" fill="#FFA8A7"/>
<path d="M124.152 189.683L121.05 191.483L119.748 192.233L102.684 202.079L100.356 203.399L96.4258 205.667L97.6258 193.421L99.9178 169.709V169.463L100.026 168.401L103.026 137.399L104.34 123.833L104.802 118.967L104.958 117.395H105.042C106.431 117.009 107.9 117.009 109.29 117.395C109.6 117.489 109.901 117.61 110.19 117.755C111.99 118.649 113.19 120.389 114.186 122.219C114.431 122.665 114.651 123.124 114.846 123.593C115.586 125.372 116.156 127.216 116.55 129.101C117.336 132.581 118.35 136.139 118.752 141.749C118.815 143.193 118.739 144.64 118.524 146.069C118.253 149.851 118.207 153.646 118.386 157.433C118.89 166.013 121.05 169.901 124.152 189.683Z" fill="#E0E0E0"/>
<path d="M119.747 192.222L102.683 202.068L100.355 203.4L96.425 205.668L93.719 207.228L77.291 216.708C77.465 210.108 77.543 202.95 77.387 196.188C77.339 193.926 77.321 191.616 77.417 189.252C77.729 181.044 79.289 172.242 84.881 162.978L85.139 162.51C85.799 166.428 91.799 168.972 97.199 169.572L97.799 169.626C98.477 169.692 99.179 169.722 99.905 169.722H100.361C104.927 169.68 110.333 168.606 116.561 166.5C117.161 169.98 117.761 174.546 118.403 179.886C118.691 182.286 118.983 184.844 119.279 187.56C119.399 189.078 119.585 190.632 119.747 192.222Z" fill="#FFA8A7"/>
<path d="M121.05 191.471L119.748 192.221L102.684 202.067L100.356 203.399L96.4262 205.667L93.7202 207.227L77.2922 216.707L75.4922 217.745C75.5822 210.641 75.6422 203.681 75.6362 199.313C75.6362 195.251 75.7262 191.639 75.9482 188.435C76.3862 182.111 77.2982 177.353 78.8222 173.753C80.6103 169.813 82.7258 166.03 85.1462 162.443C85.1462 162.443 86.6462 167.507 97.8662 168.305H97.9382C98.5982 168.353 99.2942 168.383 100.026 168.395H100.878C114.846 168.395 116.388 164.873 116.388 164.873C117.753 170.052 118.832 175.302 119.622 180.599C119.918 182.471 120.204 184.471 120.48 186.599C120.684 188.159 120.876 189.779 121.05 191.471Z" fill="#1A1D44"/>
<path opacity="0.2" d="M113.039 183.51C113.039 183.51 111.479 188.466 104.915 191.244L104.603 192.762L102.683 202.068L100.355 203.4L101.747 193.134L102.347 188.67C106.404 188.249 110.186 186.424 113.039 183.51Z" fill="black"/>
<path d="M93.0769 118.83L86.4769 119.526C82.1089 120.594 80.1349 122.526 79.6849 126.384C79.4749 128.184 78.3889 132.984 79.9129 138.984C81.2929 144.432 84.9769 157.764 84.9769 157.764C84.9769 157.764 76.4989 168.828 74.9629 187.8C90.4789 197.928 114.281 192.486 120.719 186.366C120.179 180.57 116.477 164.664 116.015 159.498C116.015 159.498 116.357 151.428 116.999 147.93C121.907 142.572 121.283 137.448 119.081 133.314C115.013 125.682 108.881 118.974 106.895 118.98L93.0769 118.83Z" fill="#014CC4"/>
<path opacity="0.7" d="M93.0769 118.83L86.4769 119.526C82.1089 120.594 80.1349 122.526 79.6849 126.384C79.4749 128.184 78.3889 132.984 79.9129 138.984C81.2929 144.432 84.9769 157.764 84.9769 157.764C84.9769 157.764 76.4989 168.828 74.9629 187.8C90.4789 197.928 114.281 192.486 120.719 186.366C120.179 180.57 116.477 164.664 116.015 159.498C116.015 159.498 116.357 151.428 116.999 147.93C121.907 142.572 121.283 137.448 119.081 133.314C115.013 125.682 108.881 118.974 106.895 118.98L93.0769 118.83Z" fill="white"/>
<path d="M98.7966 160.14C98.7966 160.26 98.7966 160.368 98.7966 160.458V160.614C98.8005 160.664 98.8005 160.714 98.7966 160.764C98.5686 163.164 98.2986 165.714 98.0106 168.312C98.0106 168.312 98.0106 168.312 98.0106 168.348C97.9686 168.768 97.9206 169.188 97.8726 169.614C96.9906 177.444 95.9406 185.814 95.1306 193.434C94.9326 195.282 94.7526 197.082 94.5906 198.834C94.3386 201.456 94.0686 204.33 93.7926 207.234L77.3646 216.714L75.5646 217.752L70.9746 220.398C71.8986 211.308 74.0526 190.248 75.2526 180.744C75.3906 179.67 75.5706 178.596 75.7746 177.528L75.9366 176.748L76.0086 176.43C76.0866 176.07 76.1646 175.722 76.2486 175.368C76.3326 175.014 76.4106 174.714 76.4886 174.396C76.6746 173.67 76.8726 172.956 77.0886 172.26C77.1906 171.924 77.2866 171.588 77.3946 171.258C77.5026 170.928 77.5926 170.598 77.7006 170.274C77.9166 169.626 78.1266 168.99 78.3486 168.372C78.346 168.36 78.346 168.348 78.3486 168.336C78.4506 168.042 78.5586 167.736 78.6666 167.46C78.8106 167.052 78.9606 166.656 79.1106 166.26L79.2906 165.786C79.3806 165.57 79.4586 165.36 79.5426 165.15C79.8366 164.412 80.1426 163.71 80.4126 163.056C80.4726 162.912 80.5386 162.768 80.5986 162.63C80.6586 162.492 80.7546 162.288 80.8266 162.12C81.0066 161.7 81.1866 161.31 81.3606 160.92C81.4326 160.752 81.5106 160.59 81.5826 160.434C81.6546 160.278 81.7566 160.074 81.8346 159.906L81.9486 159.666L82.0686 159.432C82.0765 159.401 82.0908 159.373 82.1106 159.348C82.127 159.304 82.147 159.262 82.1706 159.222C82.1851 159.195 82.1972 159.167 82.2066 159.138C82.2566 159.053 82.3007 158.965 82.3386 158.874L82.7406 158.094C82.7406 158.052 82.7826 158.022 82.7946 157.986L82.9506 157.698L77.9586 136.998L75.4746 126.714V126.546C75.5886 125.634 76.3506 121.332 80.7426 120.024C83.2222 119.384 85.7621 119.006 88.3206 118.896C89.3046 118.836 90.1926 118.812 90.9186 118.794H92.0646H92.7546C92.7562 118.808 92.7562 118.822 92.7546 118.836C92.7906 118.926 92.8926 119.196 93.0486 119.616C93.0655 119.686 93.0896 119.755 93.1206 119.82C93.1212 119.83 93.1212 119.84 93.1206 119.85C94.2006 122.814 97.2306 131.442 98.7366 138.936C99.0006 140.232 99.2166 141.498 99.3726 142.698C99.8226 146.448 99.4926 152.724 98.7966 160.14Z" fill="#FAFAFA"/>
<path d="M83.1117 147.786C83.1117 147.786 83.7117 144.828 84.5937 138.438C85.6197 131.07 85.2537 127.428 84.1437 125.1L77.8857 137.034L82.8777 157.734C82.8777 157.734 77.7477 167.13 75.6777 177.534C80.5857 163.668 85.9557 159.534 85.9557 159.534L83.1117 147.786Z" fill="#E6E6E6"/>
<path d="M105.035 114.21C106.979 114.21 107.207 114.534 108.881 116.778C109.877 118.116 116.183 128.526 116.183 128.526C116.183 128.526 111.167 121.926 107.381 119.922C106.652 119.495 105.864 119.179 105.041 118.986L105.035 114.21Z" fill="#EBEBEB"/>
<path d="M90.6607 136.332C90.6607 135.732 90.6007 134.436 90.4987 132.804C90.0007 124.8 89.7607 117.6 92.4607 117L92.6947 118.104C90.7267 118.53 91.3747 128.832 91.6207 132.708C91.7287 134.376 91.8127 135.708 91.7827 136.356L90.6607 136.332Z" fill="#FF9433"/>
<path d="M81.6602 83.9283L85.8602 87.3663C86.0885 87.1049 86.2611 86.7998 86.3673 86.4694C86.4736 86.139 86.5113 85.7905 86.4782 85.445C86.445 85.0996 86.3417 84.7645 86.1746 84.4604C86.0075 84.1563 85.78 83.8895 85.5061 83.6763C84.954 83.2197 84.2481 82.9914 83.5331 83.0382C82.8181 83.0851 82.148 83.4035 81.6602 83.9283Z" fill="#263238"/>
<path d="M92.6271 114.72C92.6271 112.086 86.4891 108.12 83.3211 102.582C80.1531 97.0438 81.7371 87.9358 86.0811 86.5378C86.1171 86.5378 86.2371 85.3678 86.2551 85.2838C86.4953 84.2271 86.9002 83.2147 87.4551 82.2838C89.2251 79.2358 92.9751 76.8838 96.4551 76.3918C110.213 74.3878 116.537 79.7338 119.063 85.6138C119.882 87.5918 120.247 89.7282 120.131 91.8658C120.06 93.4358 119.478 94.9395 118.472 96.1474C117.467 97.3554 116.094 98.2012 114.563 98.5558L92.6271 114.72Z" fill="#263238"/>
<path d="M111.714 83.6455C114.408 84.8455 116.97 88.9435 116.928 100.476C116.892 110.256 113.892 112.728 112.38 113.454C110.868 114.18 107.91 113.808 105.036 113.37V118.986C105.036 118.986 107.19 121.104 106.434 122.436C105.678 123.768 102.888 124.896 98.5496 123.534C93.6356 121.992 92.5136 118.734 92.5136 118.734L92.3996 106.41C92.3996 106.41 90.7496 108.144 87.8396 105.6C85.4396 103.494 84.5756 99.8875 86.3816 97.9075C88.1876 95.9275 90.5036 95.7715 92.5916 97.9855L94.0916 97.1935C96.7676 96.8815 100.692 96.4315 103.584 94.9735C111 91.1995 111.768 87.1075 111.714 83.6455Z" fill="#FFA8A7"/>
<path d="M92.6348 96.3896L92.6708 101.79C93.0175 101.799 93.3625 101.737 93.6846 101.608C94.0066 101.479 94.2988 101.285 94.5432 101.039C94.7877 100.793 94.9792 100.5 95.106 100.177C95.2329 99.8538 95.2923 99.5084 95.2808 99.1617C95.2743 98.45 94.9972 97.7674 94.5057 97.2526C94.0143 96.7378 93.3454 96.4292 92.6348 96.3896Z" fill="#263238"/>
<path d="M111.965 97.1579C111.967 97.4117 112.044 97.6591 112.186 97.8695C112.328 98.0799 112.528 98.244 112.763 98.3415C112.997 98.439 113.255 98.4657 113.504 98.4181C113.753 98.3705 113.983 98.2508 114.165 98.0738C114.346 97.8969 114.472 97.6704 114.527 97.4226C114.581 97.1747 114.561 96.9164 114.47 96.6796C114.379 96.4428 114.221 96.238 114.014 96.0905C113.808 95.943 113.562 95.8594 113.309 95.85C113.134 95.846 112.961 95.8768 112.798 95.9407C112.636 96.0046 112.488 96.1002 112.362 96.2219C112.237 96.3437 112.138 96.4892 112.069 96.6499C112.001 96.8106 111.966 96.9833 111.965 97.1579Z" fill="black"/>
<path d="M101.616 97.734C101.605 97.92 101.631 98.1063 101.693 98.2822C101.754 98.458 101.85 98.6199 101.974 98.7587C102.099 98.8975 102.249 99.0104 102.417 99.091C102.585 99.1715 102.767 99.2181 102.954 99.228C103.142 99.2296 103.33 99.1939 103.505 99.1229C103.68 99.0519 103.839 98.9471 103.973 98.8144C104.108 98.6817 104.214 98.5238 104.288 98.3497C104.361 98.1757 104.399 97.9889 104.4 97.8C104.405 97.6172 104.375 97.4351 104.311 97.2639C104.246 97.0928 104.149 96.936 104.024 96.8026C103.899 96.6691 103.748 96.5616 103.582 96.4862C103.415 96.4108 103.235 96.3689 103.053 96.363C102.87 96.3571 102.688 96.3873 102.516 96.4518C102.345 96.5163 102.189 96.6138 102.055 96.7389C101.922 96.864 101.814 97.0141 101.739 97.1808C101.663 97.3474 101.621 97.5272 101.616 97.71V97.734Z" fill="black"/>
<path d="M115.399 94.7403L112.057 93.4143C112.134 93.1894 112.257 92.983 112.418 92.8078C112.578 92.6326 112.773 92.4924 112.991 92.3961C113.208 92.2998 113.443 92.2494 113.681 92.2481C113.919 92.2467 114.154 92.2944 114.373 92.3883C114.813 92.5735 115.165 92.9211 115.356 93.359C115.547 93.7969 115.562 94.2915 115.399 94.7403Z" fill="black"/>
<path d="M108.797 96.1016L108.629 104.106L112.931 103.152L108.797 96.1016Z" fill="#F28F8F"/>
<path d="M103.728 105.738L107.928 107.04C107.867 107.327 107.748 107.597 107.578 107.836C107.408 108.074 107.191 108.275 106.94 108.425C106.689 108.576 106.409 108.674 106.119 108.712C105.829 108.75 105.534 108.729 105.252 108.648C104.676 108.448 104.198 108.035 103.915 107.495C103.631 106.954 103.565 106.326 103.728 105.738Z" fill="#B16668"/>
<path d="M106.05 108.72C106.045 108.136 105.81 107.577 105.395 107.166C104.981 106.754 104.42 106.524 103.836 106.524C103.778 106.521 103.72 106.521 103.662 106.524C103.684 106.992 103.846 107.444 104.127 107.82C104.408 108.195 104.796 108.477 105.24 108.63C105.501 108.716 105.777 108.746 106.05 108.72Z" fill="#F28F8F"/>
<path d="M105.036 113.4C102.006 113.04 95.7601 111.3 94.7461 108.762C95.1524 110.036 95.9321 111.158 96.9841 111.984C98.8681 113.604 105.036 115.29 105.036 115.29V113.4Z" fill="#F28F8F"/>
<path d="M92.4834 114.24C91.6914 114.078 90.9894 114.426 90.3414 115.518C89.6934 116.61 88.2714 118.938 88.2714 118.938C88.2714 118.938 87.5334 126.612 88.2714 128.538C88.9074 130.194 95.9214 136.404 95.9214 136.404C95.9214 136.404 94.0914 143.298 94.0254 145.56C93.9594 147.822 98.2254 156.408 98.7414 160.8C98.7414 160.8 100.259 147 99.6054 142.026C98.4774 133.404 94.4334 122.268 92.5254 118.728L92.4834 114.24Z" fill="#EBEBEB"/>
<path d="M96.7741 142.8C96.306 141.686 95.7544 140.609 95.1241 139.578C94.1281 137.928 92.8981 136.344 91.7881 135.936C91.6199 135.869 91.4411 135.833 91.2601 135.828H91.2001C91.0174 135.838 90.8382 135.883 90.6721 135.96C89.7961 136.35 88.8721 137.544 88.1221 138.918C87.354 140.298 86.7211 141.749 86.2321 143.25C85.9441 144.18 86.0701 146.154 86.4121 148.41C87.0841 152.79 88.5781 158.262 89.4121 159.342C90.0234 160.097 90.7456 160.754 91.5541 161.292C91.0591 161.62 90.5249 161.884 89.9641 162.078C89.6469 162.194 89.3118 162.253 88.9741 162.252V163.038H89.0701C89.4268 163.032 89.7807 162.974 90.1201 162.864C90.9066 162.609 91.6492 162.235 92.3221 161.754C93.0324 162.177 93.8034 162.489 94.6081 162.678C94.987 162.769 95.3789 162.793 95.7661 162.75L95.6701 161.97C95.3341 161.999 94.9957 161.972 94.6681 161.892C94.0909 161.742 93.5346 161.52 93.0121 161.232C93.7736 160.626 94.4409 159.91 94.9921 159.108C95.4601 158.394 96.0361 155.934 96.4681 153.108C96.7321 151.422 96.9481 149.61 97.0681 147.96C97.2001 145.656 97.1401 143.682 96.7741 142.8ZM94.2961 158.676C93.7332 159.488 93.0422 160.203 92.2501 160.794C91.4087 160.274 90.6586 159.62 90.0301 158.856C89.2501 157.842 87.8101 152.502 87.1621 148.29C86.8321 146.16 86.7121 144.318 86.9761 143.49C87.4654 141.97 88.113 140.506 88.9081 139.122C89.7361 137.694 90.6181 136.644 91.2301 136.62C91.9561 136.62 93.1321 137.934 94.2301 139.62C94.4521 139.95 94.6621 140.31 94.8661 140.67C95.3137 141.445 95.7144 142.247 96.0661 143.07C96.3961 143.886 96.4321 145.728 96.2821 147.87C96.1981 149.07 96.0661 150.324 95.8981 151.572C95.4421 154.83 94.8001 157.884 94.2961 158.658V158.676Z" fill="#455A64"/>
<path d="M96.8404 162.288C96.8498 162.517 96.7909 162.743 96.6714 162.939C96.5518 163.134 96.3769 163.29 96.1688 163.386C95.9607 163.482 95.7288 163.514 95.5024 163.479C95.276 163.443 95.0653 163.34 94.8971 163.185C94.7288 163.029 94.6105 162.827 94.5572 162.604C94.5038 162.381 94.5179 162.148 94.5975 161.933C94.6771 161.718 94.8187 161.531 95.0043 161.397C95.19 161.262 95.4114 161.186 95.6404 161.178C95.9466 161.166 96.2448 161.277 96.4697 161.485C96.6946 161.693 96.8279 161.981 96.8404 162.288Z" fill="#263238"/>
<path d="M90.1136 162.6C90.1241 162.829 90.0663 163.057 89.9476 163.253C89.8288 163.449 89.6543 163.606 89.4464 163.703C89.2384 163.8 89.0064 163.833 88.7796 163.798C88.5529 163.763 88.3417 163.661 88.1728 163.506C88.0039 163.35 87.885 163.148 87.8312 162.925C87.7773 162.702 87.7909 162.468 87.8703 162.253C87.9497 162.037 88.0912 161.851 88.277 161.716C88.4627 161.581 88.6843 161.505 88.9136 161.496C89.0649 161.49 89.216 161.513 89.3582 161.565C89.5005 161.617 89.6311 161.697 89.7425 161.799C89.854 161.902 89.9441 162.025 90.0078 162.163C90.0715 162.3 90.1074 162.449 90.1136 162.6Z" fill="#263238"/>
<path d="M96.9725 147.948L96.3065 147.9C96.2386 147.893 96.1757 147.861 96.131 147.81C96.0862 147.758 96.0631 147.692 96.0665 147.624C96.2045 145.422 96.1325 143.802 95.8625 143.154C94.6985 140.31 92.2625 136.746 91.2365 136.788C90.2105 136.83 88.0865 140.592 87.1625 143.52C86.9525 144.192 87.0185 145.812 87.3365 147.996C87.347 148.062 87.3308 148.13 87.2916 148.185C87.2523 148.24 87.193 148.278 87.1265 148.29L86.4665 148.392C86.3973 148.4 86.3276 148.381 86.2725 148.338C86.2174 148.295 86.1815 148.233 86.1725 148.164C85.8065 145.716 85.7645 144.036 86.0405 143.166C86.5325 141.594 88.8545 135.708 91.1885 135.612C93.5225 135.516 96.3365 141.18 96.9605 142.71C97.3025 143.55 97.4045 145.23 97.2485 147.696C97.2439 147.765 97.2126 147.83 97.1612 147.877C97.1097 147.924 97.0421 147.949 96.9725 147.948Z" fill="#FF9433"/>
<path d="M82.5838 119.946C78.1918 119.874 76.1638 121.356 73.3798 125.082C71.1718 128.04 62.5798 144.024 59.7298 148.692L44.2138 140.4C41.0758 138.234 40.0618 134.814 38.0758 132.816C36.0898 130.818 34.0318 130.416 31.8478 128.766C29.6638 127.116 28.7758 125.832 28.1458 127.374C27.5158 128.916 29.9458 131.412 30.4078 132.03C30.8698 132.648 33.3058 134.022 30.1438 134.07C26.9818 134.118 20.7238 130.842 19.1998 130.26C17.6758 129.678 17.7658 131.496 18.5158 132.66C19.2658 133.824 19.2298 137.112 20.4958 139.014C21.8338 141.03 22.5658 141.906 25.5478 143.214C28.3198 144.414 34.1398 144.894 37.0858 146.736C40.0318 148.578 47.3338 155.07 51.7738 158.964C57.4198 163.914 61.3138 164.82 64.4578 161.85C67.5118 158.652 70.6078 154.902 72.1198 153C76.1938 147.87 82.6378 136.2 82.6378 136.2C82.6378 136.2 85.4278 130.2 82.5838 119.946Z" fill="#FFA8A7"/>
<path d="M83.1905 119.508C76.7225 119.508 74.7905 121.848 71.4785 127.254C68.1665 132.66 59.6705 148.134 59.6705 148.134L47.4365 141.726C47.4365 141.726 45.2345 146.574 42.8945 151.572C42.8945 151.572 49.8185 157.572 53.0945 160.41C56.3705 163.248 60.7145 165.474 64.7405 162C69.0425 158.292 82.9925 139.026 82.9925 139.026C86.3045 133.014 85.5665 123.9 83.1905 119.508Z" fill="#F0F0F0"/>
<path d="M59.6699 148.134C61.6679 150.486 64.0859 153.132 63.9779 155.214C63.9779 155.214 65.3459 153.366 60.5399 146.556L59.6699 148.134Z" fill="#E0E0E0"/>
<path d="M36.5279 90.4316L31.5239 93.2996L31.5419 87.5516L27.7979 85.3916L19.0679 90.4316V100.512L10.3379 105.552V115.632L14.0819 117.792L19.0679 114.912V120.678L22.8119 122.838L31.5419 117.792V107.712L40.2719 102.672V92.5916L36.5279 90.4316Z" fill="#014CC4"/>
<path d="M14.082 107.712V117.792L22.812 112.752V122.838L31.542 117.792V107.712L40.272 102.672V92.5918L31.512 97.6498L31.542 87.5518L22.812 92.5918V102.672L14.082 107.712Z" fill="#014CC4"/>
<g opacity="0.2">
<path d="M14.0819 117.792L10.3379 115.632V105.552L14.0819 107.712V117.792Z" fill="black"/>
<path d="M22.8124 92.5916L19.0684 90.4316V100.512L22.8124 102.672V92.5916Z" fill="black"/>
<path d="M22.8124 122.838L19.0684 120.678V114.912L22.8124 112.752V122.838Z" fill="black"/>
</g>
<g opacity="0.5">
<path d="M22.8119 102.672L19.0679 100.512L10.3379 105.552L14.0819 107.712L22.8119 102.672Z" fill="white"/>
<path d="M31.5424 87.5516L27.7984 85.3916L19.0684 90.4316L22.8124 92.5916L31.5424 87.5516Z" fill="white"/>
<path d="M40.2717 92.5916L36.5277 90.4316L31.5237 93.2996L31.5117 97.6496L40.2717 92.5916Z" fill="white"/>
</g>
<path d="M180.119 70.2001C179.961 70.0628 179.79 69.9402 179.609 69.8341C178.973 69.4561 176.093 67.8001 175.943 67.7101C174.419 66.7381 172.007 66.9541 169.859 68.0401C166.781 69.5941 164.219 72.8761 162.263 78.3421C162.263 78.3421 160.283 76.9201 159.641 76.5421C158.051 75.6721 156.191 76.0921 154.097 77.4541C151.739 78.9901 150.131 80.9821 148.661 83.9941V84.0481C147.387 86.6056 146.691 89.4117 146.621 92.2681C146.621 98.5861 149.207 101.598 152.573 103.86C153.533 104.508 156.071 105.87 156.323 106.038C158.354 107.379 160.601 108.362 162.965 108.942L166.283 109.716L169.601 105.114C172.017 101.721 174.234 98.191 176.243 94.5421C179.609 88.3921 182.243 82.3681 182.195 76.0741C182.147 73.3801 181.373 71.4001 180.119 70.2001Z" fill="#014CC4"/>
<path opacity="0.3" d="M180.119 70.2001C179.961 70.0628 179.79 69.9402 179.609 69.8341C178.973 69.4561 176.093 67.8001 175.943 67.7101C174.419 66.7381 172.007 66.9541 169.859 68.0401C166.781 69.5941 164.219 72.8761 162.263 78.3421C162.263 78.3421 160.283 76.9201 159.641 76.5421C158.051 75.6721 156.191 76.0921 154.097 77.4541C151.739 78.9901 150.131 80.9821 148.661 83.9941V84.0481C147.387 86.6056 146.691 89.4117 146.621 92.2681C146.621 98.5861 149.207 101.598 152.573 103.86C153.533 104.508 156.071 105.87 156.323 106.038C158.354 107.379 160.601 108.362 162.965 108.942L166.283 109.716L169.601 105.114C172.017 101.721 174.234 98.191 176.243 94.5421C179.609 88.3921 182.243 82.3681 182.195 76.0741C182.147 73.3801 181.373 71.4001 180.119 70.2001Z" fill="black"/>
<path d="M180.118 70.2001C179.96 70.0628 179.789 69.9402 179.608 69.8341C178.972 69.4561 176.092 67.8001 175.942 67.7101C174.418 66.7381 172.006 66.9541 169.858 68.0401C166.78 69.5941 164.218 72.8761 162.262 78.3421C162.262 78.3421 160.282 76.9201 159.64 76.5421C158.05 75.6721 156.19 76.0921 154.096 77.4541C151.738 78.9901 150.13 80.9821 148.66 83.9941V84.0481C148.594 84.1801 148.54 84.3121 148.48 84.4441L173.68 98.9761C174.574 97.5241 175.444 96.0541 176.272 94.5421C179.638 88.3921 182.272 82.3681 182.224 76.0741C182.146 73.3801 181.372 71.4001 180.118 70.2001Z" fill="#014CC4"/>
<path opacity="0.15" d="M180.118 70.2001C179.96 70.0628 179.789 69.9402 179.608 69.8341C178.972 69.4561 176.092 67.8001 175.942 67.7101C174.418 66.7381 172.006 66.9541 169.858 68.0401C166.78 69.5941 164.218 72.8761 162.262 78.3421C162.262 78.3421 160.282 76.9201 159.64 76.5421C158.05 75.6721 156.19 76.0921 154.096 77.4541C151.738 78.9901 150.13 80.9821 148.66 83.9941V84.0481C148.594 84.1801 148.54 84.3121 148.48 84.4441L173.68 98.9761C174.574 97.5241 175.444 96.0541 176.272 94.5421C179.638 88.3921 182.272 82.3681 182.224 76.0741C182.146 73.3801 181.372 71.4001 180.118 70.2001Z" fill="black"/>
<path d="M162.244 78.3183L165.616 82.7163L171.052 76.2843L164.908 72.7383C163.814 74.4926 162.92 76.3644 162.244 78.3183Z" fill="#014CC4"/>
<path opacity="0.3" d="M162.244 78.3183L165.616 82.7163L171.052 76.2843L164.908 72.7383C163.814 74.4926 162.92 76.3644 162.244 78.3183Z" fill="black"/>
<path d="M180.12 70.2001C178.65 68.8861 175.974 69.0001 173.61 70.2001C170.388 71.8321 167.724 75.3541 165.732 81.3181C163.74 77.6581 161.076 77.5441 157.854 79.6381C155.49 81.1741 153.882 83.1661 152.418 86.1781L152.388 86.2321C151.118 88.7931 150.424 91.6006 150.354 94.4581C150.354 100.776 152.946 103.788 156.306 106.05C158.337 107.391 160.584 108.374 162.948 108.954L166.266 109.728L169.584 105.126C171.999 101.733 174.217 98.203 176.226 94.5541C179.592 88.4041 182.226 82.3801 182.178 76.0861C182.148 73.3801 181.374 71.4001 180.12 70.2001Z" fill="#014CC4"/>
<g opacity="0.07">
<path d="M177.286 69.6002C178.211 69.5579 179.121 69.8497 179.848 70.4222C179.861 70.4481 179.88 70.4707 179.902 70.4882C181.138 71.6162 181.828 73.6202 181.834 76.1162C181.834 82.6862 178.834 89.0642 175.924 94.4282C173.931 98.0653 171.727 101.583 169.324 104.964L166.138 109.398L163.036 108.672C160.708 108.1 158.494 107.134 156.49 105.816C153.49 103.776 150.658 101.016 150.682 94.4882C150.746 91.681 151.42 88.9212 152.656 86.4002V86.3462C154.132 83.3162 155.722 81.4022 157.978 79.9382C159.026 79.161 160.276 78.7027 161.578 78.6182C163.102 78.6182 164.356 79.5602 165.412 81.4982C165.439 81.5501 165.479 81.5935 165.529 81.6232C165.579 81.653 165.636 81.6679 165.694 81.6662H165.724C165.786 81.6605 165.845 81.6371 165.894 81.5988C165.943 81.5605 165.98 81.5089 166 81.4502C167.902 75.7562 170.428 72.1802 173.716 70.5182C174.814 69.9432 176.03 69.629 177.268 69.6002M177.268 69.2822C175.98 69.3088 174.715 69.6333 173.572 70.2302C170.35 71.8622 167.686 75.3842 165.694 81.3482C164.542 79.2242 163.162 78.2942 161.578 78.2942C160.219 78.3836 158.913 78.8604 157.816 79.6682C155.452 81.2042 153.844 83.1962 152.38 86.2082L152.35 86.2622C151.081 88.8233 150.387 91.6308 150.316 94.4882C150.316 100.806 152.908 103.818 156.268 106.08C158.3 107.421 160.546 108.404 162.91 108.984L166.228 109.758L169.546 105.156C171.962 101.763 174.18 98.2331 176.188 94.5842C179.554 88.4342 182.188 82.4102 182.14 76.1162C182.14 73.4102 181.354 71.4002 180.1 70.2482C179.308 69.6031 178.307 69.2721 177.286 69.3182L177.268 69.2822Z" fill="black"/>
</g>
<path d="M179.753 87.21L173.297 90.942L170.897 82.212C170.863 82.08 170.785 81.9635 170.676 81.8817C170.567 81.7999 170.433 81.7577 170.297 81.762C170.156 81.7592 170.019 81.8057 169.91 81.8934C169.8 81.9811 169.725 82.1045 169.697 82.242L165.959 99.318L162.815 90.714C162.808 90.5549 162.739 90.4048 162.622 90.2968C162.505 90.1888 162.35 90.1316 162.191 90.138C162.032 90.1444 161.882 90.2137 161.773 90.3307C161.665 90.4477 161.608 90.6029 161.615 90.762L159.491 98.304L152.387 102.408C152.62 102.748 152.873 103.074 153.143 103.386L160.343 99.24C160.482 99.1593 160.585 99.0283 160.631 98.874L162.305 92.922L165.527 101.718C165.57 101.841 165.651 101.947 165.759 102.019C165.868 102.092 165.997 102.127 166.127 102.12C166.26 102.113 166.387 102.063 166.488 101.976C166.589 101.889 166.658 101.771 166.685 101.64L170.345 84.948L172.277 92.034C172.3 92.1252 172.344 92.2097 172.405 92.2807C172.467 92.3517 172.544 92.4073 172.631 92.4429C172.718 92.4785 172.812 92.4932 172.906 92.4857C173 92.4783 173.09 92.4489 173.171 92.4L178.907 89.094C179.237 88.464 179.501 87.84 179.753 87.21Z" fill="white"/>
<path d="M206.851 247.675C206.606 248.488 206.585 249.353 206.791 250.177C207.031 250.681 208.531 252.337 211.591 252.937C214.651 253.537 218.857 252.937 220.669 252.829C222.481 252.721 228.169 253.429 229.975 253.657C232.819 254.041 235.003 253.417 236.065 252.391C236.237 252.184 236.364 251.944 236.438 251.686C236.511 251.428 236.529 251.157 236.491 250.891C236.485 250.206 236.384 249.526 236.191 248.869L206.851 247.675Z" fill="#263238"/>
<path d="M235.723 245.892C235.777 246.126 235.831 246.366 235.879 246.606C236.156 247.813 236.243 249.056 236.137 250.29C235.771 251.19 234.769 251.688 233.959 251.94C231.817 252.624 230.191 252.54 227.821 252.066C225.437 251.719 223.029 251.57 220.621 251.622C218.755 251.748 216.187 252.108 214.321 251.934C212.734 251.868 211.168 251.548 209.683 250.986C208.441 250.458 207.169 249.786 206.863 248.49C206.497 245.79 207.631 244.602 208.909 243.846C210.187 243.09 212.005 243.15 213.949 243.024C215.707 242.904 216.991 242.904 218.557 242.784C219.911 242.718 221.256 242.532 222.577 242.226C223.777 241.854 224.977 240.348 225.469 240.294C225.469 240.294 233.299 240.234 234.043 240.294C234.907 240.366 235.171 243.042 235.279 243.624C235.363 244.08 235.381 244.572 235.501 245.01C235.579 245.304 235.651 245.598 235.723 245.892Z" fill="#37474F"/>
<path d="M211.597 251.575C211.351 249.631 210.997 245.419 214.597 242.983H215.047C213.43 242.515 211.714 242.515 210.097 242.983C207.235 243.745 205.963 246.061 206.677 248.509C206.689 248.485 207.325 250.855 211.597 251.575Z" fill="#FAFAFA"/>
<path d="M222.043 242.365C220.885 243.391 220.483 245.725 220.483 245.725C220.333 246.601 218.749 246.733 218.899 245.887C219.14 244.724 219.607 243.619 220.273 242.635C220.816 242.348 221.439 242.253 222.043 242.365Z" fill="#FAFAFA"/>
<path d="M218.796 242.766C217.923 243.621 217.352 244.738 217.17 245.946C217.008 246.786 215.688 246.774 215.784 245.946C215.784 245.946 215.934 243.876 217.17 242.91C217.41 242.757 217.683 242.664 217.966 242.639C218.249 242.614 218.534 242.657 218.796 242.766Z" fill="#FAFAFA"/>
<path d="M234.283 234.601C234.283 234.601 234.073 239.635 233.797 241.285C233.629 242.269 232.339 243.301 229.129 243.193C226.873 243.115 225.097 243.301 225.187 241.537L225.385 236.395L234.283 234.601Z" fill="#FFA8A7"/>
<path d="M239.316 222.708C239.202 224.082 239.016 225.324 239.58 226.836C240.384 229.008 242.088 230.004 243.09 230.856C244.145 231.9 245.117 233.024 246 234.216C246.984 235.416 247.242 236.13 248.718 237.438C249.454 238.004 250.324 238.37 251.243 238.499C252.162 238.629 253.099 238.517 253.962 238.176C255.24 237.63 255.684 237.198 255.606 235.236C255.528 233.274 249.276 232.608 249.276 232.608L239.316 222.708Z" fill="#263238"/>
<path d="M254.796 229.393C255.33 229.585 255.462 230.551 255.546 232.471C255.606 233.923 256.248 236.071 254.142 236.965C252.444 237.703 249.732 237.211 248.586 235.843C247.158 234.133 246.186 232.627 244.146 230.545C242.346 228.745 240.546 228.145 239.748 224.515C239.238 222.187 239.64 221.227 241.284 220.561C243.546 219.643 247.092 222.637 248.868 223.111C250.392 223.513 254.262 229.201 254.796 229.393Z" fill="#37474F"/>
<path d="M248.869 223.111L248.569 223.009C247.557 223.046 246.573 223.348 245.714 223.884C244.855 224.42 244.152 225.171 243.673 226.063C243.373 226.693 244.273 227.185 244.873 226.693C246.133 224.293 248.725 223.777 249.763 223.663C249.507 223.417 249.203 223.229 248.869 223.111Z" fill="#FAFAFA"/>
<path d="M250.327 224.202C249.377 224.291 248.464 224.615 247.671 225.143C246.877 225.672 246.227 226.39 245.779 227.232C245.479 227.832 246.409 228.354 246.979 227.832C247.407 227.081 247.994 226.433 248.699 225.932C249.403 225.432 250.209 225.091 251.059 224.934C250.801 224.694 250.561 224.436 250.327 224.202Z" fill="#FAFAFA"/>
<path d="M255.103 225.925L254.797 229.975C254.797 229.975 252.223 231.853 248.533 230.131C248.425 229.909 248.113 226.285 248.113 226.285L255.103 225.925Z" fill="#FFA8A7"/>
<path d="M240.787 227.185C240.787 227.185 240.961 222.883 247.075 222.289L247.429 222.475C246.733 221.396 245.665 220.61 244.429 220.267C242.401 219.745 240.793 220.267 239.725 221.551C238.657 222.835 239.731 226.351 240.787 227.185Z" fill="#FAFAFA"/>
<path d="M256.884 198.948C256.008 191.862 255.684 187.914 255.684 187.914C255.684 187.914 255.51 177.936 256.116 168.714C256.38 164.67 256.518 160.194 256.602 156.114C256.714 151.621 256.356 147.129 255.534 142.71C255.534 142.71 224.16 136.47 223.77 147.978C223.296 161.778 223.356 185.364 222.822 194.37C222.528 199.428 223.038 203.622 223.356 213.45C223.614 221.598 223.536 241.65 223.536 241.65C226.992 246.396 235.152 242.778 235.152 242.778C235.152 242.778 237.672 214.62 238.044 208.8C238.44 202.542 237.78 199.374 237.78 199.374L241.014 170.22C241.014 170.22 241.26 179.574 241.536 184.62C241.812 189.666 242.55 192.768 243.864 202.182C245.004 210.354 247.428 231.21 247.428 231.21C251.628 233.694 255.684 231.21 255.684 231.21C255.684 231.21 257.76 206.034 256.884 198.948Z" fill="#455A64"/>
<path d="M252.602 158.683C252.602 158.683 248.672 163.699 243.602 165.853C243.602 165.853 241.406 183.487 241.424 183.139L240.854 165.391C240.854 165.391 248.402 162.055 252.602 158.683Z" fill="#37474F"/>
<path d="M252.492 102.001C255.87 101.245 259.692 103.657 262.236 109.039C264.696 114.187 271.416 127.189 271.578 130.831C271.752 134.605 254.964 146.053 255.378 145.831C255.51 145.765 252.48 137.173 252.48 137.173L260.634 130.423L256.2 121.291L252.492 102.001Z" fill="#FFA8A7"/>
<path d="M250.717 101.19C253.561 100.842 258.715 101.916 260.683 105.336C263.539 110.286 266.143 116.01 269.461 123.408C269.461 123.408 267.001 128.736 259.921 129.24L255.679 121.8L250.717 101.19Z" fill="#FF9433"/>
<path d="M236.4 96.7326L236.892 107.233L247.296 106.675L246.978 94.4766L236.4 96.7326Z" fill="#FFA8A7"/>
<path d="M257.514 106.477C256.638 103.615 253.614 101.257 249.792 101.143C248.94 101.143 247.152 101.143 247.152 101.143C246.72 102.913 241.302 103.543 236.67 102.481C235.272 102.853 229.47 104.281 228.27 104.641C224.94 105.745 223.914 109.141 223.398 120.001C223.398 120.001 223.5 141.409 223.398 151.627C229.254 154.717 238.302 154.333 244.74 153.679C254.856 152.659 256.362 148.993 256.362 148.993C255.936 143.035 256.194 140.791 256.362 134.911C256.488 130.489 257.76 125.815 258.162 120.805C258.756 113.359 258.108 108.445 257.514 106.477Z" fill="#FF9433"/>
<path d="M234.776 98.725C232.376 98.557 229.376 100.471 228.602 104.569L230.558 104.047L234.776 98.725Z" fill="#FF9433"/>
<path opacity="0.3" d="M234.776 98.725C232.376 98.557 229.376 100.471 228.602 104.569L230.558 104.047L234.776 98.725Z" fill="black"/>
<path d="M236.534 99.6009C238.334 100.201 243.584 100.117 245.342 99.6009C247.1 99.0849 247.082 98.3049 247.082 98.3049V97.4229C248.096 97.42 249.086 97.7278 249.92 98.3049C251.042 99.2169 252.974 102.505 252.92 104.083C252.866 105.661 249.494 109.825 242.99 109.723C236.486 109.621 232.832 107.215 231.71 105.631L230.582 104.041C230.582 104.041 232.124 100.873 233.642 99.5409C234.42 98.7864 235.418 98.299 236.492 98.1489L236.534 99.6009Z" fill="#FF9433"/>
<path opacity="0.2" d="M236.534 99.6009C238.334 100.201 243.584 100.117 245.342 99.6009C247.1 99.0849 247.082 98.3049 247.082 98.3049V97.4229C248.096 97.42 249.086 97.7278 249.92 98.3049C251.042 99.2169 252.974 102.505 252.92 104.083C252.866 105.661 249.494 109.825 242.99 109.723C236.486 109.621 232.832 107.215 231.71 105.631L230.582 104.041C230.582 104.041 232.124 100.873 233.642 99.5409C234.42 98.7864 235.418 98.299 236.492 98.1489L236.534 99.6009Z" fill="black"/>
<path d="M229.398 83.8564C229.398 83.8564 226.92 87.6184 227.202 87.9844C227.484 88.3504 229.308 88.6925 229.308 88.6925L229.398 83.8564Z" fill="#F28F8F"/>
<path d="M236.286 73.44C231.27 74.502 229.266 75.972 228.954 84.546C228.654 92.886 229.704 95.634 230.796 96.756C231.534 97.512 235.644 97.65 237.714 97.074C240.306 96.36 246.168 94.284 248.91 90.096C252.138 85.164 252.984 78.48 249.51 75.738C244.668 71.88 238.332 73.008 236.286 73.44Z" fill="#FFA8A7"/>
<path d="M230.797 96.7503C231.397 97.3503 234.271 97.5783 236.431 97.3143L236.401 96.0723C234.611 96.7325 232.692 96.9647 230.797 96.7503Z" fill="#F28F8F"/>
<path d="M228.288 76.6624C229.538 77.5583 231.088 77.9307 232.608 77.7004C232.578 78.3726 232.758 79.0375 233.124 79.6024C233.633 80.3726 234.405 80.9314 235.296 81.1744C234.747 82.2508 234.455 83.44 234.444 84.6484C234.41 85.0277 234.492 85.4083 234.678 85.7404C234.736 85.8611 234.826 85.963 234.939 86.0343C235.052 86.1057 235.183 86.1435 235.317 86.1435C235.451 86.1435 235.582 86.1057 235.695 86.0343C235.808 85.963 235.899 85.8611 235.956 85.7404C236.238 85.1021 236.593 84.4982 237.012 83.9404C237.556 83.2896 238.321 82.8623 239.16 82.7404C242.31 82.3984 242.706 86.5204 241.446 88.2304C239.382 91.0264 237.63 89.1304 237.63 89.1304C237.55 90.4411 237.749 91.7539 238.214 92.9817C238.68 94.2096 239.401 95.3244 240.33 96.2524C242.569 96.9122 244.942 96.9722 247.212 96.4264C250.008 92.5804 251.766 90.7084 253.26 87.3904C256.416 80.3644 254.892 75.9544 252.45 74.0944C251.97 70.8604 249.42 69.4084 246.51 68.7424C242.166 67.7404 238.11 70.3204 233.802 69.3424C233.095 69.1944 232.396 69.0102 231.708 68.7904C231.443 68.6661 231.141 68.6468 230.862 68.7364C230.708 68.839 230.587 68.9846 230.514 69.1552C230.442 69.3259 230.421 69.514 230.454 69.6964C230.508 70.5244 231.348 71.4424 231.774 71.8864C230.833 71.9725 229.885 71.9179 228.96 71.7244C228.639 71.6642 228.309 71.6642 227.988 71.7244C227.636 71.868 227.338 72.1195 227.137 72.4429C226.937 72.7663 226.844 73.1449 226.872 73.5244C226.876 74.1174 227.004 74.703 227.247 75.2435C227.491 75.784 227.846 76.2674 228.288 76.6624Z" fill="#263238"/>
<path d="M252.529 75.1385L255.529 73.3385C255.29 72.9407 254.903 72.654 254.453 72.5415C254.003 72.429 253.526 72.4999 253.129 72.7386C252.731 72.9772 252.444 73.3642 252.332 73.8143C252.219 74.2644 252.29 74.7407 252.529 75.1385Z" fill="#263238"/>
<path d="M213.433 122.401C212.753 119.729 212.097 117.053 211.465 114.373C210.865 111.907 209.941 109.051 210.787 106.531C211.268 105.43 211.872 104.387 212.587 103.423C213.206 102.406 213.728 101.333 214.147 100.219C214.357 99.6786 214.549 99.1266 214.747 98.5806C214.945 98.0346 215.227 97.7226 215.095 97.2006C214.657 95.4906 212.449 97.7346 211.999 98.4366C211.799 98.8051 211.566 99.1545 211.303 99.4806C211.015 99.7866 210.313 100.171 209.977 99.7206C209.865 99.54 209.803 99.333 209.797 99.1206C209.569 96.4866 210.517 94.1286 211.303 91.6686C211.427 91.3456 211.502 91.0058 211.525 90.6606C211.539 90.4882 211.516 90.3148 211.457 90.1522C211.398 89.9896 211.304 89.8417 211.183 89.7186C210.987 89.5685 210.756 89.4728 210.511 89.4412C210.267 89.4096 210.018 89.4432 209.791 89.5386C209.347 89.6886 208.963 89.9706 208.519 90.1086C208.075 90.2466 207.745 90.2466 207.355 90.3486C206.43 90.5548 205.539 90.8922 204.709 91.3506C203.269 92.1966 202.633 93.4326 202.255 95.0046C201.801 96.9355 201.647 98.9248 201.799 100.903C201.901 102.217 202.135 103.513 202.297 104.809L202.837 109.147C203.203 112.039 203.311 126.487 203.809 129.361C204.307 132.235 205.267 134.161 207.541 135.115C210.841 136.459 216.175 130.387 219.205 127.243L213.433 122.401Z" fill="#FFA8A7"/>
<path d="M212.227 120.762C210.103 122.352 207.457 124.998 206.923 127.65C206.923 127.65 206.395 122.88 212.227 118.65V120.762Z" fill="#F28F8F"/>
<path d="M228.103 104.706C226.063 104.898 222.703 104.97 219.283 108.648C215.317 112.944 209.203 121.416 209.203 121.416C209.203 121.416 210.001 128.16 216.493 130.578C216.493 130.578 225.931 121.578 227.959 117.702C229.987 113.826 230.443 107.4 228.103 104.706Z" fill="#FF9433"/>
<path d="M225.386 90.4503L222.806 89.0643L224.288 87.7983L218.93 85.2903L221.27 83.9343L215.498 80.8623L218.93 83.8923L216.14 85.2903L222.434 88.0143L220.88 89.5683L225.386 90.4503Z" fill="#01BDF3"/>
<path d="M226.699 87.0485L225.019 85.4405L225.937 84.7625L224.461 83.0105L225.877 82.5305L225.385 80.3105L226.381 82.7045L225.385 83.1365L226.981 84.8885L225.901 85.6565L226.699 87.0485Z" fill="#01BDF3"/>
<path d="M225.722 92.9889L222.554 95.4609L221.384 93.7389L218.612 95.2449L217.477 93.1149L213.188 94.2129L218.149 91.8369L219.572 93.7989L221.876 92.5629L222.836 94.2129L225.722 92.9889Z" fill="#01BDF3"/>
<path d="M203.694 137.227C203.791 137.146 203.915 137.108 204.04 137.119C204.164 137.13 204.28 137.191 204.36 137.287C204.974 137.976 205.771 138.476 206.658 138.729C207.545 138.981 208.486 138.977 209.37 138.715C209.431 138.693 209.495 138.684 209.558 138.689C209.622 138.693 209.685 138.71 209.742 138.739C209.799 138.767 209.849 138.808 209.891 138.856C209.932 138.905 209.963 138.962 209.981 139.023C210 139.085 210.006 139.149 209.999 139.213C209.992 139.276 209.973 139.338 209.941 139.394C209.91 139.449 209.868 139.498 209.817 139.537C209.766 139.576 209.708 139.605 209.646 139.621C208.585 139.935 207.457 139.939 206.394 139.632C205.331 139.326 204.377 138.723 203.646 137.893C203.605 137.846 203.574 137.792 203.554 137.733C203.534 137.674 203.526 137.611 203.531 137.549C203.535 137.487 203.552 137.427 203.58 137.372C203.608 137.316 203.647 137.267 203.694 137.227Z" fill="#E0E0E0"/>
<path d="M204.174 140.401C204.259 140.33 204.365 140.292 204.474 140.292C204.584 140.292 204.69 140.33 204.774 140.401C205.263 140.754 205.823 140.996 206.414 141.11C207.006 141.224 207.616 141.207 208.2 141.061C208.324 141.038 208.452 141.065 208.557 141.135C208.661 141.206 208.734 141.315 208.758 141.439C208.771 141.499 208.771 141.562 208.758 141.623C208.746 141.683 208.722 141.741 208.688 141.792C208.653 141.844 208.609 141.888 208.557 141.922C208.505 141.956 208.447 141.979 208.386 141.991C207.664 142.159 206.913 142.166 206.187 142.011C205.461 141.857 204.778 141.544 204.186 141.097C204.139 141.057 204.1 141.007 204.072 140.952C204.044 140.896 204.027 140.836 204.023 140.774C204.018 140.712 204.026 140.65 204.046 140.591C204.066 140.532 204.097 140.477 204.138 140.431C204.149 140.419 204.161 140.409 204.174 140.401Z" fill="#E0E0E0"/>
<path d="M263.088 104.034C263.033 104.063 262.972 104.081 262.91 104.086C262.848 104.091 262.785 104.083 262.726 104.063C262.666 104.044 262.612 104.013 262.565 103.972C262.518 103.931 262.479 103.881 262.452 103.824C262.014 103.013 261.355 102.341 260.551 101.889C259.747 101.437 258.831 101.221 257.91 101.268C257.848 101.272 257.785 101.263 257.727 101.243C257.668 101.222 257.613 101.19 257.567 101.149C257.473 101.065 257.416 100.947 257.409 100.821C257.402 100.696 257.445 100.572 257.529 100.478C257.613 100.384 257.73 100.328 257.856 100.32C258.962 100.263 260.061 100.521 261.025 101.067C261.989 101.612 262.778 102.421 263.298 103.398C263.353 103.511 263.361 103.64 263.322 103.759C263.283 103.878 263.199 103.977 263.088 104.034Z" fill="#E0E0E0"/>
<path d="M263.352 100.855C263.252 100.908 263.136 100.922 263.025 100.896C262.915 100.869 262.818 100.804 262.752 100.711C262.365 100.258 261.885 99.8945 261.344 99.6439C260.804 99.3934 260.216 99.2621 259.62 99.2589C259.558 99.2565 259.497 99.2419 259.44 99.2159C259.384 99.1899 259.333 99.153 259.291 99.1073C259.248 99.0616 259.215 99.0081 259.194 98.9496C259.172 98.8912 259.162 98.8291 259.164 98.7669C259.167 98.7046 259.181 98.6435 259.207 98.5869C259.233 98.5303 259.27 98.4793 259.316 98.437C259.362 98.3946 259.415 98.3617 259.474 98.3401C259.532 98.3184 259.594 98.3085 259.656 98.3109C260.396 98.3183 261.126 98.4876 261.793 98.8068C262.461 99.1261 263.05 99.5875 263.52 100.159C263.588 100.26 263.613 100.384 263.591 100.504C263.568 100.624 263.5 100.731 263.4 100.801L263.352 100.855Z" fill="#E0E0E0"/>
<path d="M271.742 135.438C271.682 135.328 271.667 135.199 271.702 135.079C271.737 134.958 271.818 134.857 271.928 134.796C272.718 134.321 273.357 133.631 273.77 132.807C274.183 131.982 274.354 131.057 274.262 130.14C274.254 130.078 274.259 130.015 274.276 129.955C274.294 129.895 274.323 129.839 274.362 129.79C274.401 129.742 274.449 129.701 274.504 129.672C274.559 129.642 274.62 129.624 274.682 129.618C274.807 129.605 274.932 129.641 275.03 129.72C275.128 129.799 275.19 129.913 275.204 130.038C275.311 131.135 275.104 132.24 274.608 133.225C274.112 134.209 273.347 135.033 272.402 135.6C272.348 135.634 272.288 135.656 272.226 135.666C272.163 135.676 272.099 135.673 272.038 135.658C271.976 135.643 271.918 135.616 271.867 135.578C271.817 135.54 271.774 135.493 271.742 135.438Z" fill="#E0E0E0"/>
<path d="M274.926 135.552C274.873 135.455 274.855 135.341 274.876 135.232C274.896 135.122 274.955 135.024 275.04 134.952C275.476 134.545 275.818 134.048 276.042 133.496C276.267 132.944 276.369 132.35 276.342 131.754C276.342 131.629 276.392 131.508 276.481 131.419C276.57 131.33 276.691 131.28 276.816 131.28C276.942 131.28 277.063 131.33 277.152 131.419C277.24 131.508 277.29 131.629 277.29 131.754C277.316 132.493 277.181 133.228 276.896 133.91C276.61 134.592 276.179 135.203 275.634 135.702C275.586 135.741 275.53 135.77 275.47 135.787C275.41 135.803 275.347 135.809 275.285 135.801C275.223 135.794 275.164 135.775 275.109 135.744C275.055 135.714 275.007 135.673 274.968 135.624L274.926 135.552Z" fill="#E0E0E0"/>
<path d="M219.732 192.6C219.844 192.657 219.929 192.755 219.97 192.874C220.01 192.993 220.002 193.123 219.948 193.236C219.568 194.076 219.435 195.007 219.565 195.919C219.694 196.832 220.081 197.689 220.68 198.39C220.761 198.487 220.801 198.611 220.791 198.737C220.781 198.863 220.722 198.98 220.626 199.062C220.531 199.143 220.408 199.184 220.283 199.175C220.158 199.166 220.042 199.108 219.96 199.014C219.241 198.17 218.777 197.139 218.624 196.041C218.471 194.943 218.635 193.824 219.096 192.816C219.153 192.704 219.251 192.619 219.37 192.578C219.489 192.538 219.619 192.546 219.732 192.6Z" fill="#E0E0E0"/>
<path d="M217.044 194.31C217.147 194.358 217.228 194.442 217.275 194.545C217.321 194.649 217.328 194.766 217.296 194.874C217.17 195.457 217.172 196.06 217.301 196.642C217.431 197.224 217.685 197.772 218.046 198.246C218.117 198.349 218.145 198.476 218.123 198.599C218.102 198.723 218.033 198.833 217.932 198.906C217.829 198.978 217.702 199.007 217.579 198.986C217.455 198.964 217.345 198.895 217.272 198.792C216.827 198.199 216.517 197.516 216.364 196.79C216.211 196.065 216.218 195.315 216.384 194.592C216.403 194.532 216.433 194.476 216.473 194.428C216.513 194.379 216.563 194.339 216.619 194.31C216.675 194.281 216.736 194.264 216.798 194.258C216.861 194.253 216.924 194.261 216.984 194.28L217.044 194.31Z" fill="#E0E0E0"/>
<path d="M184.47 27.8701C184.441 27.3106 184.279 26.7661 183.999 26.2811C183.718 25.7961 183.327 25.3846 182.856 25.0801L181.548 24.3181C181.048 24.0678 180.497 23.9375 179.937 23.9375C179.378 23.9375 178.826 24.0678 178.326 24.3181L147.936 41.8801C147.467 42.1853 147.076 42.597 146.795 43.0818C146.515 43.5666 146.353 44.1108 146.322 44.6701V60.3841C146.353 60.9432 146.515 61.4872 146.796 61.972C147.076 62.4567 147.467 62.8685 147.936 63.1741L149.25 63.9301C149.749 64.1845 150.301 64.3172 150.861 64.3172C151.421 64.3172 151.973 64.1845 152.472 63.9301L182.856 46.3741C183.327 46.0696 183.718 45.658 183.999 45.1731C184.279 44.6881 184.441 44.1436 184.47 43.5841V27.8701Z" fill="#01BDF3"/>
<path opacity="0.5" d="M184.47 27.8701C184.441 27.3106 184.279 26.7661 183.999 26.2811C183.718 25.7961 183.327 25.3846 182.856 25.0801L181.548 24.3181C181.048 24.0678 180.497 23.9375 179.937 23.9375C179.378 23.9375 178.826 24.0678 178.326 24.3181L147.936 41.8801C147.467 42.1853 147.076 42.597 146.795 43.0818C146.515 43.5666 146.353 44.1108 146.322 44.6701V60.3841C146.353 60.9432 146.515 61.4872 146.796 61.972C147.076 62.4567 147.467 62.8685 147.936 63.1741L149.25 63.9301C149.749 64.1845 150.301 64.3172 150.861 64.3172C151.421 64.3172 151.973 64.1845 152.472 63.9301L182.856 46.3741C183.327 46.0696 183.718 45.658 183.999 45.1731C184.279 44.6881 184.441 44.1436 184.47 43.5841V27.8701Z" fill="white"/>
<path opacity="0.2" d="M146.322 60.3841C146.353 60.9432 146.515 61.4872 146.796 61.972C147.076 62.4567 147.467 62.8685 147.936 63.1741L149.25 63.9301C149.704 64.1588 150.201 64.2888 150.709 64.3116C151.217 64.3343 151.724 64.2493 152.196 64.0621C151.434 64.3501 150.858 63.9241 150.858 63.0001V47.2861C150.878 46.7243 151.041 46.1768 151.332 45.6961L146.796 43.0801C146.504 43.5605 146.341 44.1081 146.322 44.6701V60.3841Z" fill="black"/>
<path opacity="0.3" d="M184.415 27.4136C184.229 26.7296 183.605 26.5076 182.861 26.9396L152.471 44.4956C151.992 44.7891 151.599 45.2028 151.331 45.6956L146.801 43.0796C147.069 42.5884 147.459 42.175 147.935 41.8796L178.319 24.3236C178.818 24.0692 179.37 23.9365 179.93 23.9365C180.49 23.9365 181.042 24.0692 181.541 24.3236L182.861 25.0796C183.264 25.3434 183.61 25.6862 183.877 26.0874C184.144 26.4885 184.327 26.9397 184.415 27.4136Z" fill="white"/>
<path d="M150.864 52.368L146.334 49.752L140.874 55.008C140.791 55.0906 140.729 55.1909 140.692 55.3012C140.654 55.4115 140.642 55.5289 140.656 55.6445C140.671 55.7601 140.711 55.8709 140.775 55.9686C140.839 56.0662 140.924 56.148 141.024 56.208L145.482 58.8C145.666 58.8965 145.874 58.9402 146.082 58.926L150.882 58.008V52.368H150.864Z" fill="#01BDF3"/>
<path opacity="0.5" d="M150.864 52.368L146.334 49.752L140.874 55.008C140.791 55.0906 140.729 55.1909 140.692 55.3012C140.654 55.4115 140.642 55.5289 140.656 55.6445C140.671 55.7601 140.711 55.8709 140.775 55.9686C140.839 56.0662 140.924 56.148 141.024 56.208L145.482 58.8C145.666 58.8965 145.874 58.9402 146.082 58.926L150.882 58.008V52.368H150.864Z" fill="white"/>
<path opacity="0.3" d="M145.482 58.7991L143.082 57.4251L142.8 57.2391L141.516 56.4951L141.36 56.3991L141.018 56.2011C140.918 56.1412 140.833 56.0593 140.769 55.9617C140.705 55.8641 140.665 55.7533 140.65 55.6376C140.636 55.522 140.648 55.4046 140.686 55.2943C140.723 55.1841 140.786 55.0838 140.868 55.0011L146.328 49.7451L150.864 52.3671L145.404 57.5991C145.317 57.6761 145.249 57.772 145.205 57.8792C145.161 57.9865 145.142 58.1024 145.149 58.2182C145.157 58.3339 145.191 58.4464 145.248 58.5471C145.306 58.6478 145.386 58.734 145.482 58.7991Z" fill="white"/>
<path d="M159.738 47.5376C159.111 47.9453 158.589 48.4953 158.215 49.1428C157.841 49.7902 157.625 50.5168 157.584 51.2636C157.584 52.6316 158.55 53.1896 159.738 52.5056C160.364 52.0975 160.885 51.5473 161.258 50.8999C161.632 50.2524 161.847 49.5259 161.886 48.7796C161.886 47.3996 160.926 46.8536 159.738 47.5376Z" fill="white"/>
<path d="M167.664 42.9532C167.038 43.3613 166.517 43.9114 166.143 44.5589C165.77 45.2064 165.555 45.9329 165.516 46.6792C165.516 48.0472 166.476 48.6052 167.664 47.9152C168.289 47.5077 168.809 46.9585 169.183 46.3121C169.556 45.6658 169.771 44.9405 169.812 44.1952C169.8 42.8212 168.852 42.2632 167.664 42.9532Z" fill="white"/>
<path d="M175.589 38.3637C174.964 38.7728 174.444 39.3233 174.071 39.9705C173.698 40.6178 173.482 41.3437 173.441 42.0897C173.441 43.4637 174.401 44.0157 175.589 43.3317C176.217 42.9233 176.739 42.3724 177.114 41.7239C177.488 41.0753 177.704 40.3475 177.743 39.5997C177.743 38.2377 176.777 37.6797 175.589 38.3637Z" fill="white"/>
<path d="M242.964 58.6737L240.786 54.5997L242.538 49.5417V46.4277L237.174 49.5237V52.6197L239.478 56.6157C239.516 56.6754 239.57 56.7233 239.634 56.7537L242.964 58.6737Z" fill="#01BDF3"/>
<path opacity="0.2" d="M242.964 58.6737L240.786 54.5997L242.538 49.5417V46.4277L237.174 49.5237V52.6197L239.478 56.6157C239.516 56.6754 239.57 56.7233 239.634 56.7537L242.964 58.6737Z" fill="black"/>
<path d="M259.253 26.2678C259.224 25.7099 259.062 25.1669 258.783 24.6831C258.504 24.1993 258.114 23.7884 257.645 23.4838L256.337 22.7278C255.839 22.4735 255.288 22.3408 254.729 22.3408C254.17 22.3408 253.619 22.4735 253.121 22.7278L222.803 40.2418C222.337 40.5501 221.949 40.9628 221.67 41.447C221.391 41.9313 221.228 42.4739 221.195 43.0318V58.7098C221.225 59.2678 221.386 59.8107 221.666 60.2945C221.945 60.7784 222.335 61.1893 222.803 61.4938L224.111 62.2498C224.611 62.4991 225.161 62.6289 225.719 62.6289C226.277 62.6289 226.828 62.4991 227.327 62.2498L240.527 54.5698L242.831 58.5538C242.864 58.6071 242.912 58.6501 242.968 58.6778C243.025 58.7055 243.088 58.7168 243.15 58.7106C243.212 58.7044 243.272 58.6807 243.322 58.6424C243.371 58.6041 243.409 58.5526 243.431 58.4938L245.867 51.4798L257.615 44.7298C258.084 44.4253 258.474 44.0144 258.753 43.5305C259.032 43.0467 259.194 42.5038 259.223 41.9458L259.253 26.2678Z" fill="#01BDF3"/>
<path d="M230.278 46.0674L254.518 32.0694C255.238 31.6554 255.82 31.9494 255.82 32.7294C255.788 33.1654 255.653 33.5877 255.427 33.9619C255.201 34.3361 254.889 34.6518 254.518 34.8834L230.278 48.8814C229.564 49.2954 228.982 49.0014 228.982 48.2214C229.015 47.786 229.149 47.3642 229.374 46.9901C229.599 46.616 229.909 46.3 230.278 46.0674Z" fill="white"/>
<path d="M230.278 52.3018L254.518 38.3098C255.238 37.8958 255.82 38.1898 255.82 38.9638C255.789 39.4009 255.654 39.8243 255.428 40.1997C255.202 40.575 254.89 40.8916 254.518 41.1238L230.278 55.1158C229.564 55.5358 228.982 55.2358 228.982 54.4618C229.014 54.0253 229.148 53.6024 229.373 53.2272C229.598 52.852 229.908 52.535 230.278 52.3018Z" fill="white"/>
<path opacity="0.2" d="M221.195 58.7094C221.225 59.2673 221.386 59.8103 221.666 60.2941C221.945 60.7779 222.335 61.1888 222.803 61.4934L224.111 62.2494C224.564 62.4773 225.061 62.6068 225.567 62.6296C226.074 62.6523 226.58 62.5677 227.051 62.3814C226.295 62.6634 225.719 62.2374 225.719 61.3194V45.6414C225.739 45.0823 225.9 44.5372 226.187 44.0574L221.663 41.4414C221.376 41.9234 221.215 42.4704 221.195 43.0314V58.7094Z" fill="black"/>
<path opacity="0.2" d="M259.2 25.7995C259.014 25.1155 258.39 24.8995 257.646 25.3255L227.328 42.8455C226.851 43.1385 226.459 43.5525 226.194 44.0455L221.67 41.4355C221.939 40.9451 222.329 40.532 222.804 40.2355L253.116 22.7155C253.616 22.4653 254.168 22.335 254.727 22.335C255.286 22.335 255.838 22.4653 256.338 22.7155L257.646 23.4715C258.05 23.7333 258.396 24.0748 258.663 24.4751C258.93 24.8754 259.113 25.3261 259.2 25.7995Z" fill="white"/>
</svg>
