<svg width="57" height="57" viewBox="0 0 57 57" fill="none" xmlns="http://www.w3.org/2000/svg">
<path d="M14.1421 14.1421C6.34982 21.9345 6.34982 34.6341 14.1421 42.4264C21.9345 50.2187 34.6341 50.2187 42.4264 42.4264C50.2187 34.6341 50.2187 21.9345 42.4264 14.1421C34.6341 6.34982 21.9345 6.34982 14.1421 14.1421ZM36.2887 26.7852C37.109 26.7852 37.7878 27.464 37.7878 28.2843C37.7878 28.7085 37.6181 29.0762 37.3494 29.3449C37.0807 29.6136 36.713 29.7833 36.2887 29.7833L29.7833 29.7833L29.7833 36.2887C29.7833 36.713 29.6136 37.0807 29.3449 37.3494C29.0762 37.6181 28.7085 37.7878 28.2843 37.7878C27.464 37.7878 26.7852 37.109 26.7852 36.2887L26.7852 29.7833L20.2798 29.7833C19.4596 29.7833 18.7808 29.1045 18.7808 28.2843C18.7808 27.464 19.4596 26.7852 20.2798 26.7852L26.7852 26.7852L26.7852 20.2798C26.7852 19.4596 27.464 18.7808 28.2843 18.7808C29.1045 18.7808 29.7833 19.4596 29.7833 20.2798L29.7833 26.7852L36.2887 26.7852Z" fill="#014CC4"/>
</svg>
