<svg width="25" height="25" viewBox="0 0 25 25" fill="none" xmlns="http://www.w3.org/2000/svg">
<path d="M1.53942 18.2446C0.153528 19.6808 0.153528 21.9869 1.53942 23.423C2.9253 24.8591 5.15072 24.8591 6.53661 23.423" stroke="#014CC4" stroke-miterlimit="10" stroke-linecap="round" stroke-linejoin="round"/>
<path d="M1.53906 18.2446L16.6239 2.61278C16.1442 2.11566 16.1975 1.36997 16.6772 0.872849C16.9171 0.624287 17.2369 0.5 17.5434 0.5C17.8632 0.5 18.1697 0.624287 18.4096 0.872849L23.2868 5.92693C23.7666 6.42406 23.7666 7.22498 23.2868 7.72211C23.047 7.97067 22.7272 8.09494 22.4207 8.09494C22.1142 8.09494 21.8477 8.02591 21.6078 7.77734L6.52292 23.4091" stroke="#014CC4" stroke-miterlimit="10" stroke-linecap="round" stroke-linejoin="round"/>
<path d="M9.62891 9.87598H19.61" stroke="#014CC4" stroke-miterlimit="10" stroke-linecap="round" stroke-linejoin="round"/>
<path d="M22.4211 20.9373C23.5671 20.9373 24.4999 19.9706 24.4999 18.7831C24.4999 18.3688 24.3933 18.0374 24.2867 17.6783L24.4067 18.1202C24.3667 17.9545 24.3134 17.7888 24.2601 17.5817C24.2601 17.5817 22.7543 13.5356 22.3545 13.5356C21.9414 13.5356 20.5289 17.6645 20.5289 17.6645C20.4222 18.0374 20.3556 18.3688 20.3556 18.7831C20.3423 19.9706 21.2751 20.9373 22.4211 20.9373ZM22.4211 20.9373C22.8342 20.9373 23.234 20.7992 23.5671 20.5782" stroke="#014CC4" stroke-miterlimit="10" stroke-linecap="round" stroke-linejoin="round"/>
</svg>
