<svg width="10" height="18" viewBox="0 0 10 18" fill="none" xmlns="http://www.w3.org/2000/svg">
<path d="M1.00602 1.71661e-05C1.1376 -0.000743866 1.26803 0.0244751 1.38984 0.0742283C1.51165 0.123981 1.62244 0.19729 1.71586 0.289951L9.71403 8.28813C9.80774 8.38107 9.88212 8.49164 9.93288 8.61347C9.98363 8.73531 10.0098 8.86598 10.0098 8.99796C10.0098 9.12994 9.98363 9.26062 9.93288 9.38245C9.88212 9.50428 9.80774 9.61486 9.71403 9.7078L1.71586 17.706C1.5276 17.8942 1.27226 18 1.00602 18C0.739781 18 0.484446 17.8942 0.296185 17.706C0.107924 17.5177 0.00216007 17.2624 0.00216007 16.9961C0.00216007 16.7299 0.107924 16.4746 0.296185 16.2863L7.59452 8.99796L0.296185 1.70963C0.202478 1.61668 0.128099 1.50611 0.077342 1.38428C0.0265846 1.26245 0.000452995 1.13177 0.000452995 0.999788C0.000452995 0.867807 0.0265846 0.737131 0.077342 0.615299C0.128099 0.493467 0.202478 0.382893 0.296185 0.289951C0.389604 0.19729 0.500393 0.123981 0.622202 0.0742283C0.744012 0.0244751 0.874446 -0.000743866 1.00602 1.71661e-05Z" fill="black"/>
</svg>
