<svg width="40" height="40" viewBox="0 0 40 40" fill="none" xmlns="http://www.w3.org/2000/svg">
<path d="M18.366 34.5H12.4993C11.466 34.5 10.5493 34.4667 9.73268 34.35C5.34935 33.8667 4.16602 31.8 4.16602 26.1667V17.8333C4.16602 12.2 5.34935 10.1333 9.73268 9.65C10.5493 9.53333 11.466 9.5 12.4993 9.5H18.266" stroke="#014CC4" stroke-width="1.5" stroke-linecap="round" stroke-linejoin="round"/>
<path d="M25.0332 9.5H27.4999C28.5332 9.5 29.4499 9.53333 30.2665 9.65C34.6499 10.1333 35.8332 12.2 35.8332 17.8333V26.1667C35.8332 31.8 34.6499 33.8667 30.2665 34.35C29.4499 34.4667 28.5332 34.5 27.4999 34.5H25.0332" stroke="#014CC4" stroke-width="1.5" stroke-linecap="round" stroke-linejoin="round"/>
<path d="M25 5.33301V38.6663" stroke="#014CC4" stroke-width="1.5" stroke-linecap="round" stroke-linejoin="round"/>
<path d="M18.4902 22.0003H18.5052" stroke="#014CC4" stroke-width="2" stroke-linecap="round" stroke-linejoin="round"/>
<path d="M11.8242 22.0003H11.8391" stroke="#014CC4" stroke-width="2" stroke-linecap="round" stroke-linejoin="round"/>
</svg>
