<svg width="24" height="24" viewBox="0 0 24 24" fill="none" xmlns="http://www.w3.org/2000/svg">
<path d="M12 7V14M12 14L9 11M12 14L15 11" stroke="white" stroke-width="1.5" stroke-linecap="round" stroke-linejoin="round"/>
<path d="M8 17H12H16" stroke="white" stroke-width="1.5" stroke-linecap="round"/>
<path d="M2 12C2 7.286 2 4.9289 3.4645 3.4645C4.9289 2 7.286 2 12 2C16.714 2 19.0711 2 20.5355 3.4645C22 4.9289 22 7.286 22 12C22 16.714 22 19.0711 20.5355 20.5355C19.0711 22 16.714 22 12 22C7.286 22 4.9289 22 3.4645 20.5355C2.4907 19.5618 2.1644 18.1934 2.0551 16" stroke="white" stroke-width="1.5" stroke-linecap="round"/>
</svg>
