<svg width="300" height="300" viewBox="0 0 300 300" fill="none" xmlns="http://www.w3.org/2000/svg">
<path d="M213.834 78.5165C213.834 78.5165 189.678 52.0505 151.434 53.3165C113.19 54.5825 80.5676 80.2265 53.5976 100.29C26.6276 120.354 19.3976 151.518 35.0756 175.848C50.7536 200.178 75.7376 189.936 107.544 205.728C139.35 221.52 145.392 230.49 180.822 226.65C216.252 222.81 243.222 183.534 239.202 141.696C235.182 99.8585 213.834 78.5165 213.834 78.5165Z" fill="#014CC4"/>
<path opacity="0.7" d="M213.834 78.5165C213.834 78.5165 189.678 52.0505 151.434 53.3165C113.19 54.5825 80.5676 80.2265 53.5976 100.29C26.6276 120.354 19.3976 151.518 35.0756 175.848C50.7536 200.178 75.7376 189.936 107.544 205.728C139.35 221.52 145.392 230.49 180.822 226.65C216.252 222.81 243.222 183.534 239.202 141.696C235.182 99.8585 213.834 78.5165 213.834 78.5165Z" fill="white"/>
<path d="M154.573 241.962C220.357 241.962 273.685 239.053 273.685 235.464C273.685 231.875 220.357 228.966 154.573 228.966C88.7892 228.966 35.4609 231.875 35.4609 235.464C35.4609 239.053 88.7892 241.962 154.573 241.962Z" fill="#014CC4"/>
<path opacity="0.3" d="M154.573 241.962C220.357 241.962 273.685 239.053 273.685 235.464C273.685 231.875 220.357 228.966 154.573 228.966C88.7892 228.966 35.4609 231.875 35.4609 235.464C35.4609 239.053 88.7892 241.962 154.573 241.962Z" fill="white"/>
<path d="M224.963 137.52C224.927 137.52 225.377 135.282 225.425 135.12C225.941 133.524 227.885 130.74 229.763 130.746C230.075 130.755 230.382 130.83 230.664 130.965C230.945 131.1 231.195 131.293 231.397 131.532C231.599 131.77 231.749 132.048 231.836 132.348C231.924 132.648 231.947 132.963 231.905 133.272C231.767 134.598 230.579 135.72 229.505 136.374C228.245 137.16 224.963 137.52 224.963 137.52Z" fill="#80D280"/>
<path d="M221.322 122.454C223.092 123.09 223.974 126.366 223.914 128.046C223.914 128.19 223.578 130.446 223.548 130.446H223.512C223.65 130.962 223.8 131.52 223.95 132.126C224.214 133.254 224.502 134.526 224.724 135.942C224.981 137.461 225.15 138.993 225.228 140.532C225.324 142.254 225.265 143.981 225.054 145.692C225.051 145.712 225.051 145.732 225.054 145.752C225.288 145.254 225.978 143.874 226.044 143.772C226.968 142.368 229.572 140.172 231.39 140.7C231.688 140.792 231.963 140.945 232.198 141.15C232.433 141.355 232.622 141.607 232.753 141.89C232.885 142.173 232.955 142.48 232.96 142.792C232.965 143.104 232.904 143.413 232.782 143.7C232.302 144.936 230.862 145.71 229.656 146.052C228.294 146.442 225.258 145.98 225.018 145.944C224.762 147.679 224.389 149.395 223.902 151.08C223.622 152.064 223.318 153.048 222.99 154.032C223.2 153.606 223.398 153.228 223.428 153.174C224.352 151.77 226.956 149.574 228.774 150.096C229.072 150.187 229.348 150.34 229.584 150.545C229.819 150.75 230.009 151.002 230.14 151.285C230.271 151.568 230.342 151.876 230.346 152.188C230.351 152.5 230.289 152.809 230.166 153.096C229.686 154.338 228.246 155.106 227.04 155.454C225.834 155.802 223.218 155.454 222.534 155.364C222.408 155.736 222.282 156.114 222.15 156.486C221.55 158.286 220.902 160.086 220.35 161.85C220.152 162.45 219.978 163.098 219.804 163.722C219.996 163.344 220.158 163.026 220.188 162.984C221.106 161.58 223.716 159.384 225.528 159.906C225.826 159.998 226.101 160.151 226.336 160.356C226.571 160.561 226.761 160.813 226.892 161.096C227.024 161.378 227.095 161.686 227.101 161.997C227.107 162.309 227.047 162.619 226.926 162.906C226.446 164.142 225 164.916 223.794 165.258C222.588 165.6 220.23 165.3 219.414 165.186C219.252 165.834 219.096 166.476 218.97 167.106C218.892 167.538 218.79 167.952 218.736 168.39C218.682 168.828 218.616 169.254 218.556 169.674C218.472 170.496 218.376 171.348 218.316 172.152C218.268 172.71 218.232 173.244 218.196 173.778C218.382 173.178 218.796 171.942 218.826 171.84C219.492 170.521 220.483 169.394 221.706 168.564C221.773 168.414 221.855 168.271 221.952 168.138C222.122 167.876 222.345 167.653 222.607 167.483C222.869 167.313 223.164 167.2 223.472 167.151C223.78 167.103 224.096 167.119 224.397 167.201C224.698 167.282 224.98 167.425 225.222 167.622C226.65 168.822 226.29 172.23 225.636 173.778C225.6 173.868 225.066 174.81 224.724 175.398C224.982 175.086 225.222 174.798 225.492 174.45C226.014 173.814 226.554 173.19 227.13 172.518L228.012 171.564C228.3 171.234 228.648 170.928 228.966 170.61C229.716 169.884 230.514 169.182 231.336 168.492C230.772 168.036 228.81 166.374 228.246 165.246C227.682 164.118 227.28 162.54 227.868 161.352C227.997 161.067 228.184 160.811 228.418 160.603C228.652 160.395 228.927 160.239 229.225 160.144C229.523 160.05 229.838 160.019 230.149 160.055C230.46 160.09 230.76 160.191 231.03 160.35C232.62 161.346 232.782 164.736 232.368 166.35C232.368 166.452 231.912 167.586 231.666 168.204C232.164 167.796 232.656 167.382 233.172 167.004C234.66 165.852 236.202 164.736 237.732 163.614L239.13 162.576C238.932 162.414 236.556 160.494 235.92 159.234C235.362 158.112 234.954 156.528 235.542 155.334C235.671 155.049 235.859 154.795 236.093 154.587C236.327 154.38 236.602 154.224 236.9 154.129C237.198 154.035 237.513 154.004 237.823 154.039C238.134 154.074 238.434 154.174 238.704 154.332C240.294 155.334 240.456 158.724 240.042 160.332C240.012 160.458 239.394 162.09 239.214 162.498C240.24 161.73 241.254 160.962 242.214 160.164C243.528 159.09 244.771 157.932 245.934 156.696C245.844 156.624 243.354 154.632 242.706 153.336C242.142 152.214 241.74 150.63 242.328 149.442C242.456 149.157 242.643 148.902 242.876 148.694C243.109 148.486 243.384 148.329 243.682 148.235C243.98 148.14 244.294 148.109 244.605 148.145C244.915 148.18 245.215 148.281 245.484 148.44C247.08 149.436 247.242 152.826 246.828 154.44C246.798 154.542 246.33 155.79 246.09 156.378L246.186 156.432C247.324 155.157 248.346 153.784 249.24 152.328C249.738 151.536 250.176 150.75 250.584 149.97C250.08 149.646 247.806 148.17 247.092 147.042C246.378 145.914 245.838 144.462 246.288 143.214C246.385 142.92 246.542 142.65 246.749 142.42C246.957 142.191 247.209 142.007 247.492 141.88C247.774 141.754 248.079 141.688 248.389 141.686C248.698 141.684 249.004 141.747 249.288 141.87C250.986 142.686 251.514 146.04 251.28 147.702C251.28 147.792 251.04 148.698 250.866 149.358C251.04 149.004 251.232 148.644 251.394 148.302C251.994 147.018 252.504 145.806 252.924 144.702C253.164 144.102 253.362 143.502 253.524 143.004C253.194 142.404 251.91 140.094 251.784 138.804C251.658 137.514 251.862 135.93 252.84 135.03C253.063 134.811 253.33 134.642 253.623 134.533C253.915 134.424 254.228 134.378 254.54 134.398C254.852 134.417 255.156 134.503 255.433 134.648C255.709 134.793 255.952 134.995 256.146 135.24C257.274 136.746 256.2 139.962 255.228 141.336C255.144 141.45 253.614 143.136 253.596 143.136V143.1C253.428 143.61 253.248 144.156 253.032 144.744C252.636 145.83 252.168 147.06 251.58 148.344C250.953 149.751 250.246 151.122 249.462 152.448C248.588 153.934 247.584 155.34 246.462 156.648L246.42 156.696C246.888 156.402 248.22 155.64 248.334 155.592C249.882 154.932 253.254 154.554 254.49 155.976C254.688 156.217 254.833 156.498 254.916 156.798C254.999 157.099 255.018 157.415 254.972 157.723C254.925 158.032 254.815 158.328 254.647 158.591C254.479 158.854 254.258 159.079 253.998 159.252C252.912 160.02 251.28 159.852 250.086 159.486C248.736 159.06 246.486 157.002 246.276 156.84C245.106 158.145 243.849 159.37 242.514 160.506C241.734 161.178 240.936 161.826 240.114 162.462C240.528 162.228 240.9 162.018 240.954 161.994C242.496 161.334 245.868 160.956 247.104 162.378C247.303 162.619 247.449 162.899 247.532 163.2C247.616 163.501 247.635 163.817 247.589 164.126C247.542 164.435 247.431 164.73 247.263 164.994C247.095 165.257 246.873 165.482 246.612 165.654C245.532 166.422 243.9 166.254 242.706 165.888C241.512 165.522 239.514 163.794 238.998 163.332L238.056 164.058C236.544 165.216 235.056 166.362 233.586 167.532C233.076 167.946 232.59 168.372 232.098 168.792C232.47 168.582 232.776 168.408 232.83 168.39C234.372 167.724 237.744 167.352 238.98 168.768C239.18 169.009 239.327 169.289 239.411 169.59C239.495 169.891 239.514 170.207 239.468 170.516C239.421 170.825 239.31 171.121 239.141 171.385C238.972 171.648 238.75 171.873 238.488 172.044C237.402 172.812 235.776 172.644 234.582 172.284C233.388 171.924 231.582 170.352 230.982 169.806C230.496 170.256 230.004 170.7 229.554 171.162C229.248 171.48 228.954 171.762 228.654 172.104C228.354 172.446 228.054 172.752 227.79 173.076C227.268 173.712 226.722 174.372 226.224 175.008C225.876 175.446 225.552 175.872 225.228 176.298C225.726 175.884 226.734 175.098 226.824 175.032C228.246 174.144 231.522 173.262 232.962 174.474C233.194 174.683 233.38 174.939 233.508 175.225C233.635 175.511 233.701 175.82 233.701 176.133C233.701 176.446 233.635 176.755 233.508 177.041C233.38 177.327 233.194 177.583 232.962 177.792C232.008 178.71 230.376 178.812 229.14 178.62C227.772 178.404 225.3 176.82 224.994 176.592C224.454 177.3 223.938 177.996 223.458 178.662C221.796 180.96 220.5 182.934 219.612 184.332L219.522 184.47L218.37 183.912C218.43 183.822 218.49 183.738 218.55 183.642C219.48 182.25 220.836 180.282 222.564 177.996C223.11 177.276 223.704 176.514 224.322 175.734C223.679 175.034 223.078 174.297 222.522 173.526C221.196 174.042 218.442 174.066 218.088 174.066C218.034 174.954 217.986 175.818 217.95 176.634C217.83 179.472 217.842 181.836 217.872 183.486V183.684L216.606 183.084C216.606 181.446 216.672 179.22 216.84 176.598C216.894 175.692 216.972 174.726 217.062 173.742C216.708 173.652 213.846 172.914 212.766 172.05C211.788 171.27 210.756 169.998 210.792 168.672C210.789 168.359 210.851 168.049 210.976 167.762C211.101 167.476 211.285 167.218 211.516 167.008C211.747 166.797 212.02 166.637 212.317 166.54C212.614 166.442 212.929 166.408 213.24 166.44C215.106 166.68 216.666 169.692 216.978 171.342C216.978 171.438 217.074 172.542 217.11 173.202C217.152 172.794 217.182 172.404 217.224 172.002C217.308 171.18 217.416 170.358 217.53 169.476C217.596 169.056 217.668 168.63 217.734 168.198C217.8 167.766 217.914 167.322 218.004 166.878C218.232 165.858 218.508 164.832 218.814 163.806C218.094 163.728 215.544 163.428 214.446 162.804C213.348 162.18 212.148 161.076 211.986 159.762C211.935 159.453 211.95 159.137 212.029 158.834C212.109 158.531 212.252 158.249 212.448 158.005C212.645 157.761 212.891 157.562 213.17 157.42C213.449 157.278 213.755 157.197 214.068 157.182C215.946 157.134 217.95 159.876 218.502 161.46C218.538 161.562 218.808 162.744 218.94 163.398C219.132 162.798 219.312 162.162 219.54 161.55C220.14 159.75 220.818 157.986 221.478 156.204C221.682 155.658 221.874 155.112 222.078 154.572C221.82 154.572 218.778 154.254 217.554 153.552C216.468 152.952 215.256 151.824 215.088 150.51C215.039 150.201 215.055 149.886 215.135 149.584C215.216 149.282 215.359 149 215.555 148.757C215.751 148.514 215.997 148.314 216.275 148.172C216.553 148.03 216.858 147.947 217.17 147.93C219.054 147.882 221.058 150.624 221.61 152.208C221.652 152.328 222.036 154.008 222.114 154.47C222.546 153.27 222.972 152.07 223.314 150.87C223.821 149.25 224.222 147.598 224.514 145.926C224.394 145.926 221.214 145.626 219.966 144.906C218.874 144.306 217.662 143.178 217.5 141.864C217.451 141.555 217.467 141.24 217.547 140.938C217.628 140.636 217.771 140.354 217.967 140.111C218.163 139.868 218.409 139.668 218.687 139.526C218.965 139.383 219.27 139.301 219.582 139.284C221.46 139.242 223.464 141.978 224.016 143.562C224.052 143.67 224.346 144.966 224.472 145.584H224.58C224.828 143.894 224.924 142.185 224.868 140.478C224.868 139.536 224.778 138.642 224.688 137.766C224.088 137.766 221.364 137.766 220.164 137.25C218.964 136.734 217.686 135.786 217.374 134.496C217.291 134.194 217.272 133.877 217.32 133.568C217.367 133.258 217.48 132.961 217.65 132.698C217.819 132.435 218.043 132.21 218.306 132.039C218.568 131.868 218.864 131.755 219.174 131.706C221.04 131.454 223.332 133.956 224.058 135.474C224.094 135.558 224.406 136.44 224.616 137.082C224.574 136.692 224.532 136.284 224.478 135.912C224.292 134.502 224.028 133.218 223.788 132.09C223.644 131.448 223.506 130.89 223.368 130.332C222.768 130.032 220.416 128.796 219.606 127.794C218.796 126.792 218.088 125.358 218.406 124.068C218.474 123.76 218.607 123.471 218.796 123.219C218.985 122.966 219.225 122.757 219.501 122.605C219.776 122.452 220.081 122.36 220.395 122.334C220.709 122.308 221.025 122.349 221.322 122.454Z" fill="#80D280"/>
<path d="M255.33 151.452C253.86 151.392 250.92 149.886 250.92 149.88C250.92 149.874 252.498 148.248 252.612 148.158C253.926 147.108 257.082 145.86 258.648 146.898C258.903 147.078 259.118 147.31 259.278 147.579C259.438 147.848 259.539 148.147 259.576 148.458C259.613 148.768 259.584 149.083 259.491 149.382C259.399 149.681 259.244 149.956 259.038 150.192C258.198 151.2 256.584 151.5 255.33 151.452Z" fill="#80D280"/>
<g opacity="0.5">
<path d="M224.963 137.52C224.927 137.52 225.377 135.282 225.425 135.12C225.941 133.524 227.885 130.74 229.763 130.746C230.075 130.755 230.382 130.83 230.664 130.965C230.945 131.1 231.195 131.293 231.397 131.532C231.599 131.77 231.749 132.048 231.836 132.348C231.924 132.648 231.947 132.963 231.905 133.272C231.767 134.598 230.579 135.72 229.505 136.374C228.245 137.16 224.963 137.52 224.963 137.52Z" fill="white"/>
<path d="M221.322 122.454C223.092 123.09 223.974 126.366 223.914 128.046C223.914 128.19 223.578 130.446 223.548 130.446H223.512C223.65 130.962 223.8 131.52 223.95 132.126C224.214 133.254 224.502 134.526 224.724 135.942C224.981 137.461 225.15 138.993 225.228 140.532C225.324 142.254 225.265 143.981 225.054 145.692C225.051 145.712 225.051 145.732 225.054 145.752C225.288 145.254 225.978 143.874 226.044 143.772C226.968 142.368 229.572 140.172 231.39 140.7C231.688 140.792 231.963 140.945 232.198 141.15C232.433 141.355 232.622 141.607 232.753 141.89C232.885 142.173 232.955 142.48 232.96 142.792C232.965 143.104 232.904 143.413 232.782 143.7C232.302 144.936 230.862 145.71 229.656 146.052C228.294 146.442 225.258 145.98 225.018 145.944C224.762 147.679 224.389 149.395 223.902 151.08C223.622 152.064 223.318 153.048 222.99 154.032C223.2 153.606 223.398 153.228 223.428 153.174C224.352 151.77 226.956 149.574 228.774 150.096C229.072 150.187 229.348 150.34 229.584 150.545C229.819 150.75 230.009 151.002 230.14 151.285C230.271 151.568 230.342 151.876 230.346 152.188C230.351 152.5 230.289 152.809 230.166 153.096C229.686 154.338 228.246 155.106 227.04 155.454C225.834 155.802 223.218 155.454 222.534 155.364C222.408 155.736 222.282 156.114 222.15 156.486C221.55 158.286 220.902 160.086 220.35 161.85C220.152 162.45 219.978 163.098 219.804 163.722C219.996 163.344 220.158 163.026 220.188 162.984C221.106 161.58 223.716 159.384 225.528 159.906C225.826 159.998 226.101 160.151 226.336 160.356C226.571 160.561 226.761 160.813 226.892 161.096C227.024 161.378 227.095 161.686 227.101 161.997C227.107 162.309 227.047 162.619 226.926 162.906C226.446 164.142 225 164.916 223.794 165.258C222.588 165.6 220.23 165.3 219.414 165.186C219.252 165.834 219.096 166.476 218.97 167.106C218.892 167.538 218.79 167.952 218.736 168.39C218.682 168.828 218.616 169.254 218.556 169.674C218.472 170.496 218.376 171.348 218.316 172.152C218.268 172.71 218.232 173.244 218.196 173.778C218.382 173.178 218.796 171.942 218.826 171.84C219.492 170.521 220.483 169.394 221.706 168.564C221.773 168.414 221.855 168.271 221.952 168.138C222.122 167.876 222.345 167.653 222.607 167.483C222.869 167.313 223.164 167.2 223.472 167.151C223.78 167.103 224.096 167.119 224.397 167.201C224.698 167.282 224.98 167.425 225.222 167.622C226.65 168.822 226.29 172.23 225.636 173.778C225.6 173.868 225.066 174.81 224.724 175.398C224.982 175.086 225.222 174.798 225.492 174.45C226.014 173.814 226.554 173.19 227.13 172.518L228.012 171.564C228.3 171.234 228.648 170.928 228.966 170.61C229.716 169.884 230.514 169.182 231.336 168.492C230.772 168.036 228.81 166.374 228.246 165.246C227.682 164.118 227.28 162.54 227.868 161.352C227.997 161.067 228.184 160.811 228.418 160.603C228.652 160.395 228.927 160.239 229.225 160.144C229.523 160.05 229.838 160.019 230.149 160.055C230.46 160.09 230.76 160.191 231.03 160.35C232.62 161.346 232.782 164.736 232.368 166.35C232.368 166.452 231.912 167.586 231.666 168.204C232.164 167.796 232.656 167.382 233.172 167.004C234.66 165.852 236.202 164.736 237.732 163.614L239.13 162.576C238.932 162.414 236.556 160.494 235.92 159.234C235.362 158.112 234.954 156.528 235.542 155.334C235.671 155.049 235.859 154.795 236.093 154.587C236.327 154.38 236.602 154.224 236.9 154.129C237.198 154.035 237.513 154.004 237.823 154.039C238.134 154.074 238.434 154.174 238.704 154.332C240.294 155.334 240.456 158.724 240.042 160.332C240.012 160.458 239.394 162.09 239.214 162.498C240.24 161.73 241.254 160.962 242.214 160.164C243.528 159.09 244.771 157.932 245.934 156.696C245.844 156.624 243.354 154.632 242.706 153.336C242.142 152.214 241.74 150.63 242.328 149.442C242.456 149.157 242.643 148.902 242.876 148.694C243.109 148.486 243.384 148.329 243.682 148.235C243.98 148.14 244.294 148.109 244.605 148.145C244.915 148.18 245.215 148.281 245.484 148.44C247.08 149.436 247.242 152.826 246.828 154.44C246.798 154.542 246.33 155.79 246.09 156.378L246.186 156.432C247.324 155.157 248.346 153.784 249.24 152.328C249.738 151.536 250.176 150.75 250.584 149.97C250.08 149.646 247.806 148.17 247.092 147.042C246.378 145.914 245.838 144.462 246.288 143.214C246.385 142.92 246.542 142.65 246.749 142.42C246.957 142.191 247.209 142.007 247.492 141.88C247.774 141.754 248.079 141.688 248.389 141.686C248.698 141.684 249.004 141.747 249.288 141.87C250.986 142.686 251.514 146.04 251.28 147.702C251.28 147.792 251.04 148.698 250.866 149.358C251.04 149.004 251.232 148.644 251.394 148.302C251.994 147.018 252.504 145.806 252.924 144.702C253.164 144.102 253.362 143.502 253.524 143.004C253.194 142.404 251.91 140.094 251.784 138.804C251.658 137.514 251.862 135.93 252.84 135.03C253.063 134.811 253.33 134.642 253.623 134.533C253.915 134.424 254.228 134.378 254.54 134.398C254.852 134.417 255.156 134.503 255.433 134.648C255.709 134.793 255.952 134.995 256.146 135.24C257.274 136.746 256.2 139.962 255.228 141.336C255.144 141.45 253.614 143.136 253.596 143.136V143.1C253.428 143.61 253.248 144.156 253.032 144.744C252.636 145.83 252.168 147.06 251.58 148.344C250.953 149.751 250.246 151.122 249.462 152.448C248.588 153.934 247.584 155.34 246.462 156.648L246.42 156.696C246.888 156.402 248.22 155.64 248.334 155.592C249.882 154.932 253.254 154.554 254.49 155.976C254.688 156.217 254.833 156.498 254.916 156.798C254.999 157.099 255.018 157.415 254.972 157.723C254.925 158.032 254.815 158.328 254.647 158.591C254.479 158.854 254.258 159.079 253.998 159.252C252.912 160.02 251.28 159.852 250.086 159.486C248.736 159.06 246.486 157.002 246.276 156.84C245.106 158.145 243.849 159.37 242.514 160.506C241.734 161.178 240.936 161.826 240.114 162.462C240.528 162.228 240.9 162.018 240.954 161.994C242.496 161.334 245.868 160.956 247.104 162.378C247.303 162.619 247.449 162.899 247.532 163.2C247.616 163.501 247.635 163.817 247.589 164.126C247.542 164.435 247.431 164.73 247.263 164.994C247.095 165.257 246.873 165.482 246.612 165.654C245.532 166.422 243.9 166.254 242.706 165.888C241.512 165.522 239.514 163.794 238.998 163.332L238.056 164.058C236.544 165.216 235.056 166.362 233.586 167.532C233.076 167.946 232.59 168.372 232.098 168.792C232.47 168.582 232.776 168.408 232.83 168.39C234.372 167.724 237.744 167.352 238.98 168.768C239.18 169.009 239.327 169.289 239.411 169.59C239.495 169.891 239.514 170.207 239.468 170.516C239.421 170.825 239.31 171.121 239.141 171.385C238.972 171.648 238.75 171.873 238.488 172.044C237.402 172.812 235.776 172.644 234.582 172.284C233.388 171.924 231.582 170.352 230.982 169.806C230.496 170.256 230.004 170.7 229.554 171.162C229.248 171.48 228.954 171.762 228.654 172.104C228.354 172.446 228.054 172.752 227.79 173.076C227.268 173.712 226.722 174.372 226.224 175.008C225.876 175.446 225.552 175.872 225.228 176.298C225.726 175.884 226.734 175.098 226.824 175.032C228.246 174.144 231.522 173.262 232.962 174.474C233.194 174.683 233.38 174.939 233.508 175.225C233.635 175.511 233.701 175.82 233.701 176.133C233.701 176.446 233.635 176.755 233.508 177.041C233.38 177.327 233.194 177.583 232.962 177.792C232.008 178.71 230.376 178.812 229.14 178.62C227.772 178.404 225.3 176.82 224.994 176.592C224.454 177.3 223.938 177.996 223.458 178.662C221.796 180.96 220.5 182.934 219.612 184.332L219.522 184.47L218.37 183.912C218.43 183.822 218.49 183.738 218.55 183.642C219.48 182.25 220.836 180.282 222.564 177.996C223.11 177.276 223.704 176.514 224.322 175.734C223.679 175.034 223.078 174.297 222.522 173.526C221.196 174.042 218.442 174.066 218.088 174.066C218.034 174.954 217.986 175.818 217.95 176.634C217.83 179.472 217.842 181.836 217.872 183.486V183.684L216.606 183.084C216.606 181.446 216.672 179.22 216.84 176.598C216.894 175.692 216.972 174.726 217.062 173.742C216.708 173.652 213.846 172.914 212.766 172.05C211.788 171.27 210.756 169.998 210.792 168.672C210.789 168.359 210.851 168.049 210.976 167.762C211.101 167.476 211.285 167.218 211.516 167.008C211.747 166.797 212.02 166.637 212.317 166.54C212.614 166.442 212.929 166.408 213.24 166.44C215.106 166.68 216.666 169.692 216.978 171.342C216.978 171.438 217.074 172.542 217.11 173.202C217.152 172.794 217.182 172.404 217.224 172.002C217.308 171.18 217.416 170.358 217.53 169.476C217.596 169.056 217.668 168.63 217.734 168.198C217.8 167.766 217.914 167.322 218.004 166.878C218.232 165.858 218.508 164.832 218.814 163.806C218.094 163.728 215.544 163.428 214.446 162.804C213.348 162.18 212.148 161.076 211.986 159.762C211.935 159.453 211.95 159.137 212.029 158.834C212.109 158.531 212.252 158.249 212.448 158.005C212.645 157.761 212.891 157.562 213.17 157.42C213.449 157.278 213.755 157.197 214.068 157.182C215.946 157.134 217.95 159.876 218.502 161.46C218.538 161.562 218.808 162.744 218.94 163.398C219.132 162.798 219.312 162.162 219.54 161.55C220.14 159.75 220.818 157.986 221.478 156.204C221.682 155.658 221.874 155.112 222.078 154.572C221.82 154.572 218.778 154.254 217.554 153.552C216.468 152.952 215.256 151.824 215.088 150.51C215.039 150.201 215.055 149.886 215.135 149.584C215.216 149.282 215.359 149 215.555 148.757C215.751 148.514 215.997 148.314 216.275 148.172C216.553 148.03 216.858 147.947 217.17 147.93C219.054 147.882 221.058 150.624 221.61 152.208C221.652 152.328 222.036 154.008 222.114 154.47C222.546 153.27 222.972 152.07 223.314 150.87C223.821 149.25 224.222 147.598 224.514 145.926C224.394 145.926 221.214 145.626 219.966 144.906C218.874 144.306 217.662 143.178 217.5 141.864C217.451 141.555 217.467 141.24 217.547 140.938C217.628 140.636 217.771 140.354 217.967 140.111C218.163 139.868 218.409 139.668 218.687 139.526C218.965 139.383 219.27 139.301 219.582 139.284C221.46 139.242 223.464 141.978 224.016 143.562C224.052 143.67 224.346 144.966 224.472 145.584H224.58C224.828 143.894 224.924 142.185 224.868 140.478C224.868 139.536 224.778 138.642 224.688 137.766C224.088 137.766 221.364 137.766 220.164 137.25C218.964 136.734 217.686 135.786 217.374 134.496C217.291 134.194 217.272 133.877 217.32 133.568C217.367 133.258 217.48 132.961 217.65 132.698C217.819 132.435 218.043 132.21 218.306 132.039C218.568 131.868 218.864 131.755 219.174 131.706C221.04 131.454 223.332 133.956 224.058 135.474C224.094 135.558 224.406 136.44 224.616 137.082C224.574 136.692 224.532 136.284 224.478 135.912C224.292 134.502 224.028 133.218 223.788 132.09C223.644 131.448 223.506 130.89 223.368 130.332C222.768 130.032 220.416 128.796 219.606 127.794C218.796 126.792 218.088 125.358 218.406 124.068C218.474 123.76 218.607 123.471 218.796 123.219C218.985 122.966 219.225 122.757 219.501 122.605C219.776 122.452 220.081 122.36 220.395 122.334C220.709 122.308 221.025 122.349 221.322 122.454Z" fill="white"/>
<path d="M255.33 151.452C253.86 151.392 250.92 149.886 250.92 149.88C250.92 149.874 252.498 148.248 252.612 148.158C253.926 147.108 257.082 145.86 258.648 146.898C258.903 147.078 259.118 147.31 259.278 147.579C259.438 147.848 259.539 148.147 259.576 148.458C259.613 148.768 259.584 149.083 259.491 149.382C259.399 149.681 259.244 149.956 259.038 150.192C258.198 151.2 256.584 151.5 255.33 151.452Z" fill="white"/>
</g>
<path d="M238.163 188.268C238.163 188.268 229.241 166.758 224.249 167.694C219.257 168.63 232.799 201.978 232.799 201.978C232.799 201.978 217.103 172.368 206.399 172.368C195.695 172.368 210.323 205.098 223.877 216.006C223.877 216.006 202.475 192.942 189.989 197.928C177.503 202.914 214.961 226.29 214.961 226.29C214.961 226.29 193.199 219.432 195.695 224.73C198.191 230.028 204.971 230.964 204.971 230.964L180.371 232.212H265.991L246.725 230.34C246.725 230.34 266.705 220.368 261.353 216.318C256.001 212.268 244.229 220.992 244.229 220.992C244.229 220.992 264.563 198.552 260.639 190.134C256.715 181.716 239.231 205.41 239.231 205.41C239.231 205.41 253.505 175.176 250.631 169.878C247.757 164.58 238.163 188.268 238.163 188.268Z" fill="#80D280"/>
<path opacity="0.4" d="M238.163 188.268C238.163 188.268 229.241 166.758 224.249 167.694C219.257 168.63 232.799 201.978 232.799 201.978C232.799 201.978 217.103 172.368 206.399 172.368C195.695 172.368 210.323 205.098 223.877 216.006C223.877 216.006 202.475 192.942 189.989 197.928C177.503 202.914 214.961 226.29 214.961 226.29C214.961 226.29 193.199 219.432 195.695 224.73C198.191 230.028 204.971 230.964 204.971 230.964L180.371 232.212H265.991L246.725 230.34C246.725 230.34 266.705 220.368 261.353 216.318C256.001 212.268 244.229 220.992 244.229 220.992C244.229 220.992 264.563 198.552 260.639 190.134C256.715 181.716 239.231 205.41 239.231 205.41C239.231 205.41 253.505 175.176 250.631 169.878C247.757 164.58 238.163 188.268 238.163 188.268Z" fill="white"/>
<path d="M241.02 189.396C233.166 212.586 233.166 228.996 233.166 228.996C233.166 228.996 242.442 229.349 252.078 222.215" stroke="#263238" stroke-linecap="round" stroke-linejoin="round"/>
<path d="M237.096 201.888C235.476 194.954 233.328 188.154 230.67 181.548" stroke="#263238" stroke-linecap="round" stroke-linejoin="round"/>
<path d="M213.904 188.328L233.878 217.938C233.878 217.938 247.438 206.538 252.076 200.1" stroke="#263238" stroke-linecap="round" stroke-linejoin="round"/>
<path d="M233.526 225.078C233.526 225.078 212.478 215.088 203.916 209.4" stroke="#263238" stroke-linecap="round" stroke-linejoin="round"/>
<path d="M214.633 65.4004H150.529C147.905 65.4004 145.777 67.5279 145.777 70.1524V227.46C145.777 230.085 147.905 232.212 150.529 232.212H214.633C217.258 232.212 219.385 230.085 219.385 227.46V70.1524C219.385 67.5279 217.258 65.4004 214.633 65.4004Z" fill="white" stroke="#263238" stroke-linecap="round" stroke-linejoin="round"/>
<path d="M216.925 94.6026C216.666 94.6026 216.417 94.4996 216.234 94.3162C216.05 94.1328 215.947 93.884 215.947 93.6246V80.5146C215.967 80.2677 216.078 80.0372 216.26 79.869C216.442 79.7008 216.681 79.6074 216.928 79.6074C217.176 79.6074 217.415 79.7008 217.596 79.869C217.778 80.0372 217.89 80.2677 217.909 80.5146V93.6006C217.912 93.7314 217.888 93.8613 217.84 93.9827C217.791 94.1042 217.719 94.2148 217.627 94.3081C217.536 94.4014 217.427 94.4755 217.306 94.5261C217.185 94.5766 217.056 94.6027 216.925 94.6026Z" fill="#263238"/>
<path d="M216.925 106.746C216.666 106.746 216.417 106.643 216.234 106.46C216.05 106.277 215.947 106.028 215.947 105.768V98.4424C215.967 98.1955 216.078 97.9649 216.26 97.7967C216.442 97.6286 216.681 97.5352 216.928 97.5352C217.176 97.5352 217.415 97.6286 217.596 97.7967C217.778 97.9649 217.89 98.1955 217.909 98.4424V105.768C217.908 106.028 217.803 106.277 217.619 106.46C217.435 106.644 217.185 106.746 216.925 106.746Z" fill="#263238"/>
<path d="M209.083 65.4004H144.979C142.354 65.4004 140.227 67.5279 140.227 70.1524V227.46C140.227 230.085 142.354 232.212 144.979 232.212H209.083C211.707 232.212 213.835 230.085 213.835 227.46V70.1524C213.835 67.5279 211.707 65.4004 209.083 65.4004Z" fill="#263238" stroke="#263238" stroke-linecap="round" stroke-linejoin="round"/>
<path d="M208.933 76.5068H145.129V219.583H208.933V76.5068Z" fill="#FF9433"/>
<path d="M167.557 71.9346H184.543" stroke="white" stroke-width="3" stroke-linecap="round" stroke-linejoin="round"/>
<path d="M174.745 224.646C174.745 225.816 174.013 226.764 173.107 226.764C172.201 226.764 171.475 225.816 171.475 224.646C171.475 223.476 172.207 222.522 173.107 222.522C174.007 222.522 174.745 223.47 174.745 224.646Z" fill="white"/>
<path d="M178 110C184.627 110 190 104.627 190 98C190 91.3726 184.627 86 178 86C171.373 86 166 91.3726 166 98C166 104.627 171.373 110 178 110Z" fill="white"/>
<path d="M178 95C180.209 95 182 93.2091 182 91C182 88.7909 180.209 87 178 87C175.791 87 174 88.7909 174 91C174 93.2091 175.791 95 178 95Z" fill="#263238" stroke="#263238" stroke-linecap="round" stroke-linejoin="round"/>
<path d="M178.003 97C173.602 97 170 100.285 170 104.34C170.004 104.718 170.039 105.094 170.107 105.466C171.083 106.574 172.294 107.464 173.657 108.074C175.02 108.684 176.503 109 178.003 109C179.503 109 180.986 108.684 182.349 108.074C183.712 107.464 184.923 106.574 185.899 105.466C185.962 105.093 185.995 104.717 186 104.34C186 100.285 182.417 97 178.003 97Z" fill="#263238" stroke="#263238" stroke-linecap="round" stroke-linejoin="round"/>
<path d="M190.482 155.401H163.578C162.866 155.372 162.194 155.063 161.711 154.54C161.227 154.016 160.971 153.323 160.998 152.611V136.003C160.998 126.433 168.198 118.645 177.03 118.645C185.862 118.645 193.056 126.445 193.056 136.003V152.599C193.071 152.952 193.017 153.304 192.896 153.636C192.775 153.968 192.589 154.273 192.35 154.533C192.111 154.794 191.823 155.004 191.502 155.153C191.182 155.302 190.835 155.386 190.482 155.401ZM166.152 149.821H187.902V136.021C187.902 129.529 183.024 124.243 177.03 124.243C171.036 124.243 166.152 129.529 166.152 136.021V149.821Z" fill="#263238"/>
<path d="M195.71 144.066H158.354V179.406H195.71V144.066Z" fill="white"/>
<path d="M182.473 168.396L179.701 161.73C180.314 161.267 180.81 160.666 181.148 159.976C181.487 159.286 181.659 158.526 181.651 157.758C181.651 155.1 179.665 152.958 177.211 152.958C174.757 152.958 172.777 155.106 172.777 157.758C172.768 158.526 172.939 159.285 173.276 159.975C173.614 160.665 174.109 161.266 174.721 161.73L171.955 168.396H182.473Z" fill="#263238" stroke="#263238" stroke-linecap="round" stroke-linejoin="round"/>
<path d="M165.648 211.164C165.705 211.206 165.774 211.23 165.846 211.23C165.897 211.23 165.947 211.218 165.992 211.193C166.037 211.169 166.075 211.135 166.104 211.092L208.932 152.838V151.734L165.6 210.708C165.573 210.741 165.553 210.779 165.541 210.82C165.529 210.861 165.525 210.904 165.529 210.946C165.534 210.989 165.546 211.03 165.567 211.067C165.587 211.105 165.615 211.138 165.648 211.164Z" fill="white"/>
<path d="M200.317 97.4948C200.292 97.5293 200.273 97.5686 200.263 97.6103C200.253 97.6521 200.251 97.6954 200.258 97.7378C200.265 97.7803 200.28 97.821 200.302 97.8575C200.325 97.8941 200.354 97.9258 200.389 97.9508C200.46 98.0008 200.547 98.0212 200.632 98.0078C200.717 97.9943 200.794 97.948 200.845 97.8788L208.933 86.8808V85.8008L200.317 97.4948Z" fill="white"/>
<path d="M145.129 173.676L198.001 101.778C198.052 101.708 198.073 101.621 198.059 101.535C198.046 101.45 197.999 101.373 197.929 101.322C197.859 101.271 197.772 101.25 197.686 101.264C197.6 101.277 197.524 101.324 197.473 101.394L145.153 172.572L145.129 173.676Z" fill="white"/>
<path d="M160.681 218.257C160.732 218.256 160.782 218.244 160.828 218.221C160.874 218.198 160.914 218.165 160.945 218.125L163.945 214.069C163.971 214.034 163.989 213.995 163.999 213.953C164.009 213.912 164.011 213.868 164.005 213.826C163.998 213.783 163.983 213.743 163.96 213.706C163.938 213.67 163.908 213.638 163.873 213.613C163.803 213.563 163.716 213.542 163.63 213.556C163.545 213.569 163.469 213.616 163.417 213.685L160.417 217.735C160.391 217.769 160.372 217.808 160.362 217.849C160.351 217.891 160.349 217.934 160.355 217.977C160.361 218.019 160.376 218.06 160.398 218.097C160.42 218.133 160.449 218.165 160.483 218.191C160.539 218.235 160.609 218.259 160.681 218.257Z" fill="white"/>
<path d="M208.932 164.502L173.772 212.328C173.736 212.376 173.715 212.434 173.71 212.494C173.705 212.554 173.717 212.614 173.745 212.668C173.772 212.721 173.814 212.766 173.865 212.797C173.917 212.828 173.976 212.845 174.036 212.844C174.087 212.845 174.138 212.833 174.184 212.81C174.23 212.787 174.27 212.754 174.3 212.712L208.932 165.6V164.502Z" fill="white"/>
<path d="M85.4456 97.2839C86.0406 95.9657 86.3278 94.5295 86.2856 93.0839C86.2856 90.4019 83.0396 88.8479 79.2236 88.4219C75.4076 87.9959 73.7156 89.5499 74.2796 90.5399C74.8657 91.3564 75.5811 92.0718 76.3976 92.6579C76.3976 92.6579 72.5816 90.5399 70.0376 92.2379C67.4936 93.9359 71.1716 93.2279 70.4636 94.9199C69.7556 96.6119 65.8016 95.9099 64.8116 100.428C63.8216 104.946 66.6476 109.47 64.1036 111.45C61.5596 113.43 53.9036 110.742 51.6716 115.686C49.4396 120.63 52.6076 122.826 47.2436 125.934C41.8796 129.042 37.9676 132.078 39.5216 139.704C41.0756 147.33 46.1636 150 56.1956 147.306C66.2276 144.612 65.5196 138.546 68.7956 132.306C72.0716 126.066 77.1356 127.362 78.6896 123.828C80.2436 120.294 78.2636 116.058 78.4076 112.806C78.5516 109.554 81.7976 108.852 83.0696 105.006C84.3416 101.16 85.4456 97.2839 85.4456 97.2839Z" fill="#263238" stroke="#263238" stroke-linecap="round" stroke-linejoin="round"/>
<path d="M40.691 139.56C40.4279 140.091 40.2943 140.677 40.301 141.27" stroke="white" stroke-width="0.5" stroke-linecap="round" stroke-linejoin="round"/>
<path d="M80.0215 94.4819C80.0215 94.4819 78.2575 92.4419 81.6535 93.3899C85.9315 94.5899 80.9095 99.5399 78.9775 100.536C75.1015 102.522 69.9775 101.886 66.9775 105.498C64.2535 108.762 67.9315 112.164 66.2995 114.75C64.6675 117.336 58.1335 115.836 55.9615 118.95C53.7895 122.064 59.9035 128.748 53.6455 132.42C49.1215 135.078 44.1655 136.098 41.7715 138.204" stroke="white" stroke-width="0.5" stroke-linecap="round" stroke-linejoin="round"/>
<path d="M69.8751 106.554C69.5043 107.421 69.3918 108.378 69.5511 109.308C70.0911 111.618 73.2231 115.974 70.3671 118.422C67.5111 120.87 62.6091 120.732 61.7991 123.6C60.9891 126.468 62.6151 134.346 59.8971 138C57.1791 141.654 51.8691 141.402 49.0131 143.85C46.1571 146.298 46.5651 147.66 46.5651 147.66" stroke="white" stroke-width="0.5" stroke-linecap="round" stroke-linejoin="round"/>
<path d="M71.3149 103.866C71.0676 104.216 70.8393 104.578 70.6309 104.952" stroke="white" stroke-width="0.5" stroke-linecap="round" stroke-linejoin="round"/>
<path d="M87.2751 139.344L87.9651 144.744C87.9651 144.744 91.5651 148.344 94.2111 150.57C96.8571 152.796 103.637 157.506 103.637 157.506L100.199 158.484C100.199 158.484 88.9611 151.824 86.7411 151.284C84.5211 150.744 82.8591 147.54 82.1691 146.568C81.4791 145.596 85.4691 138.372 87.2751 139.344Z" fill="white" stroke="#263238" stroke-linecap="round" stroke-linejoin="round"/>
<path d="M94.1394 227.202C94.1394 227.202 97.5354 230.07 98.9394 231.03C100.343 231.99 101.981 232.422 101.723 232.944C101.465 233.466 100.763 233.988 97.4574 233.544C94.1514 233.1 93.1974 231.978 92.5854 231.804C91.9734 231.63 90.4974 232.068 89.3694 231.372C88.2414 230.676 90.0294 226.53 90.0294 226.53C90.5249 227.109 91.2093 227.495 91.9615 227.618C92.7138 227.741 93.4853 227.594 94.1394 227.202Z" fill="white" stroke="#263238" stroke-linecap="round" stroke-linejoin="round"/>
<path d="M101.712 232.944C101.715 232.916 101.715 232.888 101.712 232.86C99.8034 233.035 97.8787 232.854 96.0361 232.326C93.9001 231.822 93.2701 230.688 91.2361 230.688C90.4379 230.695 89.6444 230.565 88.8901 230.304C88.8683 230.504 88.8957 230.706 88.9699 230.894C89.0441 231.081 89.163 231.247 89.3161 231.378C90.4441 232.074 91.9261 231.636 92.5321 231.81C93.1381 231.984 94.0981 233.118 97.4041 233.55C100.71 233.982 101.448 233.466 101.712 232.944Z" fill="white" stroke="#263238" stroke-linecap="round" stroke-linejoin="round"/>
<path d="M76.3612 111.24C76.3612 111.24 77.0152 115.644 76.1752 117.42C75.3352 119.196 72.7072 119.388 70.4632 119.766C68.2192 120.144 63.0652 122.106 63.6232 127.164C64.1812 132.222 70.6492 143.178 70.6492 146.268C70.6492 149.358 68.6812 150.948 66.5272 156.942C64.3732 162.936 64.6552 174.084 65.3272 181.296C65.8197 186.056 66.7599 190.759 68.1352 195.342C68.1352 195.342 62.7352 204.054 60.3352 207.798C57.9352 211.542 49.5352 227.844 49.5352 227.844C49.5352 227.844 49.5352 228.402 50.8432 228.78C51.7634 229.004 52.7155 229.067 53.6572 228.966C53.6572 228.966 69.7612 209.58 72.7612 206.304C75.7612 203.028 78.5692 197.304 78.9412 194.688C79.3132 192.072 78.8512 176.052 78.8512 176.052C78.8512 176.052 82.2172 184.104 84.8512 188.226C86.4487 190.749 87.9147 193.352 89.2432 196.026C88.8743 199.416 88.8743 202.836 89.2432 206.226C89.8972 210.906 89.3452 225.942 89.9992 227.16C90.6532 228.378 93.1912 227.868 93.7552 227.31C94.3192 226.752 94.5832 223.11 94.5832 223.11C94.5832 223.11 95.7052 211.71 96.3832 206.346C97.0612 200.982 98.1832 196.416 97.7932 195.198C97.4032 193.98 95.0752 180.96 93.2932 174.798C91.5112 168.636 86.0932 157.098 84.8932 154.104C83.6932 151.11 83.0152 148.386 83.2072 147.45C83.3992 146.514 87.0472 140.898 88.0072 139.398C88.5544 138.381 88.8563 137.251 88.8886 136.096C88.9209 134.942 88.6827 133.796 88.1932 132.75C87.0712 130.314 88.1932 127.032 88.0072 125.07C87.8212 123.108 84.9172 122.256 83.4172 121.512C81.9172 120.768 81.3532 119.076 81.3532 117.672C81.4448 116.49 81.7306 115.33 82.1992 114.24C82.1992 114.24 77.5792 111.24 76.3612 111.24Z" fill="white" stroke="#263238" stroke-linecap="round" stroke-linejoin="round"/>
<path d="M87.7144 131.274C87.221 130.02 86.8101 128.735 86.4844 127.428" stroke="#263238" stroke-linecap="round" stroke-linejoin="round"/>
<path d="M75.5508 141.702C75.5508 141.702 77.2428 142.074 80.6328 140.382" stroke="#263238" stroke-linecap="round" stroke-linejoin="round"/>
<path d="M93.3112 174.738C91.6132 168.834 86.5792 158.052 85.0732 154.494C77.8732 157.194 71.1412 154.89 67.9792 153.402C67.5232 154.398 67.0312 155.55 66.5272 156.942C64.3732 162.942 64.6552 174.084 65.3272 181.296C65.8197 186.056 66.7599 190.759 68.1352 195.342C68.1352 195.342 62.7352 204.054 60.3352 207.798C57.9352 211.542 49.5352 227.844 49.5352 227.844C49.5352 227.844 49.5352 228.402 50.8432 228.78C51.7634 229.004 52.7155 229.067 53.6572 228.966C53.6572 228.966 69.7612 209.58 72.7612 206.304C75.7612 203.028 78.5692 197.304 78.9412 194.688C79.3132 192.072 78.8512 176.052 78.8512 176.052C78.8512 176.052 82.2172 184.104 84.8512 188.226C86.4487 190.749 87.9147 193.352 89.2432 196.026C88.8743 199.416 88.8743 202.836 89.2432 206.226C89.8972 210.906 89.3452 225.942 89.9992 227.16C90.6532 228.378 93.1912 227.868 93.7552 227.31C94.3192 226.752 94.5832 223.11 94.5832 223.11C94.5832 223.11 95.7052 211.71 96.3832 206.346C97.0612 200.982 98.1832 196.416 97.7932 195.198C97.4032 193.98 95.0932 180.918 93.3112 174.738Z" fill="#263238" stroke="#263238" stroke-linecap="round" stroke-linejoin="round"/>
<path d="M129.996 168.792V167.568H131.022V157.956H129.996H119.868H118.842V167.568H119.868V168.792H118.836V171.024H122.79V170.274H127.074V171.024H131.028V168.792H129.996Z" fill="#01BDF3" stroke="#263238" stroke-linecap="round" stroke-linejoin="round"/>
<path d="M64.5352 155.082H135.191C135.474 155.082 135.746 155.195 135.946 155.395C136.147 155.595 136.259 155.867 136.259 156.15V158.298C136.259 158.581 136.147 158.853 135.946 159.053C135.746 159.254 135.474 159.366 135.191 159.366H64.5352V155.076V155.082Z" fill="#01BDF3" stroke="#263238" stroke-linecap="round" stroke-linejoin="round"/>
<path d="M115.248 154.439H110.946C110.618 154.439 110.352 154.705 110.352 155.033V159.419C110.352 159.748 110.618 160.013 110.946 160.013H115.248C115.576 160.013 115.842 159.748 115.842 159.419V155.033C115.842 154.705 115.576 154.439 115.248 154.439Z" fill="#01BDF3" stroke="#263238" stroke-linecap="round" stroke-linejoin="round"/>
<path d="M66.747 159.031C67.7425 152.952 63.6214 147.217 57.5421 146.221C51.4629 145.226 45.7277 149.347 44.7322 155.426C43.7367 161.505 47.8579 167.241 53.9371 168.236C60.0163 169.232 65.7515 165.11 66.747 159.031Z" fill="#01BDF3" stroke="#263238" stroke-linecap="round" stroke-linejoin="round"/>
<path d="M58.0324 157.2C58.679 156.891 59.2278 156.409 59.6184 155.807C60.009 155.206 60.2263 154.509 60.2464 153.792C60.2464 151.602 58.2304 149.826 55.7404 149.826C53.2504 149.826 51.2344 151.626 51.2344 153.792C51.2532 154.509 51.4699 155.207 51.8607 155.808C52.2514 156.41 52.8009 156.892 53.4484 157.2C52.8013 157.511 52.2523 157.994 51.8617 158.596C51.4711 159.198 51.2541 159.897 51.2344 160.614C51.2344 162.804 53.2504 164.58 55.7404 164.58C58.2304 164.58 60.2464 162.78 60.2464 160.614C60.2253 159.897 60.0077 159.199 59.6173 158.597C59.2269 157.995 58.6787 157.512 58.0324 157.2Z" fill="white" stroke="#263238" stroke-linecap="round" stroke-linejoin="round"/>
<path d="M101.436 159.462C101.436 159.462 104.928 160.938 106.008 160.938C107.088 160.938 108.336 159.852 108.954 158.538C109.572 157.224 109.554 156.6 109.188 156.912L108.414 157.512C108.414 157.512 109.014 156.198 108.336 156.354C107.866 156.51 107.476 156.844 107.25 157.284C107.25 157.284 107.172 156.12 106.554 156.684C106.145 157.054 105.78 157.471 105.468 157.926C105.468 157.926 105.39 156.456 105 156.84C104.61 157.224 103.146 159.318 103.146 159.318L101.436 159.462Z" fill="white" stroke="#263238" stroke-linecap="round" stroke-linejoin="round"/>
<path d="M105.468 157.914C105.468 157.914 105.234 159.774 104.076 160.086L105.468 157.914Z" fill="white"/>
<path d="M105.468 157.914C105.468 157.914 105.234 159.774 104.076 160.086" stroke="#263238" stroke-linecap="round" stroke-linejoin="round"/>
<path d="M107.249 157.296C107.249 157.296 106.649 160.236 105.701 160.704L107.249 157.296Z" fill="white"/>
<path d="M107.249 157.296C107.249 157.296 106.649 160.236 105.701 160.704" stroke="#263238" stroke-linecap="round" stroke-linejoin="round"/>
<path d="M108.414 157.523C108.104 158.596 107.688 159.635 107.172 160.625L108.414 157.523Z" fill="white"/>
<path d="M108.414 157.523C108.104 158.596 107.688 159.635 107.172 160.625" stroke="#263238" stroke-linecap="round" stroke-linejoin="round"/>
<path d="M83.1957 121.332C82.5914 120.924 82.102 120.368 81.7742 119.717C81.4464 119.065 81.2913 118.341 81.3237 117.612C81.4313 116.448 81.7272 115.309 82.1997 114.24C82.1997 114.24 77.6097 111.24 76.3917 111.24C76.3917 111.24 77.0457 115.644 76.2057 117.42C75.9304 117.973 75.4815 118.42 74.9277 118.692C76.037 121.679 77.5403 124.504 79.3977 127.092C81.0837 129.21 81.9057 124.746 83.1957 121.332Z" fill="white" stroke="#263238" stroke-linecap="round" stroke-linejoin="round"/>
<path d="M69.0292 120.372C67.8843 120.568 66.8004 121.027 65.8633 121.713C64.9261 122.399 64.1613 123.294 63.6292 124.326C61.7812 127.89 53.7052 144.066 54.3952 145.032C58.3192 150.552 72.5932 154.524 74.0452 155.976C75.4968 157.494 77.09 158.871 78.8032 160.086C80.2552 161.01 83.1532 160.614 83.6812 160.35C84.2092 160.086 84.6052 158.898 83.6812 158.898C83.3282 158.903 82.9843 158.786 82.7069 158.568C82.4295 158.349 82.2355 158.042 82.1572 157.698C82.0252 157.17 83.6092 158.226 84.4012 157.83C85.1932 157.434 82.6312 155.988 81.8392 155.328C81.0472 154.668 80.3872 153.75 79.3312 153.75C78.2752 153.75 76.2892 153.75 76.2892 153.75C76.2892 153.75 71.4292 150.228 68.4892 147.606C66.2016 145.542 63.7062 143.72 61.0432 142.17L69.9532 127.512" fill="white"/>
<path d="M69.0292 120.372C67.8843 120.568 66.8004 121.027 65.8633 121.713C64.9261 122.399 64.1613 123.294 63.6292 124.326C61.7812 127.89 53.7052 144.066 54.3952 145.032C58.3192 150.552 72.5932 154.524 74.0452 155.976C75.4968 157.494 77.09 158.871 78.8032 160.086C80.2552 161.01 83.1532 160.614 83.6812 160.35C84.2092 160.086 84.6052 158.898 83.6812 158.898C83.3282 158.903 82.9843 158.786 82.7069 158.568C82.4295 158.349 82.2355 158.042 82.1572 157.698C82.0252 157.17 83.6092 158.226 84.4012 157.83C85.1932 157.434 82.6312 155.988 81.8392 155.328C81.0472 154.668 80.3872 153.75 79.3312 153.75C78.2752 153.75 76.2892 153.75 76.2892 153.75C76.2892 153.75 71.4292 150.228 68.4892 147.606C66.2016 145.542 63.7062 143.72 61.0432 142.17L69.9532 127.512" stroke="#263238" stroke-linecap="round" stroke-linejoin="round"/>
<path d="M81.8344 155.334C81.0424 154.674 80.3824 153.756 79.3264 153.756C78.2704 153.756 76.2844 153.756 76.2844 153.756C76.2844 153.756 71.4244 150.234 68.4844 147.612C66.1968 145.548 63.7015 143.726 61.0384 142.176L64.6024 136.308C62.7804 135.205 60.6961 134.61 58.5664 134.586C56.1664 139.59 54.0124 144.534 54.3664 145.056C58.2904 150.576 72.5644 154.548 74.0164 156C75.468 157.518 77.0612 158.894 78.7744 160.11C80.2264 161.034 83.1244 160.638 83.6524 160.374C84.1804 160.11 84.5764 158.922 83.6524 158.922C83.2994 158.927 82.9555 158.81 82.6781 158.592C82.4007 158.373 82.2067 158.066 82.1284 157.722C81.9964 157.194 83.5804 158.25 84.3724 157.854C85.1644 157.458 82.6264 156 81.8344 155.334Z" fill="white" stroke="#263238" stroke-linecap="round" stroke-linejoin="round"/>
<path d="M86.6637 104.778C86.1957 103.842 86.1957 103.092 86.3817 101.778C86.5677 100.464 85.4457 97.2783 85.4457 97.2783C84.2997 99.2583 80.9877 100.434 79.5237 100.878C77.9097 101.37 80.2677 102.486 80.0157 103.98C79.7637 105.474 76.5417 106.338 76.5417 106.338C76.5417 106.338 75.5997 104.4 74.2917 104.4C72.9837 104.4 72.0537 107.4 72.7977 108.99C72.9915 109.431 73.3292 109.792 73.7554 110.016C74.1816 110.239 74.6711 110.311 75.1437 110.22C75.1437 110.22 75.0537 113.034 76.8297 113.874C78.7247 114.779 80.7016 115.5 82.7337 116.028C83.8557 116.214 84.9777 115.656 85.4457 113.97C85.8117 112.271 86.0622 110.549 86.1957 108.816C86.9813 108.302 87.7042 107.698 88.3497 107.016C88.7997 106.368 87.1317 105.714 86.6637 104.778Z" fill="white" stroke="#263238" stroke-linecap="round" stroke-linejoin="round"/>
<path d="M84.8397 104.82C84.8397 105.336 84.6717 105.75 84.4677 105.75C84.2637 105.75 84.0957 105.336 84.0957 104.82C84.0957 104.304 84.2637 103.89 84.4677 103.89C84.6717 103.89 84.8397 104.304 84.8397 104.82Z" fill="#263238"/>
<path d="M83.2266 103.272C83.2266 103.272 84.2226 102.15 84.9666 102.402" stroke="#263238" stroke-linecap="round" stroke-linejoin="round"/>
<path d="M84.9655 110.964C84.5158 111.1 84.0386 111.116 83.5808 111.011C83.1231 110.905 82.7008 110.683 82.3555 110.364" stroke="#263238" stroke-linecap="round" stroke-linejoin="round"/>
<path d="M49.5782 227.844C49.5782 227.844 47.3402 232.332 47.4242 232.944C47.5082 233.556 51.9482 236.772 54.0242 237.9C56.1002 239.028 59.8562 239.208 59.5922 237.642C59.3282 236.076 55.7642 235.032 54.8942 232.68C54.4309 231.463 54.0303 230.223 53.6942 228.966C52.2438 228.987 50.8169 228.598 49.5782 227.844Z" fill="white" stroke="#263238" stroke-linecap="round" stroke-linejoin="round"/>
<path d="M59.604 237.666C58.0065 237.88 56.381 237.649 54.906 237C51.684 235.602 48.564 232.746 47.706 231.936C47.5536 232.259 47.4562 232.606 47.418 232.962C47.508 233.562 51.942 236.79 54.018 237.918C56.094 239.046 59.82 239.202 59.604 237.666Z" fill="white" stroke="#263238" stroke-linecap="round" stroke-linejoin="round"/>
</svg>
