<svg width="40" height="40" viewBox="0 0 40 40" fill="none" xmlns="http://www.w3.org/2000/svg">
<path d="M20.2162 18C20.0811 17.9865 19.9189 17.9865 19.7703 18C16.5541 17.8918 14 15.2537 14 12.0068C14 8.69222 16.6757 6 20 6C23.3108 6 26 8.69222 26 12.0068C25.9865 15.2537 23.4324 17.8918 20.2162 18Z" stroke="#014CC4" stroke-width="1.5" stroke-linecap="round" stroke-linejoin="round"/>
<path d="M12.6613 23.9101C9.1129 26.1647 9.1129 29.8388 12.6613 32.0794C16.6935 34.6402 23.3065 34.6402 27.3387 32.0794C30.8871 29.8249 30.8871 26.1508 27.3387 23.9101C23.3211 21.3633 16.7082 21.3633 12.6613 23.9101Z" stroke="#014CC4" stroke-width="1.5" stroke-linecap="round" stroke-linejoin="round"/>
</svg>
