<svg width="14" height="14" viewBox="0 0 14 14" fill="none" xmlns="http://www.w3.org/2000/svg">
<path d="M11.9577 6.5915V4.10651C11.9577 1.75568 11.4093 1.1665 9.20435 1.1665H4.79435C2.58935 1.1665 2.04102 1.75568 2.04102 4.10651V10.6748C2.04102 12.2265 2.89269 12.594 3.92519 11.4857L3.93101 11.4798C4.40934 10.9723 5.13851 11.0132 5.55268 11.5673L6.14185 12.3548" stroke="#80D280" stroke-width="1.5" stroke-linecap="round" stroke-linejoin="round"/>
<path d="M4.66602 4.0835H9.33268" stroke="#80D280" stroke-width="1.5" stroke-linecap="round" stroke-linejoin="round"/>
<path d="M5.25 6.4165H8.75" stroke="#80D280" stroke-width="1.5" stroke-linecap="round" stroke-linejoin="round"/>
<path d="M10.6237 8.61599L8.55875 10.681C8.47708 10.7627 8.40124 10.9143 8.38374 11.0252L8.27291 11.8127C8.23207 12.0985 8.43041 12.2968 8.71624 12.256L9.50375 12.1452C9.61458 12.1277 9.77208 12.0518 9.84791 11.9702L11.9129 9.90517C12.2688 9.54934 12.4379 9.13517 11.9129 8.61017C11.3938 8.09101 10.9796 8.26016 10.6237 8.61599Z" stroke="#80D280" stroke-width="1.5" stroke-miterlimit="10" stroke-linecap="round" stroke-linejoin="round"/>
<path d="M10.3242 8.91357C10.4992 9.54357 10.9892 10.0336 11.6192 10.2086" stroke="#80D280" stroke-width="1.5" stroke-miterlimit="10" stroke-linecap="round" stroke-linejoin="round"/>
</svg>
