<svg width="15" height="15" viewBox="0 0 15 15" fill="none" xmlns="http://www.w3.org/2000/svg">
<path d="M1.10633 10.8511C0.297891 11.6888 0.297891 13.034 1.10633 13.8718C1.91476 14.7095 3.21292 14.7095 4.02136 13.8718" stroke="#80D280" stroke-miterlimit="10" stroke-linecap="round" stroke-linejoin="round"/>
<path d="M1.10547 10.851L9.90496 1.73246C9.62512 1.44247 9.65622 1.00748 9.93607 0.717495C10.076 0.572501 10.2625 0.5 10.4413 0.5C10.6279 0.5 10.8067 0.572501 10.9466 0.717495L13.7917 3.66571C14.0715 3.9557 14.0715 4.42291 13.7917 4.7129C13.6517 4.85789 13.4652 4.93038 13.2864 4.93038C13.1076 4.93038 12.9521 4.89011 12.8122 4.74512L4.01272 13.8637" stroke="#80D280" stroke-miterlimit="10" stroke-linecap="round" stroke-linejoin="round"/>
<path d="M5.82422 5.96924H11.6465" stroke="#80D280" stroke-miterlimit="10" stroke-linecap="round" stroke-linejoin="round"/>
<path d="M13.287 12.4216C13.9555 12.4216 14.4996 11.8578 14.4996 11.165C14.4996 10.9233 14.4375 10.73 14.3753 10.5206L14.4452 10.7783C14.4219 10.6817 14.3908 10.585 14.3597 10.4642C14.3597 10.4642 13.4813 8.104 13.2481 8.104C13.0071 8.104 12.1832 10.5125 12.1832 10.5125C12.121 10.73 12.0821 10.9233 12.0821 11.165C12.0743 11.8578 12.6185 12.4216 13.287 12.4216ZM13.287 12.4216C13.528 12.4216 13.7612 12.3411 13.9555 12.2122" stroke="#80D280" stroke-miterlimit="10" stroke-linecap="round" stroke-linejoin="round"/>
</svg>
