<svg width="22" height="19" viewBox="0 0 22 19" fill="none" xmlns="http://www.w3.org/2000/svg">
<path d="M14.6824 9.25547C14.6824 11.2893 13.0146 12.9328 10.9506 12.9328C8.88661 12.9328 7.21875 11.2893 7.21875 9.25547C7.21875 7.22163 8.88661 5.57812 10.9506 5.57812C13.0146 5.57812 14.6824 7.22163 14.6824 9.25547Z" stroke="#808080" stroke-opacity="0.55" stroke-width="1.5" stroke-linecap="round" stroke-linejoin="round"/>
<path d="M10.95 17.75C14.6297 17.75 18.0593 15.6134 20.4464 11.9156C21.3845 10.4672 21.3845 8.03278 20.4464 6.58444C18.0593 2.88656 14.6297 0.75 10.95 0.75C7.27029 0.75 3.84075 2.88656 1.45363 6.58444C0.515457 8.03278 0.515457 10.4672 1.45363 11.9156C3.84075 15.6134 7.27029 17.75 10.95 17.75Z" stroke="#808080" stroke-opacity="0.55" stroke-width="1.5" stroke-linecap="round" stroke-linejoin="round"/>
</svg>
