<svg width="300" height="300" viewBox="0 0 300 300" fill="none" xmlns="http://www.w3.org/2000/svg">
<path d="M300 229.44H0V229.59H300V229.44Z" fill="#EBEBEB"/>
<path d="M142.2 202.68H26.3458C25.4382 202.678 24.5683 202.317 23.9271 201.674C23.2859 201.032 22.9258 200.162 22.9258 199.254V36.396C22.9337 35.4936 23.2973 34.6308 23.9376 33.9949C24.578 33.3591 25.4434 33.0015 26.3458 33H142.2C143.108 33 143.98 33.361 144.622 34.0035C145.265 34.646 145.626 35.5174 145.626 36.426V199.254C145.626 200.163 145.265 201.034 144.622 201.677C143.98 202.319 143.108 202.68 142.2 202.68ZM26.3458 33.12C25.478 33.1216 24.6463 33.4674 24.0332 34.0816C23.4201 34.6958 23.0758 35.5282 23.0758 36.396V199.254C23.0758 200.122 23.4201 200.954 24.0332 201.568C24.6463 202.183 25.478 202.528 26.3458 202.53H142.2C143.068 202.528 143.9 202.183 144.515 201.569C145.129 200.955 145.474 200.122 145.476 199.254V36.396C145.474 35.5276 145.129 34.6953 144.515 34.0813C143.9 33.4672 143.068 33.1216 142.2 33.12H26.3458Z" fill="#EBEBEB"/>
<path d="M271.985 202.68H156.125C155.217 202.678 154.347 202.317 153.704 201.675C153.062 201.033 152.701 200.162 152.699 199.254V36.396C152.709 35.4931 153.074 34.6302 153.715 33.9946C154.356 33.3589 155.222 33.0015 156.125 33H271.985C272.887 33.0031 273.75 33.3613 274.389 33.997C275.029 34.6327 275.391 35.4947 275.399 36.396V199.254C275.399 200.161 275.04 201.03 274.4 201.672C273.76 202.314 272.892 202.677 271.985 202.68ZM156.125 33.12C155.257 33.1216 154.425 33.4672 153.81 34.0813C153.196 34.6953 152.851 35.5276 152.849 36.396V199.254C152.851 200.122 153.196 200.955 153.81 201.569C154.425 202.183 155.257 202.528 156.125 202.53H271.985C272.854 202.528 273.686 202.183 274.3 201.569C274.914 200.955 275.26 200.122 275.261 199.254V36.396C275.26 35.5276 274.914 34.6953 274.3 34.0813C273.686 33.4672 272.854 33.1216 271.985 33.12H156.125Z" fill="#EBEBEB"/>
<path d="M269.94 239.094H254.34V239.244H269.94V239.094Z" fill="#EBEBEB"/>
<path d="M213.618 240.726H186.6V240.876H213.618V240.726Z" fill="#EBEBEB"/>
<path d="M253.74 233.526H217.266V233.676H253.74V233.526Z" fill="#EBEBEB"/>
<path d="M43.0146 234.534H31.4766V234.684H43.0146V234.534Z" fill="#EBEBEB"/>
<path d="M81.5334 234.534H48.3594V234.684H81.5334V234.534Z" fill="#EBEBEB"/>
<path d="M146.485 237.066H101.803V237.216H146.485V237.066Z" fill="#EBEBEB"/>
<path d="M227.153 226.368H231.953V137.538H227.153V226.368Z" fill="#F0F0F0"/>
<path d="M204.119 229.428H230.693V226.362H204.119V229.428Z" fill="#F0F0F0"/>
<path d="M227.16 137.532H202.848V226.362H227.16V137.532Z" fill="#F5F5F5"/>
<path d="M224.567 183.792H205.439V199.656H224.567V183.792Z" fill="#F0F0F0"/>
<path d="M224.567 204.552H205.439V220.416H224.567V204.552Z" fill="#F0F0F0"/>
<path d="M212.454 192.81H217.548C217.939 192.81 218.256 192.493 218.256 192.102V191.34C218.256 190.949 217.939 190.632 217.548 190.632H212.454C212.063 190.632 211.746 190.949 211.746 191.34V192.102C211.746 192.493 212.063 192.81 212.454 192.81Z" fill="#F5F5F5"/>
<path d="M212.454 213.57H217.548C217.939 213.57 218.256 213.253 218.256 212.862V212.1C218.256 211.709 217.939 211.392 217.548 211.392H212.454C212.063 211.392 211.746 211.709 211.746 212.1V212.862C211.746 213.253 212.063 213.57 212.454 213.57Z" fill="#F5F5F5"/>
<path d="M224.567 142.434H205.439V158.298H224.567V142.434Z" fill="#F0F0F0"/>
<path d="M224.567 163.026H205.439V178.89H224.567V163.026Z" fill="#F0F0F0"/>
<path d="M212.454 151.452H217.548C217.939 151.452 218.256 151.135 218.256 150.744V149.982C218.256 149.591 217.939 149.274 217.548 149.274H212.454C212.063 149.274 211.746 149.591 211.746 149.982V150.744C211.746 151.135 212.063 151.452 212.454 151.452Z" fill="#F5F5F5"/>
<path d="M212.454 172.05H217.548C217.939 172.05 218.256 171.733 218.256 171.342V170.58C218.256 170.189 217.939 169.872 217.548 169.872H212.454C212.063 169.872 211.746 170.189 211.746 170.58V171.342C211.746 171.733 212.063 172.05 212.454 172.05Z" fill="#F5F5F5"/>
<path d="M253.764 226.368H268.164V137.538H253.764V226.368Z" fill="#F0F0F0"/>
<path d="M230.712 229.428H266.682V226.362H230.712V229.428Z" fill="#F0F0F0"/>
<path d="M253.763 137.532H229.451V226.362H253.763V137.532Z" fill="#F5F5F5"/>
<path d="M251.173 183.792H232.045V199.656H251.173V183.792Z" fill="#F0F0F0"/>
<path d="M251.173 204.552H232.045V220.416H251.173V204.552Z" fill="#F0F0F0"/>
<path d="M239.057 192.81H244.151C244.542 192.81 244.859 192.493 244.859 192.102V191.34C244.859 190.949 244.542 190.632 244.151 190.632H239.057C238.666 190.632 238.349 190.949 238.349 191.34V192.102C238.349 192.493 238.666 192.81 239.057 192.81Z" fill="#F5F5F5"/>
<path d="M239.057 213.57H244.151C244.542 213.57 244.859 213.253 244.859 212.862V212.1C244.859 211.709 244.542 211.392 244.151 211.392H239.057C238.666 211.392 238.349 211.709 238.349 212.1V212.862C238.349 213.253 238.666 213.57 239.057 213.57Z" fill="#F5F5F5"/>
<path d="M251.173 142.434H232.045V158.298H251.173V142.434Z" fill="#F0F0F0"/>
<path d="M251.173 163.026H232.045V178.89H251.173V163.026Z" fill="#F0F0F0"/>
<path d="M239.057 151.452H244.151C244.542 151.452 244.859 151.135 244.859 150.744V149.982C244.859 149.591 244.542 149.274 244.151 149.274H239.057C238.666 149.274 238.349 149.591 238.349 149.982V150.744C238.349 151.135 238.666 151.452 239.057 151.452Z" fill="#F5F5F5"/>
<path d="M239.057 172.05H244.151C244.542 172.05 244.859 171.733 244.859 171.342V170.58C244.859 170.189 244.542 169.872 244.151 169.872H239.057C238.666 169.872 238.349 170.189 238.349 170.58V171.342C238.349 171.733 238.666 172.05 239.057 172.05Z" fill="#F5F5F5"/>
<path d="M175.578 118.992L256.404 118.992V48.0362L175.578 48.0362V118.992Z" fill="#E6E6E6"/>
<path d="M166.913 45.2764H261.635C261.848 45.2764 262.053 45.3611 262.204 45.5119C262.355 45.6626 262.439 45.8671 262.439 46.0804C262.438 46.2926 262.352 46.4955 262.202 46.645C262.051 46.7945 261.847 46.8784 261.635 46.8784H166.913C166.702 46.8768 166.5 46.7922 166.351 46.6429C166.201 46.4936 166.117 46.2915 166.115 46.0804C166.115 45.8682 166.199 45.6646 166.349 45.514C166.498 45.3634 166.701 45.278 166.913 45.2764Z" fill="#E6E6E6"/>
<path d="M172.153 118.992L254.809 118.992V48.0362L172.153 48.0362V118.992Z" fill="#F0F0F0"/>
<path d="M175.579 118.992H256.405V121.266H173.215L175.579 118.992Z" fill="#E6E6E6"/>
<path d="M166.434 118.992H249.09L246.726 121.266H164.07L166.434 118.992Z" fill="#F0F0F0"/>
<path d="M250.002 114.192V52.8359L176.952 52.8359V114.192H250.002Z" fill="#FAFAFA"/>
<path d="M233.418 114.192L205.236 52.8359H191.934L220.116 114.192H233.418Z" fill="white"/>
<path d="M217.261 114.192L189.079 52.8359H183.889L212.071 114.192H217.261Z" fill="white"/>
<path d="M177.559 114.192V52.8359H176.947V114.192H177.559Z" fill="#E6E6E6"/>
<g opacity="0.4">
<path d="M249.943 102.39H258.205V43.8357H249.943V102.39Z" fill="#F0F0F0"/>
<path d="M246.726 102.39H253.164V43.8357H246.726V102.39Z" fill="#E6E6E6"/>
<path d="M241.687 102.39H249.949V43.8357H241.687V102.39Z" fill="#F0F0F0"/>
<path d="M238.464 102.39H244.902V43.8357H238.464V102.39Z" fill="#E6E6E6"/>
<path d="M233.42 102.39H241.682V43.8357H233.42V102.39Z" fill="#F0F0F0"/>
</g>
<g opacity="0.4">
<path d="M180.023 102.39H184.787V43.8357H180.023V102.39Z" fill="#F0F0F0"/>
<path d="M178.169 102.39H181.877V43.8357H178.169V102.39Z" fill="#E6E6E6"/>
<path d="M175.259 102.39H180.023V43.8357H175.259V102.39Z" fill="#F0F0F0"/>
<path d="M173.411 102.39H177.119V43.8357H173.411V102.39Z" fill="#E6E6E6"/>
<path d="M170.496 102.39H175.26V43.8357H170.496V102.39Z" fill="#F0F0F0"/>
</g>
<path d="M98.5312 91.0196H109.967L108.617 62.0156H98.5312V91.0196Z" fill="#F5F5F5"/>
<path d="M116.431 92.5859L118.897 105.468H116.431L101.305 92.5859H116.431Z" fill="#F5F5F5"/>
<path d="M118.896 92.5859V105.468L103.77 92.5859H118.896Z" fill="#E6E6E6"/>
<path d="M57.1084 92.5859L59.5744 105.468H57.1084L41.9824 92.5859H57.1084Z" fill="#F5F5F5"/>
<path d="M59.5733 92.5859V105.468L44.4473 92.5859H59.5733Z" fill="#E6E6E6"/>
<path d="M130.003 91.0615H113.551V92.9215H130.003V91.0615Z" fill="#E6E6E6"/>
<path d="M31.7588 92.9219L113.551 92.9219V91.0619L31.7588 91.0619V92.9219Z" fill="#F5F5F5"/>
<path d="M81.7266 91.0201H106.279L109.315 55.8721H84.7626L81.7266 91.0201Z" fill="#E6E6E6"/>
<path d="M80.4531 91.0201H105.005L108.041 55.8721H83.4891L80.4531 91.0201Z" fill="#F0F0F0"/>
<path d="M102.947 87.1258L105.725 59.7598H85.5534L82.7754 87.1258H102.947Z" fill="white"/>
<path d="M70.7344 91.0199H78.6124L77.6824 71.0459H70.7344V91.0199Z" fill="#E0E0E0"/>
<path d="M59.166 91.0204H76.068L78.162 66.8164H61.254L59.166 91.0204Z" fill="#F0F0F0"/>
<path d="M58.2891 91.0204H75.1971L77.2851 66.8164H60.3771L58.2891 91.0204Z" fill="#F5F5F5"/>
<path d="M73.7767 88.338L75.6847 69.498H61.8007L59.8867 88.338H73.7767Z" fill="#E0E0E0"/>
<path d="M157.415 141.864C157.471 142.535 157.327 143.207 157.001 143.796C156.674 144.385 156.181 144.863 155.582 145.171C154.984 145.479 154.307 145.603 153.638 145.527C152.97 145.45 152.339 145.177 151.825 144.742C151.312 144.306 150.939 143.728 150.754 143.081C150.569 142.434 150.58 141.746 150.786 141.105C150.992 140.465 151.384 139.899 151.911 139.481C152.439 139.063 153.078 138.81 153.749 138.756C154.194 138.719 154.642 138.77 155.067 138.906C155.492 139.042 155.886 139.261 156.227 139.55C156.567 139.838 156.847 140.191 157.051 140.588C157.255 140.986 157.379 141.419 157.415 141.864Z" fill="#E0E0E0"/>
<path d="M163.734 143.64C163.79 144.311 163.645 144.983 163.319 145.572C162.993 146.16 162.499 146.639 161.9 146.947C161.302 147.255 160.626 147.379 159.957 147.302C159.288 147.226 158.657 146.953 158.143 146.517C157.63 146.082 157.257 145.504 157.072 144.857C156.887 144.21 156.899 143.522 157.105 142.881C157.311 142.241 157.702 141.675 158.23 141.257C158.757 140.839 159.397 140.586 160.068 140.532C160.966 140.459 161.856 140.745 162.543 141.328C163.231 141.91 163.659 142.742 163.734 143.64Z" fill="#E0E0E0"/>
<path d="M168.301 141.6C168.355 142.271 168.21 142.943 167.883 143.531C167.556 144.119 167.062 144.597 166.463 144.904C165.864 145.211 165.188 145.334 164.519 145.257C163.851 145.179 163.22 144.906 162.707 144.47C162.195 144.034 161.822 143.456 161.638 142.809C161.454 142.162 161.465 141.475 161.672 140.834C161.878 140.194 162.27 139.629 162.797 139.211C163.324 138.793 163.964 138.541 164.635 138.486C165.533 138.415 166.424 138.703 167.111 139.286C167.798 139.87 168.226 140.702 168.301 141.6Z" fill="#E0E0E0"/>
<path d="M173.117 142.872C173.171 143.541 173.025 144.211 172.697 144.797C172.37 145.383 171.877 145.859 171.28 146.165C170.682 146.471 170.007 146.593 169.341 146.515C168.674 146.438 168.045 146.165 167.533 145.73C167.022 145.296 166.65 144.719 166.466 144.074C166.282 143.429 166.293 142.743 166.499 142.104C166.704 141.465 167.094 140.901 167.619 140.483C168.145 140.066 168.782 139.813 169.451 139.758C169.896 139.721 170.345 139.772 170.77 139.909C171.196 140.045 171.59 140.265 171.93 140.554C172.271 140.843 172.551 141.197 172.755 141.595C172.958 141.992 173.082 142.426 173.117 142.872Z" fill="#E0E0E0"/>
<path d="M177.443 143.4C177.443 143.4 177.047 152.844 161.879 152.844C146.711 152.844 146.279 143.4 146.279 143.4H177.443Z" fill="#F0F0F0"/>
<path d="M35.9274 229.44H41.4414L41.4414 152.862H35.9274L35.9274 229.44Z" fill="#E6E6E6"/>
<path d="M34.4571 229.44H37.7031L37.7031 152.862H34.4571L34.4571 229.44Z" fill="#F0F0F0"/>
<path d="M111.725 152.862H33.4492V158.604H111.725V152.862Z" fill="#F0F0F0"/>
<path d="M185.855 229.44H191.369V152.862H185.855V229.44Z" fill="#E6E6E6"/>
<path d="M184.824 229.44H188.07V152.862H184.824V229.44Z" fill="#F0F0F0"/>
<path d="M192.354 152.862H114.078V158.604H192.354V152.862Z" fill="#E6E6E6"/>
<path d="M112.187 229.44H117.701L117.701 152.862H112.187L112.187 229.44Z" fill="#E6E6E6"/>
<path d="M110.719 229.44H113.965L113.965 152.862H110.719L110.719 229.44Z" fill="#F0F0F0"/>
<path d="M130.285 127.392H89.4188L82.1348 151.524H123.007L130.285 127.392Z" fill="#E6E6E6"/>
<path d="M123.007 151.524L122.845 152.862H81.9727L82.1347 151.524H123.007Z" fill="#E6E6E6"/>
<path d="M129.031 127.392H88.1589L80.8809 151.524H121.747L129.031 127.392Z" fill="#F0F0F0"/>
<path d="M120.948 150.426L127.56 128.496H88.9617L82.3438 150.426H120.948Z" fill="white"/>
<path d="M111.102 151.524L110.934 152.862H65.9277L66.0897 151.524H111.102Z" fill="#F0F0F0"/>
<path d="M150 256.536C214.249 256.536 266.334 253.495 266.334 249.744C266.334 245.993 214.249 242.952 150 242.952C85.7505 242.952 33.666 245.993 33.666 249.744C33.666 253.495 85.7505 256.536 150 256.536Z" fill="#F5F5F5"/>
<path d="M226.529 65.4898H157.475C155.107 65.5287 152.838 66.449 151.112 68.0711C149.385 69.6931 148.326 71.9003 148.139 74.2618L137.399 239.598C137.312 240.724 137.46 241.855 137.833 242.921C138.207 243.986 138.799 244.962 139.57 245.787C140.342 246.612 141.276 247.266 142.315 247.71C143.353 248.154 144.472 248.376 145.601 248.364H214.679C217.047 248.326 219.316 247.407 221.043 245.786C222.769 244.165 223.829 241.959 224.015 239.598L231.719 120.762C232.047 120.648 232.334 120.441 232.547 120.168C232.76 119.894 232.889 119.565 232.919 119.22L234.299 97.9558C234.324 97.6254 234.239 97.2962 234.06 97.018C233.88 96.7397 233.615 96.5276 233.303 96.4138L234.737 74.2618C234.825 73.1352 234.677 72.0027 234.303 70.9364C233.929 69.8702 233.337 68.8934 232.565 68.0683C231.793 67.2432 230.858 66.5878 229.819 66.1439C228.78 65.7 227.659 65.4772 226.529 65.4898Z" fill="#575F75"/>
<path d="M142.548 108.3H143.904C144.323 108.292 144.725 108.129 145.031 107.842C145.337 107.555 145.526 107.164 145.56 106.746L146.16 97.8656C146.175 97.6658 146.148 97.4651 146.081 97.2762C146.015 97.0873 145.909 96.9143 145.772 96.7681C145.635 96.622 145.469 96.506 145.285 96.4274C145.101 96.3488 144.902 96.3094 144.702 96.3116H143.352C142.932 96.3178 142.529 96.4805 142.223 96.768C141.917 97.0554 141.729 97.4468 141.696 97.8656L141.096 106.746C141.081 106.945 141.107 107.145 141.174 107.334C141.24 107.522 141.345 107.695 141.481 107.841C141.618 107.987 141.783 108.103 141.966 108.182C142.15 108.261 142.348 108.301 142.548 108.3Z" fill="#575F75"/>
<path d="M141.522 124.152H142.872C143.293 124.145 143.696 123.981 144.003 123.692C144.31 123.404 144.499 123.012 144.534 122.592L145.134 113.718C145.149 113.518 145.122 113.318 145.055 113.129C144.988 112.94 144.883 112.767 144.746 112.621C144.609 112.475 144.443 112.359 144.259 112.28C144.075 112.201 143.876 112.162 143.676 112.164H142.326C141.905 112.17 141.502 112.333 141.194 112.62C140.887 112.907 140.698 113.299 140.664 113.718L140.064 122.592C140.047 122.793 140.072 122.994 140.138 123.184C140.204 123.374 140.309 123.549 140.447 123.696C140.584 123.843 140.751 123.959 140.936 124.038C141.121 124.116 141.32 124.155 141.522 124.152Z" fill="#575F75"/>
<path d="M211.007 248.364H141.953C140.824 248.376 139.705 248.154 138.666 247.71C137.628 247.266 136.693 246.611 135.922 245.787C135.15 244.962 134.559 243.986 134.185 242.921C133.811 241.855 133.664 240.723 133.751 239.598L144.467 74.2617C144.655 71.8997 145.716 69.6924 147.443 68.0705C149.17 66.4486 151.44 65.5285 153.809 65.4897H222.857C223.986 65.478 225.106 65.7014 226.144 66.1457C227.183 66.59 228.117 67.2455 228.889 68.0705C229.66 68.8955 230.251 69.8719 230.625 70.9378C230.999 72.0037 231.146 73.1356 231.059 74.2617L220.343 239.598C220.157 241.959 219.097 244.165 217.37 245.786C215.644 247.407 213.375 248.326 211.007 248.364Z" fill="#263238"/>
<path opacity="0.2" d="M181.173 241.333C183.592 238.992 183.775 235.256 181.58 232.989C179.386 230.723 175.647 230.784 173.228 233.125C170.809 235.467 170.626 239.203 172.821 241.469C175.015 243.736 178.754 243.675 181.173 241.333Z" fill="white"/>
<path d="M217.247 226.902H138.749C138.482 226.901 138.217 226.846 137.972 226.74C137.727 226.633 137.506 226.478 137.323 226.283C137.141 226.088 137 225.857 136.91 225.605C136.819 225.354 136.782 225.086 136.799 224.82L145.985 83.0275C146.026 82.5378 146.248 82.0811 146.61 81.7478C146.971 81.4145 147.444 81.2289 147.935 81.2275H226.439C226.706 81.2278 226.971 81.2829 227.216 81.3893C227.461 81.4957 227.682 81.6513 227.865 81.8464C228.047 82.0415 228.188 82.272 228.278 82.5237C228.369 82.7753 228.406 83.0428 228.389 83.3095L219.197 225.072C219.165 225.567 218.946 226.032 218.584 226.372C218.221 226.712 217.744 226.901 217.247 226.902Z" fill="white"/>
<path opacity="0.2" d="M195.346 171.015C204.126 162.515 204.787 148.954 196.822 140.725C188.856 132.497 175.281 132.717 166.5 141.218C157.72 149.718 157.059 163.279 165.024 171.507C172.99 179.735 186.565 179.515 195.346 171.015Z" fill="#014CC4"/>
<path opacity="0.2" d="M178.799 189.156C160.577 189.156 146.711 174.33 147.893 156.108C149.075 137.886 164.855 123.06 183.083 123.06C201.311 123.06 215.171 137.886 213.989 156.108C212.807 174.33 197.003 189.156 178.799 189.156ZM182.999 123.66C165.107 123.66 149.609 138.216 148.451 156.108C147.293 174 160.901 188.556 178.793 188.556C196.685 188.556 212.183 174 213.347 156.108C214.511 138.216 200.915 123.66 182.999 123.66Z" fill="#014CC4"/>
<path d="M175.799 166.493L173.999 163.019C170.099 155.453 161.117 148.691 157.979 146.723L160.943 142.289C164.657 144.617 172.079 150.383 176.735 157.235C185.345 147.035 197.513 136.529 213.803 125.195L216.581 129.395C199.181 141.503 186.659 152.573 178.331 163.241L175.799 166.493Z" fill="#014CC4"/>
<path opacity="0.2" d="M174.949 74.9283C175.927 73.981 175.999 72.4681 175.11 71.5491C174.22 70.6301 172.705 70.653 171.727 71.6002C170.748 72.5475 170.676 74.0604 171.566 74.9795C172.456 75.8985 173.97 75.8756 174.949 74.9283Z" fill="white"/>
<path opacity="0.2" d="M181.744 70.8722H201.598C201.907 70.8686 202.213 70.9296 202.496 71.0512C202.78 71.1728 203.035 71.3523 203.245 71.5783C203.455 71.8043 203.616 72.0717 203.717 72.3634C203.817 72.6551 203.856 72.9647 203.83 73.2722C203.781 73.9172 203.493 74.5205 203.022 74.9644C202.552 75.4083 201.933 75.6607 201.286 75.6722H181.438C181.13 75.6748 180.824 75.6133 180.54 75.4914C180.257 75.3696 180.002 75.1901 179.791 74.9644C179.581 74.7387 179.42 74.4718 179.318 74.1805C179.216 73.8891 179.176 73.5799 179.2 73.2722C179.249 72.6273 179.537 72.0239 180.008 71.58C180.478 71.1362 181.097 70.8838 181.744 70.8722Z" fill="white"/>
<path d="M107.844 115.2C106.83 116.238 105.744 117.384 104.742 118.524C103.74 119.664 102.738 120.834 101.796 122.034C100.854 123.234 99.9963 124.434 99.1083 125.7L98.5083 126.642L97.9083 127.596C97.7103 127.914 97.5303 128.238 97.3563 128.568L96.8763 129.45C96.6806 129.954 96.5692 130.487 96.5463 131.028C96.4983 131.723 96.4983 132.421 96.5463 133.116C96.664 134.616 96.8643 136.108 97.1463 137.586C97.4103 139.098 97.7463 140.616 98.1003 142.128C98.4543 143.64 98.8443 145.17 99.2403 146.658L97.0203 147.492C95.6562 144.557 94.513 141.525 93.6003 138.42C93.1369 136.82 92.7821 135.19 92.5383 133.542C92.417 132.663 92.3549 131.777 92.3523 130.89C92.3382 129.845 92.5151 128.806 92.8743 127.824C93.0123 127.488 93.0843 127.356 93.1803 127.152L93.4563 126.582C93.6363 126.204 93.8223 125.826 94.0563 125.46L94.6563 124.356L95.2923 123.282C96.1398 121.867 97.0632 120.499 98.0583 119.184C99.0423 117.87 100.062 116.592 101.136 115.356C102.21 114.12 103.296 112.956 104.544 111.756L107.844 115.2Z" fill="#B55B52"/>
<path d="M108.102 108C104.85 108.144 101.76 113.544 101.76 113.544L106.056 122.31C106.056 122.31 111.876 117.462 111.948 112.71C111.996 109.596 111.3 107.85 108.102 108Z" fill="#80D280"/>
<path opacity="0.7" d="M108.102 108C104.85 108.144 101.76 113.544 101.76 113.544L106.056 122.31C106.056 122.31 111.876 117.462 111.948 112.71C111.996 109.596 111.3 107.85 108.102 108Z" fill="white"/>
<path opacity="0.2" d="M108.876 114.3C107.928 115.734 107.472 119.454 107.328 121.11C108.76 119.718 109.973 118.118 110.928 116.364C110.286 114.762 109.5 113.358 108.876 114.3Z" fill="black"/>
<path d="M98.5979 145.746L102.552 146.946L99.9179 149.61C99.9179 149.61 97.0679 148.728 96.6719 146.79L98.5979 145.746Z" fill="#B55B52"/>
<path d="M104.946 149.964L104.28 152.514L99.918 149.586L102.552 146.922L104.946 149.964Z" fill="#B55B52"/>
<path d="M130.963 97.5904C130.837 97.9444 130.927 98.3044 131.161 98.3884C131.395 98.4724 131.683 98.2624 131.803 97.9084C131.923 97.5544 131.839 97.1884 131.605 97.1044C131.371 97.0204 131.089 97.2304 130.963 97.5904Z" fill="#263238"/>
<path d="M131.496 97.0859L132.438 97.1639C132.438 97.1639 131.766 97.6619 131.496 97.0859Z" fill="#263238"/>
<path d="M131.141 98.0459C131.177 98.9793 131.338 99.9037 131.621 100.794C131.392 100.854 131.153 100.863 130.92 100.822C130.687 100.781 130.466 100.689 130.271 100.554L131.141 98.0459Z" fill="#A02724"/>
<path d="M132.126 96.2045C132.083 96.1985 132.043 96.1799 132.011 96.1511C131.979 96.1222 131.956 96.0844 131.946 96.0425C131.88 95.7712 131.754 95.5185 131.576 95.3034C131.398 95.0882 131.174 94.9162 130.92 94.8005C130.865 94.7802 130.821 94.7392 130.796 94.6865C130.772 94.6337 130.769 94.5734 130.788 94.5185C130.797 94.4909 130.812 94.4656 130.832 94.4439C130.851 94.4223 130.875 94.4048 130.901 94.3924C130.927 94.3801 130.956 94.3732 130.985 94.3722C131.014 94.3712 131.043 94.376 131.07 94.3865C131.397 94.5283 131.685 94.7451 131.912 95.0193C132.14 95.2934 132.299 95.6172 132.378 95.9645C132.385 95.9928 132.387 96.0223 132.382 96.0513C132.378 96.0802 132.368 96.1081 132.353 96.1331C132.338 96.1582 132.318 96.1801 132.295 96.1975C132.271 96.2149 132.244 96.2274 132.216 96.2345L132.126 96.2045Z" fill="#263238"/>
<path d="M118.638 99.0957C118.722 101.934 118.434 107.04 116.238 108.486C116.238 108.486 116.532 111.402 121.638 112.392C127.248 113.478 124.776 110.142 124.776 110.142C121.836 108.822 122.286 106.578 123.168 104.562L118.638 99.0957Z" fill="#B55B52"/>
<path d="M135.312 118.518C135.816 119.892 136.392 121.38 137.004 122.79C137.616 124.2 138.204 125.628 138.918 126.99C139.632 128.352 140.328 129.72 141.084 131.046C141.474 131.7 141.864 132.354 142.284 132.978C142.488 133.302 142.698 133.614 142.92 133.908L143.244 134.364L143.406 134.598L143.49 134.712L143.544 134.772C143.934 135.215 144.382 135.605 144.876 135.93C145.471 136.336 146.087 136.708 146.724 137.046C148.038 137.754 149.448 138.396 150.882 139.002C152.316 139.608 153.78 140.202 155.262 140.724C156.744 141.246 158.262 141.798 159.72 142.308L159.162 144.618C155.946 144.08 152.77 143.332 149.652 142.38C148.056 141.893 146.489 141.314 144.96 140.646C144.158 140.29 143.377 139.889 142.62 139.446C141.742 138.945 140.946 138.311 140.262 137.568L140.118 137.406L140.016 137.28L139.818 137.034L139.422 136.53C139.152 136.2 138.894 135.864 138.654 135.522C138.144 134.844 137.676 134.148 137.214 133.446C136.303 132.053 135.464 130.615 134.7 129.138C133.938 127.668 133.218 126.186 132.558 124.674C131.898 123.162 131.304 121.674 130.758 120.018L135.312 118.518Z" fill="#B55B52"/>
<path d="M158.928 142.296L162.468 140.928L162.294 145.014C162.294 145.014 159.426 145.776 158.094 144.33L158.928 142.296Z" fill="#B55B52"/>
<path d="M165.139 142.332L166.351 144.942L162.295 145.014L162.469 140.928L165.139 142.332Z" fill="#B55B52"/>
<path d="M106.428 244.734L111.114 245.082L112.506 234.324L107.82 233.976L106.428 244.734Z" fill="#B55B52"/>
<path d="M69.3125 220.398L72.3725 224.034L81.4565 218.196L78.3965 214.56L69.3125 220.398Z" fill="#B55B52"/>
<path d="M73.8004 223.566L71.3344 218.826C71.2951 218.744 71.227 218.679 71.1429 218.643C71.0589 218.608 70.9647 218.605 70.8784 218.634L66.9604 219.99C66.8621 220.03 66.7732 220.09 66.6998 220.166C66.6263 220.242 66.5698 220.334 66.5341 220.433C66.4984 220.533 66.4842 220.639 66.4925 220.745C66.5009 220.851 66.5315 220.953 66.5824 221.046C67.4704 222.684 67.9804 223.446 69.0604 225.516C69.7324 226.794 70.5784 228.738 71.4964 230.508C72.4144 232.278 74.1664 231.492 73.9384 230.67C72.9064 227.004 73.5904 225.99 73.9384 224.4C73.9878 224.115 73.9392 223.821 73.8004 223.566Z" fill="#263238"/>
<path d="M111.408 244.416H106.14C106.049 244.415 105.961 244.446 105.892 244.505C105.822 244.563 105.776 244.645 105.762 244.734L105.054 248.898C105.039 249.002 105.047 249.108 105.077 249.208C105.107 249.309 105.158 249.402 105.227 249.481C105.296 249.56 105.381 249.623 105.476 249.666C105.572 249.71 105.675 249.732 105.78 249.732C107.622 249.702 108.504 249.594 110.82 249.594C112.248 249.594 115.188 249.744 117.156 249.744C119.124 249.744 119.28 247.8 118.464 247.62C114.81 246.834 113.394 245.742 112.182 244.704C111.968 244.516 111.693 244.414 111.408 244.416Z" fill="#263238"/>
<path opacity="0.2" d="M112.506 234.324L111.732 240.306L107.064 239.838L107.82 233.982L112.506 234.324Z" fill="black"/>
<path opacity="0.2" d="M78.3955 214.56L81.4555 218.196L77.6935 220.614L74.5195 217.05L78.3955 214.56Z" fill="black"/>
<path d="M106.801 136.53L125.593 140.172C134.473 114.03 132.349 113.172 132.349 113.172C130.968 112.426 129.544 111.765 128.083 111.192L127.825 111.096C126.625 110.658 126.373 110.592 124.765 110.124C121.993 109.47 119.419 108.924 116.233 108.474L115.633 108.39C115.033 108.318 114.481 108.258 113.929 108.204C113.557 108.162 113.185 108.138 112.831 108.114L111.631 108.048C109.579 107.946 108.109 107.976 108.109 107.976C109.141 124.302 108.355 129 106.801 136.53Z" fill="#80D280"/>
<path opacity="0.7" d="M106.801 136.53L125.593 140.172C134.473 114.03 132.349 113.172 132.349 113.172C130.968 112.426 129.544 111.765 128.083 111.192L127.825 111.096C126.625 110.658 126.373 110.592 124.765 110.124C121.993 109.47 119.419 108.924 116.233 108.474L115.633 108.39C115.033 108.318 114.481 108.258 113.929 108.204C113.557 108.162 113.185 108.138 112.831 108.114L111.631 108.048C109.579 107.946 108.109 107.976 108.109 107.976C109.141 124.302 108.355 129 106.801 136.53Z" fill="white"/>
<path opacity="0.2" d="M129.649 119.274L127.951 118.998C127.951 121.236 128.803 125.076 129.631 127.518C130.333 125.118 130.879 123.144 131.293 121.482L129.649 119.274Z" fill="black"/>
<path d="M131.695 112.854C134.473 113.742 136.495 119.238 137.251 121.608L131.851 127.95C131.851 127.95 126.319 120 127.201 117.534C128.065 114.966 130.351 112.416 131.695 112.854Z" fill="#80D280"/>
<path opacity="0.7" d="M131.695 112.854C134.473 113.742 136.495 119.238 137.251 121.608L131.851 127.95C131.851 127.95 126.319 120 127.201 117.534C128.065 114.966 130.351 112.416 131.695 112.854Z" fill="white"/>
<path d="M133.494 92.5619C132.936 94.1999 130.494 94.8539 128.064 94.0319C125.634 93.2099 124.098 91.1999 124.656 89.5619C125.214 87.9239 127.656 87.2699 130.056 88.0979C132.456 88.9259 134.046 90.9239 133.494 92.5619Z" fill="#263238"/>
<path d="M119.401 92.1123C118.153 96.5763 117.529 98.4363 118.957 101.508C121.105 106.134 126.853 106.86 129.409 102.894C131.707 99.3303 133.363 92.6283 129.691 89.2743C128.916 88.5254 127.959 87.9915 126.915 87.7253C125.87 87.4591 124.775 87.4697 123.736 87.7563C122.697 88.0428 121.751 88.5953 120.99 89.3592C120.23 90.1231 119.682 91.072 119.401 92.1123Z" fill="#B55B52"/>
<path d="M126.373 86.898C124.573 87.93 120.751 81.468 116.005 86.898C112.609 90.792 114.775 96.498 114.775 96.498C114.775 96.498 112.069 91.74 109.909 94.062C107.089 97.062 110.005 107.796 119.305 107.058C128.605 106.32 127.705 98.772 127.705 98.772C127.705 98.772 132.061 94.344 131.845 90.372C131.683 87.396 129.373 85.2 126.373 86.898Z" fill="#263238"/>
<path d="M127.501 95.9459C127.269 96.7766 127.298 97.6585 127.585 98.4719C127.969 99.6179 128.851 99.6239 129.319 98.8319C129.787 98.0399 130.045 96.6659 129.379 95.7419C128.713 94.8179 127.801 95.0279 127.501 95.9459Z" fill="#B55B52"/>
<path d="M120.6 139.2C120.6 139.2 118.596 146.148 116.022 155.316C114.312 161.424 112.344 168.516 110.55 175.194C109.524 179.016 108.558 182.7 107.724 185.994C103.008 204.624 79.4876 220.638 79.4876 220.638L74.9336 215.628C74.9336 215.628 90.7376 202.32 95.3336 184.938C104.616 149.652 99.3956 143.7 106.794 136.53L120.6 139.2Z" fill="#263238"/>
<path opacity="0.2" d="M118.571 145.428C117.875 148.122 116.999 151.524 116.033 155.328C114.323 161.436 112.355 168.528 110.561 175.206C109.793 166.686 109.361 151.02 115.631 146.148C116.867 145.2 117.845 145.002 118.571 145.428Z" fill="black"/>
<path d="M79.8775 221.358L74.1895 215.1L75.9115 213.372L82.8894 219.948L79.8775 221.358Z" fill="#80D280"/>
<path opacity="0.7" d="M79.8775 221.358L74.1895 215.1L75.9115 213.372L82.8894 219.948L79.8775 221.358Z" fill="white"/>
<path d="M74.6593 226.11C74.6021 226.109 74.5454 226.099 74.4913 226.08C73.9333 225.876 73.5793 224.808 73.4173 224.19C73.412 224.169 73.4132 224.147 73.4207 224.127C73.4282 224.106 73.4416 224.089 73.4593 224.076C73.4767 224.063 73.4977 224.057 73.5193 224.057C73.5408 224.057 73.5618 224.063 73.5793 224.076C73.7473 224.172 75.2233 225.036 75.2533 225.642C75.2582 225.708 75.2453 225.774 75.2157 225.833C75.1861 225.893 75.141 225.943 75.0853 225.978C74.9627 226.07 74.8122 226.116 74.6593 226.11ZM73.7053 224.4C73.9513 225.21 74.2633 225.756 74.5693 225.864C74.6347 225.884 74.7041 225.888 74.7712 225.874C74.8384 225.861 74.901 225.83 74.9533 225.786C75.0313 225.732 75.0373 225.678 75.0313 225.642C75.0013 225.33 74.2873 224.766 73.7053 224.4Z" fill="#FF9433"/>
<path d="M125.293 140.172C125.293 140.172 126.493 177.264 123.841 191.238C121.117 205.8 112.801 238.8 112.801 238.8L106.045 237.93C106.045 237.93 110.317 204.534 112.135 190.098C114.109 174.354 111.535 137.484 111.535 137.484L125.293 140.172Z" fill="#263238"/>
<path d="M114.253 239.214L104.623 237.972L104.737 235.68L115.219 236.136L114.253 239.214Z" fill="#80D280"/>
<path opacity="0.7" d="M114.253 239.214L104.623 237.972L104.737 235.68L115.219 236.136L114.253 239.214Z" fill="white"/>
<path d="M74.8862 224.658C74.3877 224.634 73.9014 224.497 73.4642 224.256C73.4478 224.246 73.4342 224.232 73.4248 224.215C73.4154 224.198 73.4103 224.179 73.4102 224.16C73.4128 224.141 73.4195 224.122 73.4299 224.106C73.4402 224.089 73.4539 224.075 73.4702 224.064C73.5242 224.064 74.6702 223.434 75.3302 223.68C75.4129 223.71 75.488 223.758 75.5502 223.82C75.6124 223.882 75.6602 223.957 75.6902 224.04C75.7296 224.12 75.741 224.211 75.7225 224.298C75.704 224.385 75.6566 224.463 75.5882 224.52C75.375 224.64 75.1289 224.689 74.8862 224.658ZM73.7642 224.172C74.2862 224.412 75.1982 224.544 75.4502 224.346C75.4922 224.31 75.5342 224.256 75.4502 224.118C75.4325 224.065 75.4027 224.017 75.3631 223.977C75.3235 223.938 75.2753 223.908 75.2222 223.89C74.7188 223.834 74.2102 223.932 73.7642 224.172Z" fill="#FF9433"/>
<path d="M113.149 245.232C112.655 245.222 112.163 245.166 111.679 245.064C111.656 245.062 111.635 245.052 111.618 245.035C111.602 245.019 111.592 244.997 111.589 244.974C111.586 244.952 111.59 244.928 111.6 244.908C111.611 244.887 111.628 244.871 111.649 244.86C111.865 244.746 113.761 243.792 114.325 244.11C114.379 244.14 114.424 244.184 114.456 244.236C114.487 244.289 114.504 244.349 114.505 244.41C114.517 244.51 114.503 244.612 114.465 244.705C114.428 244.798 114.367 244.881 114.289 244.944C113.952 245.165 113.551 245.267 113.149 245.232ZM112.051 244.908C113.083 245.082 113.851 245.034 114.145 244.782C114.196 244.738 114.235 244.682 114.259 244.62C114.283 244.557 114.291 244.489 114.283 244.422C114.285 244.398 114.28 244.374 114.268 244.353C114.256 244.331 114.239 244.314 114.217 244.302C113.911 244.134 112.831 244.536 112.051 244.908Z" fill="#FF9433"/>
<path d="M111.702 245.07C111.681 245.076 111.658 245.076 111.636 245.07C111.62 245.058 111.607 245.043 111.599 245.025C111.59 245.007 111.587 244.988 111.588 244.968C111.588 244.884 111.822 242.856 112.956 242.976C113.256 243.006 113.346 243.156 113.364 243.282C113.448 243.81 112.314 244.83 111.744 245.082L111.702 245.07ZM112.866 243.168C112.194 243.168 111.924 244.278 111.84 244.758C112.44 244.41 113.196 243.612 113.148 243.294C113.148 243.294 113.148 243.192 112.932 243.174L112.866 243.168Z" fill="#FF9433"/>
<path d="M106.681 135.384L105.559 136.89C105.475 137.01 105.607 137.172 105.823 137.214L125.533 141.03C125.701 141.03 125.857 141.03 125.881 140.904L126.331 139.26C126.331 139.152 126.229 139.02 126.043 138.984L107.011 135.3C106.953 135.285 106.893 135.284 106.835 135.299C106.777 135.314 106.724 135.343 106.681 135.384Z" fill="#FF9433"/>
<path d="M108.888 138L108.378 137.898C108.276 137.898 108.21 137.814 108.228 137.754L108.828 135.624C108.828 135.564 108.948 135.528 109.044 135.546L109.554 135.648C109.656 135.648 109.728 135.732 109.71 135.792L109.11 137.922C109.086 138 108.99 138 108.888 138Z" fill="#263238"/>
<path d="M121.759 140.514L121.249 140.418C121.147 140.418 121.081 140.328 121.099 140.268L121.699 138.144C121.699 138.078 121.813 138.042 121.915 138.066L122.425 138.162C122.521 138.162 122.593 138.252 122.575 138.312L121.975 140.436C121.957 140.502 121.861 140.538 121.759 140.514Z" fill="#263238"/>
</svg>
