<svg width="15" height="15" viewBox="0 0 15 15" fill="none" xmlns="http://www.w3.org/2000/svg">
<path d="M10.8989 3.04545H13.1156C13.8778 3.04545 14.5 3.79412 14.5 4.71123V12.8342C14.5 13.7513 13.8778 14.5 13.1156 14.5H1.88444C1.12222 14.5 0.5 13.7513 0.5 12.8342V4.71123C0.5 3.79412 1.12222 3.04545 1.88444 3.04545H4.10111V2.23128C4.10111 1.27674 4.75444 0.5 5.54 0.5H9.45222C10.2456 0.5 10.8911 1.28609 10.8911 2.23128V3.04545H10.8989Z" stroke="#80D280" stroke-miterlimit="10" stroke-linecap="round" stroke-linejoin="round"/>
<path d="M9.56168 3.05472H5.43945V2.62423C5.43945 2.24055 5.7039 1.92236 6.02279 1.92236H8.97056C9.28945 1.92236 9.5539 2.24055 9.5539 2.62423V3.05472H9.56168Z" stroke="#80D280" stroke-miterlimit="10" stroke-linecap="round" stroke-linejoin="round"/>
<path d="M8.58978 10.0082V10.944C8.58978 11.309 8.34089 11.6085 8.03756 11.6085H6.95645C6.65311 11.6085 6.40422 11.309 6.40422 10.944V10.0082H5.62644C5.32311 10.0082 5.07422 9.70872 5.07422 9.34375V8.05231C5.07422 7.68733 5.32311 7.38786 5.62644 7.38786H6.40422V6.45204C6.40422 6.08706 6.65311 5.7876 6.95645 5.7876H8.03756C8.34089 5.7876 8.58978 6.08706 8.58978 6.45204V7.38786H9.36756C9.67089 7.38786 9.91978 7.68733 9.91978 8.05231V9.34375C9.91978 9.70872 9.67089 10.0082 9.36756 10.0082H8.58978Z" stroke="#80D280" stroke-miterlimit="10" stroke-linecap="round" stroke-linejoin="round"/>
</svg>
