<svg width="19" height="19" viewBox="0 0 19 19" fill="none" xmlns="http://www.w3.org/2000/svg">
<mask id="mask0_779_8130" style="mask-type:alpha" maskUnits="userSpaceOnUse" x="0" y="0" width="19" height="19">
<rect width="19" height="19" fill="#D9D9D9"/>
</mask>
<g mask="url(#mask0_779_8130)">
<path d="M1.58398 19.0002V15.8335H17.4173V19.0002H1.58398ZM4.75065 12.6668H5.85898L12.034 6.51162L10.9059 5.3835L4.75065 11.5585V12.6668ZM3.16732 14.2502V10.8856L12.034 2.0387C12.1791 1.89357 12.3474 1.78141 12.5387 1.70225C12.73 1.62308 12.9312 1.5835 13.1423 1.5835C13.3534 1.5835 13.5579 1.62308 13.7559 1.70225C13.9538 1.78141 14.1319 1.90016 14.2902 2.0585L15.3788 3.16683C15.5371 3.31197 15.6526 3.4835 15.7251 3.68141C15.7977 3.87933 15.834 4.08384 15.834 4.29495C15.834 4.49287 15.7977 4.68749 15.7251 4.87881C15.6526 5.07013 15.5371 5.24495 15.3788 5.40329L6.5319 14.2502H3.16732Z" fill="#999999"/>
</g>
</svg>
