<svg width="35" height="35" viewBox="0 0 35 35" fill="none" xmlns="http://www.w3.org/2000/svg">
<path d="M33.4765 19.0132L33.012 22.242C32.1995 27.8878 31.7933 30.7107 29.835 32.397C27.8765 34.0833 25.0043 34.0833 19.2602 34.0833H15.5732C9.82895 34.0833 6.95681 34.0833 4.99838 32.397C3.03993 30.7107 2.63374 27.8878 1.82139 22.242L1.35678 19.0132C0.724378 14.618 0.408178 12.4205 1.30895 10.5416C2.20971 8.66267 4.12698 7.52057 7.96151 5.23635L10.2696 3.86145C13.7517 1.78715 15.4928 0.75 17.4167 0.75C19.3405 0.75 21.0817 1.78715 24.5637 3.86145L26.8718 5.23635C30.7063 7.52057 32.6237 8.66267 33.5243 10.5416" fill="#80D280"/>
<path d="M33.4765 19.0132L33.012 22.242C32.1995 27.8878 31.7933 30.7107 29.835 32.397C27.8765 34.0833 25.0043 34.0833 19.2602 34.0833H15.5732C9.82895 34.0833 6.95681 34.0833 4.99838 32.397C3.03993 30.7107 2.63374 27.8878 1.82139 22.242L1.35678 19.0132C0.724378 14.618 0.408178 12.4205 1.30895 10.5416C2.20971 8.66267 4.12698 7.52057 7.96151 5.23635L10.2696 3.86145C13.7517 1.78715 15.4928 0.75 17.4167 0.75C19.3405 0.75 21.0817 1.78715 24.5637 3.86145L26.8718 5.23635C30.7063 7.52057 32.6237 8.66267 33.5243 10.5416C33.8273 12.3873 33.7387 14.1344 33.4765 19.0132Z" stroke="#014CC4" stroke-width="1.5" stroke-linecap="round"/>
</svg>
