<svg width="25" height="25" viewBox="0 0 25 25" fill="none" xmlns="http://www.w3.org/2000/svg">
<path d="M8.62514 23.7955C7.83798 24.2376 6.94408 24.5001 5.98347 24.5001C2.95489 24.5001 0.5 21.9578 0.5 18.8214V12.4932H9.17216" stroke="#014CC4" stroke-miterlimit="10" stroke-linecap="round" stroke-linejoin="round"/>
<path d="M9.17216 12.4932H0.5V6.17879C0.5 3.04233 2.95489 0.5 5.98347 0.5C7.4911 0.5 8.86529 1.13559 9.85258 2.15805C10.8399 3.1805 11.4536 4.60366 11.4536 6.16498V9.63304" stroke="#014CC4" stroke-miterlimit="10" stroke-linecap="round" stroke-linejoin="round"/>
<path d="M2.51447 14.469C2.79429 14.469 3.02114 14.234 3.02114 13.944C3.02114 13.654 2.79429 13.4189 2.51447 13.4189C2.23464 13.4189 2.00781 13.654 2.00781 13.944C2.00781 14.234 2.23464 14.469 2.51447 14.469Z" fill="#014CC4"/>
<path d="M5.95587 14.469C6.2357 14.469 6.46255 14.234 6.46255 13.944C6.46255 13.654 6.2357 13.4189 5.95587 13.4189C5.67605 13.4189 5.44922 13.654 5.44922 13.944C5.44922 14.234 5.67605 14.469 5.95587 14.469Z" fill="#014CC4"/>
<path d="M2.51447 17.7991C2.79429 17.7991 3.02114 17.564 3.02114 17.2741C3.02114 16.9841 2.79429 16.749 2.51447 16.749C2.23464 16.749 2.00781 16.9841 2.00781 17.2741C2.00781 17.564 2.23464 17.7991 2.51447 17.7991Z" fill="#014CC4"/>
<path d="M6.33083 17.2326C6.33083 17.5228 6.22417 17.7991 5.94417 17.7991C5.66417 17.7991 5.4375 17.5642 5.4375 17.2741C5.4375 16.9839 5.66417 16.749 5.94417 16.749C6.23751 16.749 6.33083 16.9425 6.33083 17.2326Z" fill="#014CC4"/>
<path d="M2.51447 21.1287C2.79429 21.1287 3.02114 20.8936 3.02114 20.6037C3.02114 20.3137 2.79429 20.0786 2.51447 20.0786C2.23464 20.0786 2.00781 20.3137 2.00781 20.6037C2.00781 20.8936 2.23464 21.1287 2.51447 21.1287Z" fill="#014CC4"/>
<path d="M6.4092 20.6451C6.4092 20.9353 6.23587 21.1287 5.95587 21.1287C5.67587 21.1287 5.44922 20.8938 5.44922 20.6037C5.44922 20.3135 5.67587 20.0786 5.95587 20.0786C6.23587 20.0786 6.4092 20.3549 6.4092 20.6451Z" fill="#014CC4"/>
<path d="M4.2098 16.1272C4.48962 16.1272 4.71647 15.8922 4.71647 15.6022C4.71647 15.3122 4.48962 15.0771 4.2098 15.0771C3.92997 15.0771 3.70312 15.3122 3.70312 15.6022C3.70312 15.8922 3.92997 16.1272 4.2098 16.1272Z" fill="#014CC4"/>
<path d="M4.2098 19.4568C4.48962 19.4568 4.71647 19.2218 4.71647 18.9318C4.71647 18.6418 4.48962 18.4067 4.2098 18.4067C3.92997 18.4067 3.70312 18.6418 3.70312 18.9318C3.70312 19.2218 3.92997 19.4568 4.2098 19.4568Z" fill="#014CC4"/>
<path d="M4.2098 22.8562C4.48962 22.8562 4.71647 22.6212 4.71647 22.3312C4.71647 22.0412 4.48962 21.8062 4.2098 21.8062C3.92997 21.8062 3.70312 22.0412 3.70312 22.3312C3.70312 22.6212 3.92997 22.8562 4.2098 22.8562Z" fill="#014CC4"/>
<path d="M10.9062 10.3241L14.8154 5.46051C16.7499 3.05635 20.2055 2.72474 22.5269 4.72821C24.8484 6.73167 25.1686 10.3103 23.234 12.7144L19.3249 17.578L10.9062 10.3241Z" stroke="#014CC4" stroke-miterlimit="10" stroke-linecap="round" stroke-linejoin="round"/>
<path d="M7.00987 15.1735L10.9057 10.3237L19.3243 17.5777L15.4285 22.4274C13.494 24.8316 10.0385 25.1632 7.71699 23.1597C6.55625 22.1511 5.88915 20.7556 5.76908 19.3186C5.63566 17.8816 6.03592 16.3756 7.00987 15.1735Z" stroke="#014CC4" stroke-miterlimit="10" stroke-linecap="round" stroke-linejoin="round"/>
<path d="M18.6707 15.6433C18.9505 15.6433 19.1774 15.4083 19.1774 15.1183C19.1774 14.8283 18.9505 14.5933 18.6707 14.5933C18.3909 14.5933 18.1641 14.8283 18.1641 15.1183C18.1641 15.4083 18.3909 15.6433 18.6707 15.6433Z" fill="#014CC4"/>
<path d="M16.0438 13.3777C16.3236 13.3777 16.5504 13.1427 16.5504 12.8527C16.5504 12.5627 16.3236 12.3276 16.0438 12.3276C15.7639 12.3276 15.5371 12.5627 15.5371 12.8527C15.5371 13.1427 15.7639 13.3777 16.0438 13.3777Z" fill="#014CC4"/>
<path d="M13.4012 11.0975C13.681 11.0975 13.9079 10.8624 13.9079 10.5724C13.9079 10.2824 13.681 10.0474 13.4012 10.0474C13.1214 10.0474 12.8945 10.2824 12.8945 10.5724C12.8945 10.8624 13.1214 11.0975 13.4012 11.0975Z" fill="#014CC4"/>
<path d="M20.7254 13.0872C21.0052 13.0872 21.2321 12.8521 21.2321 12.5622C21.2321 12.2722 21.0052 12.0371 20.7254 12.0371C20.4456 12.0371 20.2188 12.2722 20.2188 12.5622C20.2188 12.8521 20.4456 13.0872 20.7254 13.0872Z" fill="#014CC4"/>
<path d="M18.0985 10.8216C18.3783 10.8216 18.6051 10.5865 18.6051 10.2965C18.6051 10.0066 18.3783 9.77148 18.0985 9.77148C17.8186 9.77148 17.5918 10.0066 17.5918 10.2965C17.5918 10.5865 17.8186 10.8216 18.0985 10.8216Z" fill="#014CC4"/>
<path d="M15.4559 8.5413C15.7357 8.5413 15.9625 8.30623 15.9625 8.01625C15.9625 7.72628 15.7357 7.49121 15.4559 7.49121C15.1761 7.49121 14.9492 7.72628 14.9492 8.01625C14.9492 8.30623 15.1761 8.5413 15.4559 8.5413Z" fill="#014CC4"/>
<path d="M22.7801 10.5311C23.0599 10.5311 23.2868 10.296 23.2868 10.006C23.2868 9.71603 23.0599 9.48096 22.7801 9.48096C22.5003 9.48096 22.2734 9.71603 22.2734 10.006C22.2734 10.296 22.5003 10.5311 22.7801 10.5311Z" fill="#014CC4"/>
<path d="M20.1531 8.25126C20.433 8.25126 20.6598 8.01619 20.6598 7.72621C20.6598 7.43624 20.433 7.20117 20.1531 7.20117C19.8733 7.20117 19.6465 7.43624 19.6465 7.72621C19.6465 8.01619 19.8733 8.25126 20.1531 8.25126Z" fill="#014CC4"/>
<path d="M17.5106 5.98564C17.7904 5.98564 18.0173 5.75057 18.0173 5.4606C18.0173 5.17062 17.7904 4.93555 17.5106 4.93555C17.2308 4.93555 17.0039 5.17062 17.0039 5.4606C17.0039 5.75057 17.2308 5.98564 17.5106 5.98564Z" fill="#014CC4"/>
<path d="M18.4051 13.2532C18.6849 13.2532 18.9118 13.0182 18.9118 12.7282C18.9118 12.4382 18.6849 12.2031 18.4051 12.2031C18.1253 12.2031 17.8984 12.4382 17.8984 12.7282C17.8984 13.0182 18.1253 13.2532 18.4051 13.2532Z" fill="#014CC4"/>
<path d="M15.7762 10.9734C16.056 10.9734 16.2829 10.7384 16.2829 10.4484C16.2829 10.1584 16.056 9.92334 15.7762 9.92334C15.4964 9.92334 15.2695 10.1584 15.2695 10.4484C15.2695 10.7384 15.4964 10.9734 15.7762 10.9734Z" fill="#014CC4"/>
<path d="M20.4598 10.6971C20.7396 10.6971 20.9665 10.462 20.9665 10.172C20.9665 9.88204 20.7396 9.64697 20.4598 9.64697C20.18 9.64697 19.9531 9.88204 19.9531 10.172C19.9531 10.462 20.18 10.6971 20.4598 10.6971Z" fill="#014CC4"/>
<path d="M17.8309 8.41728C18.1107 8.41728 18.3375 8.18221 18.3375 7.89224C18.3375 7.60227 18.1107 7.36719 17.8309 7.36719C17.5511 7.36719 17.3242 7.60227 17.3242 7.89224C17.3242 8.18221 17.5511 8.41728 17.8309 8.41728Z" fill="#014CC4"/>
<path d="M22.5672 8.08574C22.847 8.08574 23.0739 7.85066 23.0739 7.56069C23.0739 7.27071 22.847 7.03564 22.5672 7.03564C22.2874 7.03564 22.0605 7.27071 22.0605 7.56069C22.0605 7.85066 22.2874 8.08574 22.5672 8.08574Z" fill="#014CC4"/>
<path d="M19.9246 5.81963C20.2045 5.81963 20.4313 5.58455 20.4313 5.29457C20.4313 5.0046 20.2045 4.76953 19.9246 4.76953C19.6448 4.76953 19.418 5.0046 19.418 5.29457C19.418 5.58455 19.6448 5.81963 19.9246 5.81963Z" fill="#014CC4"/>
</svg>
