<svg width="84" height="84" viewBox="0 0 84 84" fill="none" xmlns="http://www.w3.org/2000/svg">
<g filter="url(#filter0_d_4771_8554)">
<rect x="24" y="24" width="36" height="36" rx="8" fill="#80D280" fill-opacity="0.4" shape-rendering="crispEdges"/>
</g>
<path d="M40.7516 46.8604V48.8904C40.7516 50.6104 39.1516 52.0004 37.1816 52.0004C35.2116 52.0004 33.6016 50.6104 33.6016 48.8904V46.8604C33.6016 48.5804 35.2016 49.8004 37.1816 49.8004C39.1516 49.8004 40.7516 48.5704 40.7516 46.8604Z" stroke="#014CC4" stroke-width="1.5" stroke-linecap="round" stroke-linejoin="round"/>
<path d="M40.7498 44.11C40.7498 44.61 40.6098 45.07 40.3698 45.47C39.7798 46.44 38.5698 47.05 37.1698 47.05C35.7698 47.05 34.5598 46.43 33.9698 45.47C33.7298 45.07 33.5898 44.61 33.5898 44.11C33.5898 43.25 33.9898 42.48 34.6298 41.92C35.2798 41.35 36.1698 41.01 37.1598 41.01C38.1498 41.01 39.0398 41.36 39.6898 41.92C40.3498 42.47 40.7498 43.25 40.7498 44.11Z" stroke="#014CC4" stroke-width="1.5" stroke-linecap="round" stroke-linejoin="round"/>
<path d="M40.7516 44.11V46.86C40.7516 48.58 39.1516 49.8 37.1816 49.8C35.2116 49.8 33.6016 48.57 33.6016 46.86V44.11C33.6016 42.39 35.2016 41 37.1816 41C38.1716 41 39.0616 41.35 39.7116 41.91C40.3516 42.47 40.7516 43.25 40.7516 44.11Z" stroke="#014CC4" stroke-width="1.5" stroke-linecap="round" stroke-linejoin="round"/>
<path d="M52.0002 40.9699V43.03C52.0002 43.58 51.5602 44.0299 51.0002 44.0499H49.0402C47.9602 44.0499 46.9702 43.2599 46.8802 42.1799C46.8202 41.5499 47.0602 40.9599 47.4802 40.5499C47.8502 40.1699 48.3602 39.95 48.9202 39.95H51.0002C51.5602 39.97 52.0002 40.4199 52.0002 40.9699Z" stroke="#014CC4" stroke-width="1.5" stroke-linecap="round" stroke-linejoin="round"/>
<path d="M32 40.5V38.5C32 35.78 33.64 33.88 36.19 33.56C36.45 33.52 36.72 33.5 37 33.5H46C46.26 33.5 46.51 33.51 46.75 33.55C49.33 33.85 51 35.76 51 38.5V39.95H48.92C48.36 39.95 47.85 40.17 47.48 40.55C47.06 40.96 46.82 41.55 46.88 42.18C46.97 43.26 47.96 44.05 49.04 44.05H51V45.5C51 48.5 49 50.5 46 50.5H43.5" stroke="#014CC4" stroke-width="1.5" stroke-linecap="round" stroke-linejoin="round"/>
<defs>
<filter id="filter0_d_4771_8554" x="0" y="0" width="84" height="84" filterUnits="userSpaceOnUse" color-interpolation-filters="sRGB">
<feFlood flood-opacity="0" result="BackgroundImageFix"/>
<feColorMatrix in="SourceAlpha" type="matrix" values="0 0 0 0 0 0 0 0 0 0 0 0 0 0 0 0 0 0 127 0" result="hardAlpha"/>
<feOffset/>
<feGaussianBlur stdDeviation="12"/>
<feComposite in2="hardAlpha" operator="out"/>
<feColorMatrix type="matrix" values="0 0 0 0 0 0 0 0 0 0 0 0 0 0 0 0 0 0 0.08 0"/>
<feBlend mode="normal" in2="BackgroundImageFix" result="effect1_dropShadow_4771_8554"/>
<feBlend mode="normal" in="SourceGraphic" in2="effect1_dropShadow_4771_8554" result="shape"/>
</filter>
</defs>
</svg>
