<svg width="40" height="40" viewBox="0 0 40 40" fill="none" xmlns="http://www.w3.org/2000/svg">
<rect width="40" height="40" rx="8" fill="#80D280" fill-opacity="0.25"/>
<path d="M28.054 22.0668C27.494 22.6135 27.174 23.4002 27.254 24.2402C27.374 25.6802 28.694 26.7335 30.134 26.7335H32.6673V28.3202C32.6673 31.0802 30.414 33.3335 27.654 33.3335H12.3473C9.58732 33.3335 7.33398 31.0802 7.33398 28.3202V19.3468C7.33398 16.5868 9.58732 14.3335 12.3473 14.3335H27.654C30.414 14.3335 32.6673 16.5868 32.6673 19.3468V21.2668H29.974C29.2273 21.2668 28.5473 21.5601 28.054 22.0668Z" stroke="#80D280" stroke-width="1.5" stroke-linecap="round" stroke-linejoin="round"/>
<path d="M7.33398 20.5467V14.4535C7.33398 12.8668 8.30732 11.4534 9.78732 10.8934L20.374 6.89341C22.0273 6.26675 23.8007 7.49345 23.8007 9.26679V14.3334" stroke="#80D280" stroke-width="1.5" stroke-linecap="round" stroke-linejoin="round"/>
<path d="M34.0791 22.6268V25.3735C34.0791 26.1069 33.4924 26.7068 32.7457 26.7335H30.1324C28.6924 26.7335 27.3724 25.6802 27.2524 24.2402C27.1724 23.4002 27.4924 22.6135 28.0524 22.0668C28.5457 21.5601 29.2257 21.2668 29.9724 21.2668H32.7457C33.4924 21.2935 34.0791 21.8935 34.0791 22.6268Z" stroke="#80D280" stroke-width="1.5" stroke-linecap="round" stroke-linejoin="round"/>
<path d="M13.334 20H22.6673" stroke="#80D280" stroke-width="1.5" stroke-linecap="round" stroke-linejoin="round"/>
</svg>
