<svg width="14" height="14" viewBox="0 0 14 14" fill="none" xmlns="http://www.w3.org/2000/svg">
<path d="M5.24935 12.8332H8.74935C11.666 12.8332 12.8327 11.6665 12.8327 8.74984V5.24984C12.8327 2.33317 11.666 1.1665 8.74935 1.1665H5.24935C2.33268 1.1665 1.16602 2.33317 1.16602 5.24984V8.74984C1.16602 11.6665 2.33268 12.8332 5.24935 12.8332Z" stroke="#80D280" stroke-width="1.5" stroke-linecap="round" stroke-linejoin="round"/>
<path d="M10.2077 6.99984C10.2077 8.77317 8.77268 10.2082 6.99935 10.2082C5.22602 10.2082 4.14684 8.42317 4.14684 8.42317M4.14684 8.42317H5.59351M4.14684 8.42317V10.0273M3.79102 6.99984C3.79102 5.2265 5.21435 3.7915 6.99935 3.7915C9.14018 3.7915 10.2077 5.5765 10.2077 5.5765M10.2077 5.5765V3.97234M10.2077 5.5765H8.78435" stroke="#80D280" stroke-width="1.5" stroke-linecap="round" stroke-linejoin="round"/>
</svg>
