<svg width="20" height="20" viewBox="0 0 20 20" fill="none" xmlns="http://www.w3.org/2000/svg">
<path d="M1.72537 3.8334C2.39204 0.950065 6.73371 0.950065 7.39204 3.8334C7.78371 5.52507 6.70871 6.9584 5.77537 7.85007C5.09204 8.50007 4.01704 8.49173 3.33371 7.85007C2.40871 6.9584 1.33371 5.52507 1.72537 3.8334Z" stroke="#014CC4" stroke-width="1.5"/>
<path d="M12.5593 13.8334C13.226 10.9501 17.5926 10.9501 18.2593 13.8334C18.651 15.5251 17.576 16.9584 16.6343 17.8501C15.951 18.5001 14.8676 18.4917 14.1843 17.8501C13.2426 16.9584 12.1676 15.5251 12.5593 13.8334Z" stroke="#014CC4" stroke-width="1.5"/>
<path d="M9.99942 4.16675H12.2328C13.7744 4.16675 14.4911 6.07508 13.3328 7.09175L6.67443 12.9167C5.51609 13.9251 6.23276 15.8334 7.76609 15.8334H9.99942" stroke="#014CC4" stroke-width="1.5" stroke-linecap="round" stroke-linejoin="round"/>
<path d="M4.57111 4.58341H4.58074" stroke="#014CC4" stroke-width="2" stroke-linecap="round" stroke-linejoin="round"/>
<path d="M15.4051 14.5834H15.4147" stroke="#014CC4" stroke-width="2" stroke-linecap="round" stroke-linejoin="round"/>
</svg>
