<svg width="14" height="11" viewBox="0 0 14 11" fill="none" xmlns="http://www.w3.org/2000/svg">
<path d="M13.1094 0C13.6012 0.000230207 14 0.401152 14 0.895508V10.1045C14 10.5988 13.6012 10.9998 13.1094 11H0.890625C0.398722 10.9999 0 10.5989 0 10.1045V0.895508C0 0.401103 0.398721 0.000149107 0.890625 0H13.1094ZM0.890625 0.767578C0.820461 0.767727 0.763672 0.824957 0.763672 0.895508V10.1045C0.763672 10.175 0.820461 10.2323 0.890625 10.2324H7.47949V8.54395C7.47923 8.35568 7.32024 8.13787 7.01074 7.93945C6.46938 7.59245 6.10938 6.98193 6.10938 6.28711C6.10939 6.0077 6.16802 5.74112 6.27344 5.5C6.16807 5.2591 6.10938 4.99291 6.10938 4.71289C6.1094 4.0182 6.46953 3.40854 7.01074 3.06152C7.32045 2.86301 7.47935 2.6444 7.47949 2.45605V0.767578H0.890625ZM11.2002 6.26758C10.872 6.52046 10.4611 6.67084 10.0156 6.6709C9.65932 6.6709 9.32401 6.57467 9.03613 6.40625C8.74838 6.57454 8.41372 6.67085 8.05762 6.6709C7.61206 6.6709 7.20127 6.52051 6.87305 6.26758C6.87294 6.27405 6.87305 6.28061 6.87305 6.28711C6.87305 6.70893 7.09112 7.07999 7.42188 7.29199C7.7781 7.52039 8.24292 7.93866 8.24316 8.54395V10.2227C8.24316 10.2247 8.24387 10.2259 8.24414 10.2266C8.2445 10.2274 8.24507 10.2284 8.24609 10.2295C8.24717 10.2306 8.24816 10.232 8.24902 10.2324H9.82324L9.8291 10.2266V8.54395C9.82934 7.93848 10.2951 7.52035 10.6514 7.29199C10.982 7.07997 11.2002 6.70887 11.2002 6.28711C11.2002 6.28063 11.2003 6.27403 11.2002 6.26758ZM10.5928 2.45605C10.5929 2.64439 10.7518 2.86302 11.0615 3.06152C11.6029 3.40851 11.9638 4.0181 11.9639 4.71289C11.9639 4.99284 11.9051 5.25915 11.7998 5.5C11.9052 5.74109 11.9638 6.00774 11.9639 6.28711C11.9639 6.98193 11.6029 7.59245 11.0615 7.93945C10.7522 8.13783 10.593 8.35572 10.5928 8.54395V10.2324H13.1094C13.1795 10.2322 13.2363 10.175 13.2363 10.1045V0.895508C13.2363 0.825008 13.1795 0.767808 13.1094 0.767578H10.5928V2.45605ZM4.4541 8.44141C4.66483 8.44141 4.83571 8.61346 4.83594 8.8252C4.83594 9.03712 4.66497 9.20898 4.4541 9.20898H2.41797C2.2071 9.20898 2.03613 9.03712 2.03613 8.8252C2.03636 8.61346 2.20724 8.44141 2.41797 8.44141H4.4541ZM4.4541 7.16309C4.66497 7.16309 4.83594 7.33495 4.83594 7.54688C4.83576 7.75865 4.66487 7.93066 4.4541 7.93066H2.41797C2.20721 7.93066 2.03631 7.75865 2.03613 7.54688C2.03613 7.33495 2.2071 7.16309 2.41797 7.16309H4.4541ZM8.24902 0.768555C8.24822 0.76897 8.24704 0.769559 8.24609 0.770508C8.24509 0.771547 8.24452 0.772605 8.24414 0.773438C8.24387 0.774081 8.24316 0.775277 8.24316 0.777344V2.45605C8.24304 3.06142 7.77813 3.47957 7.42188 3.70801C7.09114 3.92 6.87308 4.2911 6.87305 4.71289C6.87305 5.37041 7.40338 5.90332 8.05762 5.90332C8.29839 5.90326 8.52157 5.83141 8.70801 5.70801C8.907 5.57646 9.1663 5.57634 9.36523 5.70801C9.55172 5.83141 9.77479 5.90332 10.0156 5.90332C10.6697 5.90317 11.2002 5.37032 11.2002 4.71289C11.2002 4.29111 10.9821 3.92 10.6514 3.70801C10.2951 3.47962 9.82923 3.06164 9.8291 2.45605V0.773438C9.82872 0.772538 9.82734 0.771677 9.82617 0.770508C9.82511 0.769455 9.82409 0.768944 9.82324 0.768555L9.81934 0.767578H8.25293C8.25101 0.7676 8.24964 0.768291 8.24902 0.768555Z" fill="#80D280"/>
</svg>
