<svg width="20" height="20" viewBox="0 0 20 20" fill="none" xmlns="http://www.w3.org/2000/svg">
<path d="M8.96031 14.0508V15.7425C8.96031 17.1758 7.62697 18.3341 5.9853 18.3341C4.34363 18.3341 3.00195 17.1758 3.00195 15.7425V14.0508C3.00195 15.4841 4.3353 16.5008 5.9853 16.5008C7.62697 16.5008 8.96031 15.4758 8.96031 14.0508Z" stroke="#292D32" stroke-width="1.5" stroke-linecap="round" stroke-linejoin="round"/>
<path d="M8.95883 11.7581C8.95883 12.1748 8.84216 12.5581 8.64216 12.8914C8.15049 13.6998 7.14215 14.2081 5.97548 14.2081C4.80882 14.2081 3.80047 13.6914 3.30881 12.8914C3.10881 12.5581 2.99219 12.1748 2.99219 11.7581C2.99219 11.0415 3.3255 10.3998 3.85884 9.93312C4.4005 9.45812 5.14214 9.1748 5.96714 9.1748C6.79214 9.1748 7.53383 9.46645 8.0755 9.93312C8.6255 10.3914 8.95883 11.0415 8.95883 11.7581Z" stroke="#292D32" stroke-width="1.5" stroke-linecap="round" stroke-linejoin="round"/>
<path d="M8.96031 11.7586V14.0503C8.96031 15.4836 7.62697 16.5003 5.9853 16.5003C4.34363 16.5003 3.00195 15.4753 3.00195 14.0503V11.7586C3.00195 10.3253 4.3353 9.16699 5.9853 9.16699C6.8103 9.16699 7.55199 9.45864 8.09366 9.9253C8.62699 10.392 8.96031 11.042 8.96031 11.7586Z" stroke="#292D32" stroke-width="1.5" stroke-linecap="round" stroke-linejoin="round"/>
<path d="M18.3329 9.14196V10.8587C18.3329 11.317 17.9662 11.692 17.4995 11.7086H15.8662C14.9662 11.7086 14.1412 11.0503 14.0662 10.1503C14.0162 9.62531 14.2162 9.13364 14.5662 8.79197C14.8745 8.47531 15.2995 8.29199 15.7662 8.29199H17.4995C17.9662 8.30866 18.3329 8.68362 18.3329 9.14196Z" stroke="#292D32" stroke-width="1.5" stroke-linecap="round" stroke-linejoin="round"/>
<path d="M1.66602 8.75033V7.08366C1.66602 4.81699 3.03268 3.23366 5.15768 2.96699C5.37435 2.93366 5.59935 2.91699 5.83268 2.91699H13.3327C13.5493 2.91699 13.7577 2.92532 13.9577 2.95865C16.1077 3.20865 17.4993 4.80033 17.4993 7.08366V8.292H15.766C15.2993 8.292 14.8743 8.47532 14.566 8.79198C14.216 9.13365 14.016 9.62532 14.066 10.1503C14.141 11.0503 14.966 11.7086 15.866 11.7086H17.4993V12.917C17.4993 15.417 15.8327 17.0837 13.3327 17.0837H11.2493" stroke="#292D32" stroke-width="1.5" stroke-linecap="round" stroke-linejoin="round"/>
</svg>
