<svg width="21" height="21" viewBox="0 0 21 21" fill="none" xmlns="http://www.w3.org/2000/svg">
<path d="M10.7239 19.1928C11.4564 18.605 18.2583 11.9903 18.3344 11.918C18.6348 11.6176 18.8239 11.3061 18.8758 11.0205C18.9296 10.7238 18.8387 10.4642 18.5977 10.2231C18.3733 9.99873 18.0988 9.88005 17.804 9.88005C17.4442 9.88005 17.0752 10.0507 16.7674 10.3603L13.6835 13.3237C13.6298 13.3756 13.5593 13.4015 13.4907 13.4015C13.4184 13.4015 13.3479 13.3737 13.2941 13.3199C13.1866 13.2124 13.1866 13.0381 13.2923 12.9305L18.2157 7.84578C18.7089 7.35252 18.9407 6.59778 18.3548 6.01179C18.1304 5.78741 17.8559 5.66873 17.5611 5.66873C17.2013 5.66873 16.8323 5.83933 16.5245 6.14902L11.4879 11.0594C11.4342 11.1114 11.3637 11.1392 11.2932 11.1392C11.2228 11.1392 11.1504 11.1114 11.0967 11.0576C10.9891 10.95 10.9873 10.7757 11.0948 10.6663L17.1438 4.46523C17.4238 4.18522 17.5926 3.84958 17.6223 3.5232C17.6501 3.19127 17.5333 2.88344 17.2829 2.6331C17.0585 2.40872 16.7841 2.29003 16.4892 2.29003C16.1295 2.29003 15.7605 2.46064 15.4526 2.76847L9.28308 8.78411C9.2293 8.83603 9.15884 8.86384 9.08837 8.86384C9.0179 8.86384 8.94558 8.83603 8.8918 8.78225C8.78425 8.6747 8.78239 8.50038 8.88995 8.39097L13.3702 3.78653C13.652 3.50466 13.8208 3.17087 13.8486 2.8445C13.8764 2.51256 13.7596 2.20473 13.5092 1.95439C13.2849 1.73001 13.0104 1.61133 12.7156 1.61133C12.3558 1.61133 11.9868 1.78193 11.6789 2.09161C10.036 3.70493 5.74676 7.92367 5.60212 8.07944C5.05136 8.45959 4.9401 7.88473 4.91228 7.51199C4.88076 7.07807 5.37774 5.56303 5.08845 4.20006C4.6026 2.38832 3.20254 2.68502 3.17101 2.69985C2.40329 3.05961 2.54979 3.59738 2.82239 4.67849L2.8502 4.89174C3.13578 6.30479 1.17384 10.492 1.02919 10.8054C0.259621 12.4892 -0.626778 15.9031 2.30872 18.8386C5.52609 22.056 9.50931 20.4074 10.7239 19.1928Z" fill="url(#paint0_radial_778_7973)"/>
<path d="M6.59819 20.9998C8.57126 20.9998 10.2495 20.0559 10.9115 19.4013C11.5068 18.9155 15.2637 15.2883 18.3235 12.3194C18.4477 12.1989 18.5201 12.1302 18.5275 12.121C18.8742 11.7742 19.0894 11.4126 19.1505 11.0714C19.221 10.6838 19.1005 10.3333 18.7964 10.0274C18.5182 9.7492 18.177 9.60271 17.8061 9.60271C17.3703 9.60271 16.9327 9.80298 16.5729 10.1646L13.4928 13.1242L18.4181 8.03946C18.9855 7.47201 19.2711 6.53184 18.5534 5.81604C18.2753 5.53788 17.9341 5.39139 17.5632 5.39139C17.1274 5.39139 16.6898 5.59166 16.33 5.95327L11.2972 10.86L17.3444 4.66076C17.667 4.33809 17.8655 3.94311 17.9007 3.54998C17.9359 3.13089 17.7913 2.74703 17.4816 2.43735C17.2034 2.15919 16.8622 2.01269 16.4914 2.01269C16.0574 2.01269 15.6198 2.21111 15.2582 2.57272L9.09048 8.5865L13.5707 3.98205C13.8952 3.65753 14.0936 3.26255 14.127 2.86942C14.1622 2.45218 14.0176 2.06832 13.7079 1.75864C13.4298 1.48048 13.0885 1.33398 12.7177 1.33398C12.2819 1.33398 11.8443 1.53426 11.4845 1.89586L10.1475 3.20692C7.7646 5.54345 5.77298 7.49983 5.55973 7.71865C5.45588 7.80209 5.32051 7.83362 5.26303 7.8058C5.22594 7.78726 5.18514 7.70196 5.19256 7.52208C5.20368 7.20684 5.24819 6.81556 5.29455 6.40203C5.38727 5.57126 5.4837 4.71083 5.36316 4.14338C5.09984 3.1587 4.58247 2.74147 4.19675 2.56159C3.6664 2.31681 3.15273 2.40211 3.05445 2.44847C2.09017 2.90094 2.28117 3.65753 2.54449 4.70712L2.55005 4.73308L2.57973 4.95004C2.77258 5.89949 1.78234 8.52345 0.792093 10.6616L0.777258 10.6912C0.115242 12.1377 -1.07713 15.8483 2.11242 19.0378C3.57924 20.501 5.1666 20.9998 6.59819 20.9998ZM17.8061 10.159C18.0249 10.159 18.2326 10.2499 18.4032 10.4205C18.5794 10.5967 18.6406 10.7673 18.6035 10.9712C18.5627 11.1956 18.3977 11.4627 18.1399 11.7223C18.1381 11.7241 18.0639 11.7964 17.9359 11.9188C13.5929 16.1339 10.9708 18.6391 10.5517 18.9766L10.5295 18.997C9.50587 20.0207 5.70252 21.838 2.5074 18.6429C-0.435513 15.6999 0.671558 12.2638 1.28536 10.9212L1.29834 10.8934C1.93625 9.5174 3.38638 6.1795 3.12862 4.84805L3.08597 4.56989C2.8004 3.43501 2.78371 3.19765 3.2677 2.96399C3.41049 2.93803 4.43411 2.81379 4.82539 4.27319C4.92367 4.73864 4.8291 5.58981 4.74565 6.34084C4.69744 6.76549 4.65293 7.16789 4.64181 7.50354C4.62326 8.03204 4.8736 8.23417 5.02566 8.30834C5.33535 8.45855 5.70437 8.3306 5.93431 8.13774L5.95842 8.11549C6.07154 7.9931 8.76226 5.3543 10.5425 3.60747L11.8813 2.2927C12.3375 1.83467 12.9254 1.75864 13.3203 2.15362C13.5132 2.34648 13.6004 2.57272 13.58 2.82306C13.5577 3.08453 13.4168 3.35712 13.1813 3.59263L8.69179 8.19708C8.48039 8.41219 8.48039 8.76452 8.6955 8.97963C8.90134 9.18547 9.2648 9.18918 9.4762 8.9852L15.6495 2.9677C16.1056 2.51152 16.6953 2.43549 17.0885 2.83048C17.2813 3.02333 17.3685 3.24957 17.3481 3.49991C17.324 3.76138 17.183 4.03583 16.9494 4.26763L10.8985 10.4724C10.6853 10.6875 10.6871 11.0399 10.9022 11.255C11.1081 11.4608 11.4715 11.4645 11.6829 11.2605L16.7213 6.34825C17.1775 5.88836 17.7672 5.81419 18.1603 6.20917C18.6406 6.68946 18.3847 7.28472 18.0212 7.65003L13.0941 12.7385C12.8827 12.9536 12.8846 13.3041 13.0997 13.5173C13.3074 13.725 13.6671 13.7269 13.8785 13.5247L16.9624 10.5614C17.222 10.3 17.5205 10.159 17.8061 10.159Z" fill="#EDA600"/>
<path d="M6.04329 7.90137C7.06135 9.98014 6.92969 12.8897 5.40167 15.2243C5.22922 15.5396 4.93437 15.3857 5.08457 15.0612C6.92969 11.1132 4.99556 8.26854 4.99556 8.26854L6.04329 7.90137Z" fill="#EDA600"/>
<path d="M10.051 0.104846C9.49093 -0.0416507 8.89381 -0.0286699 8.31339 0.106701C7.73667 0.24578 7.15996 0.538773 6.73159 1.01721C6.3125 1.49193 6.05474 2.06864 5.96759 2.67318C5.88599 3.27214 5.96202 3.88965 6.24574 4.40147C6.27912 3.82661 6.37926 3.2981 6.54801 2.8104C6.63517 2.56748 6.73716 2.33568 6.8614 2.11686C6.98379 1.8999 7.12843 1.68479 7.28235 1.50862C7.59574 1.14701 8.02039 0.865146 8.49697 0.646328C8.9754 0.420092 9.49649 0.253197 10.051 0.104846Z" fill="#B0BEC5"/>
<path d="M9.89275 1.86217C9.58306 1.6656 9.1955 1.62481 8.83018 1.68971C8.46116 1.75462 8.10882 1.9382 7.83067 2.19225C7.55436 2.45001 7.3578 2.77453 7.23541 3.11203C7.17607 3.28078 7.1464 3.4588 7.11858 3.63126C7.10931 3.80928 7.10931 3.9873 7.13713 4.16532C7.26508 4.02995 7.36522 3.89458 7.45979 3.76292C7.5692 3.63868 7.6545 3.50701 7.75278 3.38648C7.94564 3.14726 8.13293 2.9303 8.33506 2.73744C8.54275 2.55015 8.76157 2.38511 9.01562 2.24232C9.26782 2.09582 9.55154 1.97343 9.89275 1.86217Z" fill="#90A4AE"/>
<path d="M20.4966 13.6113C20.2352 14.1231 19.9626 14.5979 19.6455 15.017C19.3302 15.436 18.9686 15.7921 18.5477 16.0239C18.3437 16.137 18.1008 16.2353 17.8634 16.3095C17.6242 16.3855 17.3757 16.4374 17.1198 16.4727C16.608 16.5357 16.0702 16.5246 15.5009 16.4374C15.9422 16.8213 16.5319 17.0253 17.1328 17.0698C17.741 17.1106 18.3585 16.9789 18.9111 16.6674C19.4674 16.3503 19.8754 15.8459 20.1313 15.3099C20.3872 14.7703 20.5244 14.1899 20.4966 13.6113Z" fill="#B0BEC5"/>
<path d="M18.7454 13.3955C18.5655 13.707 18.3875 13.9574 18.1928 14.1762C18 14.395 17.7923 14.5749 17.566 14.7381C17.3361 14.8957 17.0839 15.0348 16.8094 15.1739C16.6722 15.2443 16.5257 15.3 16.3811 15.3816C16.2309 15.4465 16.0788 15.5151 15.9193 15.6134C16.0881 15.6764 16.2605 15.7135 16.4367 15.7413C16.611 15.7487 16.7909 15.758 16.9689 15.7339C17.325 15.6857 17.681 15.5614 17.9925 15.3445C18.2985 15.1238 18.5526 14.8178 18.6916 14.4711C18.8326 14.1261 18.8734 13.7404 18.7454 13.3955Z" fill="#90A4AE"/>
<defs>
<radialGradient id="paint0_radial_778_7973" cx="0" cy="0" r="1" gradientUnits="userSpaceOnUse" gradientTransform="translate(13.5952 6.31589) rotate(-135) scale(16.8763)">
<stop offset="0.3533" stop-color="#FFCA28"/>
<stop offset="0.8723" stop-color="#FFB300"/>
</radialGradient>
</defs>
</svg>
